<?xml version="1.0" encoding="utf-8"?>
<!-- Generator: Adobe Illustrator 22.1.0, SVG Export Plug-In . SVG Version: 6.00 Build 0)  -->
<svg version="1.1" id="Layer_1" xmlns="http://www.w3.org/2000/svg" xmlns:xlink="http://www.w3.org/1999/xlink" x="0px" y="0px"
	 viewBox="0 0 350 350" style="enable-background:new 0 0 350 350;" xml:space="preserve">
<style type="text/css">
	.st0{fill:#663F7C;}
	.st1{fill:#D0D9DD;}
	.st2{fill:#AE8CBF;}
	.st3{fill:#FEFEFE;}
	.st4{fill:#168250;}
	.st5{fill:#80C898;}
	.st6{fill:#59BE89;}
	.st7{fill:#97D1AE;}
	.st8{fill:#135987;}
	.st9{fill:#6BA1D6;}
	.st10{fill:#4F78B8;}
	.st11{fill:#A7C4E2;}
	.st12{fill:#A8CF65;}
	.st13{fill:#90C756;}
	.st14{fill:#C75D19;}
	.st15{fill:#F9A83F;}
	.st16{fill:#B0233E;}
	.st17{fill:#F06D85;}
	.st18{fill:#EF4A6B;}
</style>
<g>
	<path class="st0" d="M44.6,291.8c-5.2-11.9-10.2-23.8-15.9-35.6c-2.2-4.6-1.3-8.1,1.6-11.8c11.5-14.2,22.9-28.5,34.3-42.8
		c1.6-2,3.6-2.8,6.1-3.4c19.4-4.9,38.7-10,58.1-14.9c3.1-0.8,4.5-1.8,5-4.9c6.1-36.1,12.4-72.2,18.6-108.3c0.8-4.9,3.1-8.8,7.3-12.4
		c21.1-17.6,41.8-35.4,62.7-53.2c7-6,9-6.1,16.4-0.8c7.7,5.4,15.1,11.1,23.3,15.9c6.1,3.5,8.8,8.3,10.3,14.1
		c10.4,41.2,20.7,82.4,31.1,123.6c1,3.8-1,7.2-2.3,10.6c-7.7,19.2-15.6,38.3-23.4,57.5c-0.4,1.1-0.8,2.2-1.5,4.2
		c6-1.5,11.3-2.9,16.6-4.3c7.7-2.1,10.5-0.9,13.5,5.6c3.1,6.9,6.1,13.9,9.4,20.8c1.2,2.5,1.1,4.7,0,7.2c-4,8.7-7.8,17.5-11.9,26.1
		c-1.2,2.6-1.4,4.7,0.9,6.8c1.1,3.4-0.4,6.2-2.7,8.9c-4.7,5.4-7.5,12.7-14.6,15.8c-7.9,3.5-17,6.1-25.9,5.8
		c-11.6-0.3-23.2-2.1-34.7-3.5c-4-0.5-5.4-3.1-4.1-6.5c0.7-1.7,2-3.3,1.8-5.6c-10.4,6-22.3,9.5-29.9,18.5c-1.6,1.9-4.1,1.9-6.4,2
		c-11.2,0.5-22.3,0.9-33.5,1.3c-3.7,0.1-6.9-0.9-9.6-3.1c-1.7-1.4-3.7-2.6-5.1-4.2c-3.1-3.6-6.6-3.6-10.8-1.6
		c-4.1,2-8.4,3.2-13.4,2.5c-18.4-2.4-36.9-4.7-55.4-6.9c-3.6-0.4-5.7-1.8-7-4.8C50.7,304.5,47.6,298.2,44.6,291.8z M102.5,221.3
		L102.5,221.3c0.7,0,1.1-0.2,1.1-0.8l0,0c17.2-8.7,33.9-17.9,40.5-36.5c-4.7,1.2-9.1,2.3-13.5,3.4c-4.7,1.3-9.4,2.6-14.1,4
		c-3.6,0.9-7.2,1.9-10.9,2.8c-0.8,0.1-1.8-0.2-2,0.8l0-0.1c-6.2,0.9-12.2,2.4-17.9,4.6c-4.6,0.1-8.6,2.2-13,2.9
		c-2.3,0.4-3.7,1.6-5,3.3c-7.6,9.6-15.4,19.1-23,28.7c-3.1,4-7,7.7-9.8,13.4c7.3-2.2,13.5-4,19.7-5.9c4.7-1.4,9.5-2.4,13.8-4.6
		c6-1,11.7-2.5,17.1-5.1c0.4-0.4,0.7-0.7,1.1-1.1l0,0.1c5.4-2.5,10.1-5.7,14.9-9C101.8,221.9,102.1,221.6,102.5,221.3z M217.9,43.5
		c1.4-3.7,2.9-7.5,2.8-11.5c3-5.9,3.5-12.4,5.7-18.5c0.3-2.1,1.8-4.1,1.1-6.6c-0.7,0.3-1,0.4-1.3,0.6c-21.7,18.5-43.4,37-65.2,55.5
		c-2.8,2.4-2.2,4.1,0.2,6.1c0.4,2.7,1.9,5,3.2,7.4c1,2,1.9,4,2.9,6c0.4,0.8,0.8,1.7,1.3,2.5c1.3,2.7,2.7,5.3,3.9,8
		c1.1,2.6,2.6,3.3,5.5,1.7c9.3-5,18.8-9.9,28.2-14.8c1.3-0.7,2.7-1.3,3-2.7c1.6-7.4,4.7-14.6,5.4-22.1
		C216.4,51.3,217.4,47.4,217.9,43.5z M162.4,293.4c-13.9,1.6-27.5,4.2-41.9,6.8c10.3,8.1,19.9,15.6,29.7,23.4c1.1-2.3,2-4.1,2.7-5.8
		c3.3-8,7.7-15.6,10-23.8c0.1-0.2,0.2-0.5,0.3-0.7C162.9,293.2,162.7,293.3,162.4,293.4z M276.8,276.9c-0.1-1,1.8-1.3,1.1-2.7
		c-10,3-20,6-30,9c0.1,0.4,0.2,0.9,0.3,1.3c2.9,0.1,6-0.2,8.7,0.5c5.1,1.3,8.4-0.5,12-3.2C271.3,280,273.3,277.5,276.8,276.9
		c-0.3,4.5-5.1,5.7-8.2,8c-2.2,1.7-2.4,2.8-1.2,5.1c4.1,7.7,10.4,13.8,17.1,19.8c1.6,1.4,2.4,1.7,3.7-0.1c3.4-4.3,7-8.5,10.6-12.7
		c1.3-1.5,0.9-2.9-0.1-4.5c-3.5-5.7-7-11.3-10.3-17.1c-1.6-2.8-3.4-2.4-5.5-0.7C281.1,276.2,279.5,277.7,276.8,276.9z M123.9,296.6
		c5,0,9.9-1.3,14.8-2.1c27.5-4.3,27.5-4.3,45.8-20.4c0.7-0.7,2.1-1.1,1.3-2.6c-10.7,0-21.6,0-32.4,0c-1.9,0-3.1,0.7-4.3,1.8
		c-8.6,7.6-17.2,15.1-25.8,22.7c-0.2,0.2-0.6,0.6-0.5,0.7C123.1,297.1,123.6,296.9,123.9,296.6z M119.3,318.3c3.8,0,7.7-2.5,12-4
		c2.2-0.7,0.5-1.9-0.4-2.6c-3.8-3.1-7.5-6.2-11.5-9.1c-3.1-2.3-3.4-4-0.2-6.6c8.1-6.7,16.3-13.5,23.8-20.8c4.7-4.6,9.7-7.3,16.8-6.2
		c3.2,0.5,4.4-0.4,2.6-3.3c-1.5-2.3-2.5-4.8-3.8-7.2c-8.4-16.2-16.9-32.5-25.2-48.8c-1.3-2.5-2.3-2.6-4.6-1.1
		c-8.3,5.2-16.4,10.5-25,15.4c-8.5,4.8-15.9,11-26,13.7c-14,3.7-27.8,8.1-41.7,12.2c-2.2,0.6-4.3,0.9-2.8,4.1
		c8.3,18,16.4,36.2,24.5,54.3c0.9,2,2.1,3,4.7,3.2c6.1,0.5,12.2,1.4,18.3,2.2C93.2,315.1,105.7,316.6,119.3,318.3z M174.9,100.9
		c-0.5,0.7-0.9,1.1-1.1,1.4c-7.7,25.3-15.3,50.7-22.9,76c-0.7,2.2-0.6,4.3,0.2,6.5c6.1,16.6,12.2,33.2,18.3,49.7
		c1.2,3.3,2.5,6.5,4.1,10.6c1.1-1.8,1.8-2.6,2.1-3.5c3.8-11.8,9.3-23.2,11.9-35.3c5.2-25.3,10.8-50.6,16.2-75.9
		c0.4-1.8,0.8-3.6-1.1-5.3C193.3,117.1,184.2,109,174.9,100.9z M247.1,189.7c-0.9-7-1.1-12.3-1.2-17.6c-0.3-15.1-0.8-30.2-1-45.2
		c0-2.8-1-3.4-4.2-3c-9.9,1.2-19.8,2.2-29.7,3.1c-2.7,0.2-4,0.9-4.5,3.5c-5.5,26.3-11.2,52.6-17,78.8c-0.8,3.6,0.1,3.7,3.5,2.6
		c15.8-5.4,31.7-10.8,47.6-15.8C245.4,194.6,248.2,192.7,247.1,189.7z M245.4,119.3c6.8-30.7,13.3-60.1,19.9-89.4
		c0.4-1.9-0.6-2.6-1.9-3.5c-9.4-6.5-18.9-13-28.2-19.6c-2.9-2-3.9-2.3-4.9,1.4c-5.8,22.7-11.9,45.3-18.1,67.9
		c-0.6,2.3-0.2,3.9,1.3,5.6c3.8,4.4,7.6,8.9,11.3,13.4C231.4,102.8,238,110.5,245.4,119.3z M236.8,258.7c0-0.5-1.5-1.3-2.7-2.3
		c-7.1-6-14.3-11.9-21.4-17.9c-7.1-6-14.2-12-21.4-17.8c-1.6-1.3-3.6-3.8-5.2,0.4c-5.5,14.9-11.1,29.9-16.9,44.7
		c-1.1,3,0.3,3.2,3,3.2c5-0.1,10,0.1,15-0.1c3.3-0.1,5,0.6,5.6,3.9c2.2,12.3,4.9,24.5,7.3,36.7c0.6,3,1.3,4.1,5,2.1
		c7-3.9,14.3-7.5,21.7-11c3.4-1.6,4.8-3.5,5-6.9c0.3-5.4,1.3-10.8,1.8-16.1C234.1,271.7,235.4,265.9,236.8,258.7z M237.8,255.4
		c1.2-8.4,2.3-15.8,3.4-23.1c1.5-10.1,3.1-20.3,4.5-30.4c0.6-4.6,0.1-4.8-5-3.1c-6.9,2.3-13.7,4.5-20.6,6.8
		c-10,3.3-20,6.7-30.7,10.3C205.8,228.8,222,240.9,237.8,255.4z M210.2,124.6c9.7-0.9,19.5-1.8,29.3-2.8c3.8-0.4,3.3-1.8,1.5-3.9
		c-9.8-11.5-19.5-23-29.1-34.6c-1.6-2-2.9-2.2-5.2-0.9c-9,4.8-18.1,9.4-27.2,14c-2.7,1.3-3.2,2.3-0.7,4.4c8.5,7.2,16.9,14.6,25.2,22
		C205.8,124.5,207.7,125.1,210.2,124.6z M157.8,69.3c-1.2,6.9-2.3,12.5-3.2,18.1c-3.6,20.8-7.2,41.6-10.8,62.4
		c-1.7,9.8-3.4,19.6-5,29.5c-0.2,1.1-1.4,3.4,1.7,2.9c3.4-0.6,6.7-0.8,8-5.1c7.4-25.4,15.2-50.6,22.9-75.9c0.4-1.4,0.8-2.9,0.1-4.3
		C167.1,88,162.8,79.2,157.8,69.3z M236.6,283.8c11.6-3.4,22.4-6.7,33.3-9.8c2.6-0.8,3.2-2.3,2.9-4.4c-0.7-5.4-1.3-10.7-2-16.1
		c-1.5-11.9-3-23.9-4.5-36.5c-5.5,6.7-8.9,13.7-12.7,20.4c-5.4,9.4-13.4,17.9-14.4,29.1C238.6,272.2,237.5,277.8,236.6,283.8z
		 M147.9,184.7c-4.4,6.7-7.9,12.3-11.7,17.8c-1.4,2-1.5,3.4-0.4,5.6c6.9,13.1,13.6,26.4,20.4,39.6c3.1,6.1,6.3,12.1,9.8,18.7
		c1.9-5,3.6-9.3,5.2-13.6c0.5-1.4,0.6-2.9,0.1-4.3C163.7,227.5,156,206.7,147.9,184.7z M243.8,286.5c-1.4,0.1-3.9-0.9-5.1,1.9
		c-3.5,7.9-7,15.8-10.5,23.7c-0.8,1.9-0.1,2.5,2.1,2.8c9.7,1,19.4,2.2,29.2,3.3c2,0.2,2.9-0.3,3.5-2.1c1.5-4.3,3.4-8.6,5-12.9
		c1.3-3.3-2-13-5.2-15c-0.6-0.4-1.5-0.6-2.3-0.6C255.2,287.2,249.9,286.9,243.8,286.5z M248.8,132.2c0,7.3-0.1,15,0,22.7
		c0.2,12.3,0.6,24.6,1,36.8c0,1.3,0,2.6,1.2,3.7c4.7,4.1,9.3,8.2,14.9,13c0.7-8.5,1.5-16,1.8-23.5c0.1-2.8,1.7-5.5,0.6-8.2
		C261.7,161.7,255.1,146.7,248.8,132.2z M157.1,324.1c2.6-0.2,5.3-0.5,7.9-0.6c7.8-0.2,15.6-0.1,23.4-0.9c4.8-0.5,5.8-4.4,8.7-6.6
		c0.7-0.5-0.5-1.2-1.1-1.6c-8.9-6.4-17.7-12.8-26.6-19.2c-1.7-1.2-2.8-1.7-3.8,0.8c-3.5,8.4-7.3,16.6-11.1,24.9
		C153.3,323.5,153.9,324.6,157.1,324.1z M197.8,312.2c-0.6-2.2-0.9-3.3-1.1-4.4c-2.1-10.6-4.1-21.3-6.1-31.9c-0.3-1.5-0.7-3-2.7-1.3
		c-5.8,5-11.6,10-17.4,15.1c-1,0.8-2,1.6-0.3,2.8C179,298.8,187.9,305.1,197.8,312.2z M249.3,197.9c-2.6,18-5,34.8-7.5,51.5
		c7.8-11.6,14.9-23.5,22-35.3c0.7-1.2,1.3-2.4-0.1-3.6C259.1,206.6,254.6,202.6,249.3,197.9z M297.8,228.8
		c-7.2,1.9-12.7,3.3-18.2,4.8c-8,2.2-8,2.2-7,9.7c0.1,1,0.1,2,0.2,3.1c0.9,7.1,1.9,14.1,2.8,21.2c0.4,0.1,0.7,0.1,1.1,0.2
		C283.5,255.2,290.3,242.6,297.8,228.8z M265.6,317.5c5.7-1.3,10.3-2.2,14.9-3.3c2.2-0.5,2.5-1.5,0.9-3.1c-2.5-2.3-4.9-4.7-7.3-7.1
		c-1.7-1.7-2.7-1.3-3.4,0.6C269.1,308.6,267.5,312.6,265.6,317.5z"/>
	<path class="st1" d="M44.6,291.8c3,6.3,6.1,12.6,8.9,19c1.3,3,3.4,4.3,7,4.8c18.5,2.2,37,4.4,55.4,6.9c5,0.7,9.3-0.6,13.4-2.5
		c4.2-2,7.7-2,10.8,1.6c1.4,1.6,3.4,2.8,5.1,4.2c2.7,2.2,5.9,3.2,9.6,3.1c11.2-0.4,22.3-0.8,33.5-1.3c2.3-0.1,4.8-0.1,6.4-2
		c7.5-9,19.4-12.6,29.9-18.5c0.2,2.3-1.1,3.9-1.8,5.6c-1.3,3.4,0.1,6,4.1,6.5c11.6,1.4,23.1,3.2,34.7,3.5c8.9,0.2,18-2.3,25.9-5.8
		c7.1-3.2,9.9-10.4,14.6-15.8c2.3-2.7,3.8-5.4,2.7-8.9c9.6,0.1,25.4,9.8,27.6,17.7c1.7,6.1-2.6,10.7-7.6,14.3
		c-7.8,5.6-17,9-26.6,11.7c-21.2,6-43.1,9.5-65.3,11.4c-11.4,1-22.8,2.3-34.3,2c-9.5-0.2-18.9,1.3-28.4,0.8
		c-25.7-1.3-51.3-1.8-76.8-5.8c-15.6-2.4-30.9-5.4-45.8-10c-7.8-2.4-15.7-5.4-21.9-10.3c-9.2-7.3-11.1-12.9-3.7-20.2
		C27.9,297.6,35.4,293.3,44.6,291.8z"/>
	<path class="st2" d="M119.3,318.3c-13.6-1.7-26.1-3.2-38.6-4.8c-6.1-0.8-12.2-1.6-18.3-2.2c-2.6-0.2-3.8-1.2-4.7-3.2
		c-8.1-18.1-16.1-36.3-24.5-54.3c-1.5-3.2,0.6-3.5,2.8-4.1c13.9-4.1,27.7-8.5,41.7-12.2c10.1-2.6,17.5-8.8,26-13.7
		c8.5-4.9,16.7-10.2,25-15.4c2.3-1.5,3.4-1.4,4.6,1.1c8.3,16.3,16.8,32.5,25.2,48.8c1.2,2.4,2.3,4.9,3.8,7.2
		c1.8,2.9,0.6,3.8-2.6,3.3c-7.2-1.1-12.1,1.6-16.8,6.2c-7.5,7.3-15.6,14-23.8,20.8c-3.2,2.6-2.9,4.4,0.2,6.6c4,2.9,7.7,6.1,11.5,9.1
		c0.9,0.7,2.6,1.9,0.4,2.6C127,315.8,123.1,318.3,119.3,318.3z"/>
	<path class="st2" d="M174.9,100.9c9.3,8.2,18.4,16.2,27.6,24.2c1.9,1.7,1.5,3.5,1.1,5.3c-5.4,25.3-11,50.6-16.2,75.9
		c-2.5,12.2-8,23.5-11.9,35.3c-0.3,0.9-1,1.7-2.1,3.5c-1.6-4.1-2.9-7.3-4.1-10.6c-6.1-16.6-12.1-33.2-18.3-49.7
		c-0.8-2.2-0.9-4.3-0.2-6.5c7.6-25.3,15.3-50.7,22.9-76C174,101.9,174.3,101.6,174.9,100.9z"/>
	<path class="st2" d="M247.1,189.7c1.1,3-1.7,4.8-6.5,6.4c-16,5-31.8,10.4-47.6,15.8c-3.4,1.2-4.3,1-3.5-2.6
		c5.8-26.2,11.5-52.5,17-78.8c0.5-2.6,1.8-3.3,4.5-3.5c9.9-0.9,19.8-1.8,29.7-3.1c3.2-0.4,4.1,0.2,4.2,3c0.3,15.1,0.8,30.2,1,45.2
		C246,177.4,246.3,182.7,247.1,189.7z"/>
	<path class="st2" d="M245.4,119.3c-7.4-8.8-14-16.5-20.5-24.2c-3.8-4.5-7.5-9-11.3-13.4c-1.5-1.7-2-3.3-1.3-5.6
		c6.2-22.6,12.2-45.2,18.1-67.9c1-3.7,2-3.5,4.9-1.4c9.3,6.6,18.8,13.1,28.2,19.6c1.4,0.9,2.4,1.6,1.9,3.5
		C258.7,59.3,252.2,88.6,245.4,119.3z"/>
	<path class="st2" d="M236.8,258.7c-1.4,7.1-2.7,13-3.3,19c-0.5,5.4-1.5,10.8-1.8,16.1c-0.2,3.3-1.6,5.3-5,6.9
		c-7.4,3.4-14.6,7-21.7,11c-3.6,2-4.4,0.9-5-2.1c-2.4-12.3-5.1-24.5-7.3-36.7c-0.6-3.3-2.3-4-5.6-3.9c-5,0.2-10,0-15,0.1
		c-2.7,0-4.1-0.2-3-3.2c5.7-14.9,11.3-29.8,16.9-44.7c1.6-4.2,3.5-1.7,5.2-0.4c7.2,5.9,14.3,11.9,21.4,17.8
		c7.1,6,14.3,11.9,21.4,17.9C235.3,257.4,236.9,258.2,236.8,258.7z"/>
	<path class="st2" d="M237.8,255.4c-15.8-14.4-32-26.6-48.3-39.6c10.6-3.6,20.6-7,30.7-10.3c6.8-2.3,13.7-4.5,20.6-6.8
		c5.1-1.7,5.6-1.5,5,3.1c-1.4,10.2-3,20.3-4.5,30.4C240.1,239.6,239.1,247,237.8,255.4z"/>
	<path class="st2" d="M210.2,124.6c-2.5,0.5-4.4-0.1-6.3-1.8c-8.3-7.4-16.6-14.8-25.2-22c-2.5-2.1-2-3.1,0.7-4.4
		c9.1-4.6,18.2-9.2,27.2-14c2.4-1.3,3.6-1.1,5.2,0.9c9.6,11.6,19.3,23.1,29.1,34.6c1.8,2.2,2.3,3.6-1.5,3.9
		C229.7,122.7,219.9,123.7,210.2,124.6z"/>
	<path class="st2" d="M157.8,69.3c4.9,9.9,9.3,18.8,13.6,27.6c0.7,1.4,0.3,2.9-0.1,4.3c-7.7,25.3-15.5,50.6-22.9,75.9
		c-1.2,4.3-4.6,4.5-8,5.1c-3.1,0.5-1.9-1.8-1.7-2.9c1.6-9.8,3.4-19.7,5-29.5c3.6-20.8,7.2-41.6,10.8-62.4
		C155.6,81.8,156.6,76.2,157.8,69.3z"/>
	<path class="st2" d="M236.6,283.8c0.9-6.1,2.1-11.6,2.6-17.2c1-11.2,9-19.6,14.4-29.1c3.8-6.7,7.2-13.7,12.7-20.4
		c1.6,12.6,3,24.5,4.5,36.5c0.7,5.4,1.3,10.7,2,16.1c0.3,2.1-0.3,3.6-2.9,4.4C259,277.1,248.2,280.4,236.6,283.8z"/>
	<path class="st2" d="M147.9,184.7c8.1,22,15.8,42.9,23.4,63.7c0.5,1.4,0.5,2.9-0.1,4.3c-1.6,4.3-3.3,8.6-5.2,13.6
		c-3.5-6.6-6.7-12.7-9.8-18.7c-6.8-13.2-13.4-26.4-20.4-39.6c-1.2-2.2-1-3.6,0.4-5.6C140,197,143.5,191.4,147.9,184.7z"/>
	<path class="st2" d="M243.8,286.5c6.1,0.4,11.4,0.7,16.7,1c0.8,0.1,1.7,0.2,2.3,0.6c3.2,2.1,6.5,11.7,5.2,15
		c-1.7,4.3-3.6,8.5-5,12.9c-0.6,1.8-1.6,2.4-3.5,2.1c-9.7-1.1-19.4-2.3-29.2-3.3c-2.3-0.2-3-0.9-2.1-2.8c3.5-7.9,7.1-15.8,10.5-23.7
		C239.9,285.6,242.4,286.6,243.8,286.5z"/>
	<path class="st2" d="M248.8,132.2c6.4,14.5,12.9,29.5,19.4,44.5c1.2,2.7-0.5,5.5-0.6,8.2c-0.3,7.5-1.1,15-1.8,23.5
		c-5.5-4.8-10.2-9-14.9-13c-1.2-1-1.1-2.4-1.2-3.7c-0.3-12.3-0.7-24.6-1-36.8C248.7,147.2,248.8,139.5,248.8,132.2z"/>
	<path class="st2" d="M123.2,295.9c8.6-7.6,17.2-15.1,25.8-22.7c1.2-1.1,2.4-1.8,4.3-1.8c10.8,0.1,21.7,0,32.4,0
		c0.8,1.5-0.6,2-1.3,2.6c-18.3,16.1-18.3,16.1-45.8,20.4c-4.9,0.8-9.7,2-14.8,2.1C123.7,296.4,123.5,296.2,123.2,295.9z"/>
	<path class="st2" d="M157.1,324.1c-3.2,0.5-3.8-0.6-2.6-3.1c3.8-8.3,7.6-16.5,11.1-24.9c1-2.5,2.1-2,3.8-0.8
		c8.9,6.4,17.7,12.8,26.6,19.2c0.6,0.4,1.9,1.1,1.1,1.6c-2.9,2.2-3.9,6.1-8.7,6.6c-7.8,0.8-15.6,0.7-23.4,0.9
		C162.4,323.6,159.7,323.9,157.1,324.1z"/>
	<path class="st3" d="M226.3,13.4c-2.1,6.1-2.6,12.6-5.7,18.5c-1.3,0-2.1,0.8-3,1.5c-9.8,8.1-19.6,16.2-29.6,24.2
		c-7.9,6.3-15.2,13-23.7,18.7c-1.4-2.3-2.8-4.7-3.2-7.4c2.8-0.7,4.2-2.8,5.9-4.5c14.1-13.2,28.5-26.2,43.3-38.7
		C215.5,21.5,220.1,16.7,226.3,13.4z"/>
	<path class="st2" d="M276.8,276.9c2.7,0.8,4.4-0.7,6.1-2.1c2.1-1.7,3.9-2.1,5.5,0.7c3.3,5.8,6.8,11.4,10.3,17.1
		c1,1.5,1.4,2.9,0.1,4.5c-3.6,4.2-7.2,8.4-10.6,12.7c-1.4,1.7-2.1,1.5-3.7,0.1c-6.7-6-13-12.1-17.1-19.8c-1.2-2.3-1-3.5,1.2-5.1
		C271.6,282.5,276.4,281.4,276.8,276.9L276.8,276.9z"/>
	<path class="st2" d="M214.7,54.9c-0.7,7.6-3.9,14.7-5.4,22.1c-0.3,1.5-1.8,2.1-3,2.7c-9.4,4.9-18.9,9.8-28.2,14.8
		c-2.9,1.6-4.4,1-5.5-1.7c-1.2-2.7-2.6-5.4-3.9-8c2.4-0.1,3.8-1.6,5.5-2.8c6.7-4.5,13.2-9.3,20-13.7C201,64,207.1,58.5,214.7,54.9z"
		/>
	<path class="st2" d="M162.9,293.8c-2.4,8.3-6.8,15.9-10,23.8c-0.7,1.8-1.6,3.5-2.7,5.8c-9.9-7.7-19.4-15.3-29.7-23.4
		c14.4-2.5,28.1-5.2,41.9-6.8C162.6,293.5,162.8,293.7,162.9,293.8z"/>
	<path class="st2" d="M54.6,241.8c-6.2,1.8-12.4,3.7-19.7,5.9c2.8-5.7,6.6-9.4,9.8-13.4c7.6-9.6,15.4-19.1,23-28.7
		c1.3-1.6,2.7-2.9,5-3.3c4.4-0.7,8.4-2.8,13-2.9c-0.5,0.9-1,1.8-1.6,2.7c-9.3,11.9-18.7,23.8-28,35.7
		C55.2,238.9,53.1,239.9,54.6,241.8z"/>
	<path class="st3" d="M54.6,241.8c-1.5-1.9,0.6-2.9,1.4-4c9.3-11.9,18.6-23.8,28-35.7c0.6-0.8,1.1-1.8,1.6-2.7
		c5.7-2.2,11.7-3.7,17.9-4.6c0.7,1.7-0.8,2.8-1.8,3.8c-6.4,7.3-13.2,14.3-19.3,21.7c-4.6,5.6-11.1,10-14,16.8
		C64.1,239.4,59.3,240.4,54.6,241.8z"/>
	<path class="st2" d="M197.8,312.2c-9.9-7-18.7-13.4-27.6-19.7c-1.7-1.2-0.6-1.9,0.3-2.8c5.8-5,11.5-10.1,17.4-15.1
		c2-1.7,2.4-0.2,2.7,1.3c2,10.6,4.1,21.3,6.1,31.9C196.9,308.9,197.2,310,197.8,312.2z"/>
	<path class="st2" d="M249.3,197.9c5.3,4.7,9.8,8.7,14.4,12.6c1.4,1.2,0.8,2.3,0.1,3.6c-7.1,11.9-14.2,23.7-22,35.3
		C244.2,232.7,246.7,215.9,249.3,197.9z"/>
	<path class="st2" d="M68.4,237.2c2.9-6.7,9.3-11.2,14-16.8c6.2-7.4,12.9-14.5,19.3-21.7c1-1.1,2.4-2.1,1.8-3.8c0,0,0,0.1,0,0.1
		c1,0.3,1.6-0.1,2-0.8c3.6-0.9,7.2-1.9,10.9-2.8c-0.3,1.7-1.6,2.8-2.6,4.1c-5.3,6.3-10.8,12.6-15.8,19.1
		c-4.1,5.4-9.5,10.1-11.4,16.6c0,0,0-0.1,0-0.1c-0.8,0-1,0.5-1.1,1.1C80.2,234.7,74.4,236.2,68.4,237.2z"/>
	<path class="st2" d="M297.8,228.8c-7.5,13.8-14.3,26.3-21.2,38.9c-0.4-0.1-0.7-0.1-1.1-0.2c-0.9-7.1-1.9-14.1-2.8-21.2
		c-0.1-1-0.1-2-0.2-3.1c-1-7.5-1-7.5,7-9.7C285.1,232.1,290.6,230.7,297.8,228.8z"/>
	<path class="st2" d="M164.4,76.4c8.5-5.7,15.8-12.5,23.7-18.7c10-7.9,19.7-16.1,29.6-24.2c0.9-0.7,1.7-1.4,3-1.5
		c0.1,4-1.3,7.8-2.8,11.5c-12.8,9.4-25.8,18.7-38.4,28.3c-4.3,3.3-9.8,5.5-12.1,10.6C166.4,80.4,165.4,78.4,164.4,76.4z"/>
	<path class="st3" d="M86.6,231.1c2-6.5,7.3-11.3,11.4-16.6c5-6.5,10.5-12.7,15.8-19.1c1.1-1.3,2.4-2.4,2.6-4.1
		c4.7-1.3,9.4-2.6,14.1-4c1.1,1.8-1,2.6-1.8,3.5c-6.1,7.1-12.6,13.9-18.7,21c-2.3,2.7-5.6,5-6.5,8.6c0,0,0,0,0,0
		c-0.4,0.3-0.7,0.5-1.1,0.8c0,0,0,0,0,0c-0.3,0.3-0.7,0.6-1,0.8C96.7,225.4,91.9,228.6,86.6,231.1z"/>
	<path class="st2" d="M226.3,13.4c-6.2,3.2-10.8,8.1-15.9,12.4c-14.8,12.6-29.2,25.5-43.3,38.7c-1.8,1.7-3.2,3.8-5.9,4.5
		c-2.5-2-3-3.7-0.2-6.1c21.8-18.4,43.5-37,65.2-55.5c0.2-0.2,0.6-0.3,1.3-0.6C228.1,9.3,226.6,11.3,226.3,13.4z"/>
	<path class="st2" d="M103.6,220.5c0.9-3.6,4.1-5.9,6.5-8.6c6.1-7.1,12.5-14,18.7-21c0.8-1,3-1.7,1.8-3.5c4.4-1.1,8.8-2.2,13.5-3.4
		C137.4,202.6,120.8,211.8,103.6,220.5z"/>
	<path class="st3" d="M167.4,82.4c2.3-5,7.8-7.3,12.1-10.6c12.6-9.6,25.6-18.9,38.4-28.3c-0.5,3.9-1.5,7.8-3.2,11.4
		c-7.6,3.6-13.7,9-20.6,13.5c-6.8,4.4-13.3,9.2-20,13.7c-1.7,1.1-3.1,2.7-5.5,2.8C168.2,84.1,167.8,83.2,167.4,82.4z"/>
	<path class="st2" d="M265.6,317.5c1.9-4.9,3.5-8.9,5.1-12.9c0.7-1.9,1.7-2.3,3.4-0.6c2.4,2.4,4.8,4.8,7.3,7.1
		c1.6,1.5,1.4,2.6-0.9,3.1C275.9,315.3,271.3,316.3,265.6,317.5z"/>
	<path class="st2" d="M276.8,276.8c-3.5,0.6-5.5,3.2-7.9,5c-3.6,2.7-7,4.5-12,3.2c-2.7-0.7-5.8-0.4-8.7-0.5
		c-0.1-0.4-0.2-0.9-0.3-1.3c10-3,20-6,30-9C278.6,275.6,276.7,275.9,276.8,276.8L276.8,276.8z"/>
	<path class="st3" d="M105.5,194.1c-0.4,0.8-1,1.2-2,0.8C103.7,193.8,104.7,194.2,105.5,194.1z"/>
	<path class="st2" d="M123.9,296.6c-0.4,0.3-0.8,0.6-1.2,0.1c-0.1-0.1,0.3-0.4,0.5-0.7C123.5,296.2,123.7,296.4,123.9,296.6z"/>
	<path class="st2" d="M162.4,293.4c0.3-0.1,0.5-0.2,0.8-0.2c-0.1,0.2-0.2,0.5-0.3,0.7C162.8,293.7,162.6,293.5,162.4,293.4z"/>
	<path class="st2" d="M102.5,221.3c0.4-0.3,0.7-0.5,1.1-0.8C103.5,221.1,103.1,221.3,102.5,221.3z"/>
	<path class="st2" d="M101.4,222.1c0.3-0.3,0.7-0.6,1-0.8C102.1,221.6,101.8,221.9,101.4,222.1z"/>
	<path class="st3" d="M85.5,232.1c0.1-0.6,0.3-1,1.1-1.1C86.2,231.4,85.9,231.8,85.5,232.1z"/>
</g>
</svg>
