<?xml version="1.0" encoding="utf-8"?>
<!-- Generator: Adobe Illustrator 22.1.0, SVG Export Plug-In . SVG Version: 6.00 Build 0)  -->
<svg version="1.1" id="Layer_1" xmlns="http://www.w3.org/2000/svg" xmlns:xlink="http://www.w3.org/1999/xlink" x="0px" y="0px"
	 viewBox="0 0 350 350" style="enable-background:new 0 0 350 350;" xml:space="preserve">
<style type="text/css">
	.st0{fill:#663F7C;}
	.st1{fill:#D0D9DD;}
	.st2{fill:#AE8CBF;}
	.st3{fill:#FEFEFE;}
	.st4{fill:#168250;}
	.st5{fill:#80C898;}
	.st6{fill:#59BE89;}
	.st7{fill:#97D1AE;}
	.st8{fill:#135987;}
	.st9{fill:#6BA1D6;}
	.st10{fill:#4F78B8;}
	.st11{fill:#A7C4E2;}
	.st12{fill:#A8CF65;}
	.st13{fill:#90C756;}
	.st14{fill:#C75D19;}
	.st15{fill:#F9A83F;}
	.st16{fill:#B0233E;}
	.st17{fill:#F06D85;}
	.st18{fill:#EF4A6B;}
</style>
<g>
	<path class="st16" d="M122.3,293.7c-4-7.6-7.7-15.5-12.2-22.9c-4.1-6.7-4-14-4.4-21.3c-4-67.7-7.8-135.4-12-203
		c-0.5-8.1,1.7-13.4,8.7-18c12.8-8.3,25.1-17.5,37.5-26.5c2.4-1.7,4.8-2.4,7.8-2C174,3.4,200.5,6.6,227,9.8c3.2,0.4,6,1.3,8.7,3
		c7.2,4.4,14.5,8.8,21.9,13c4.1,2.4,5.8,5.7,5.7,10.3c-2.2,67.9-4.4,135.8-6.3,203.7c-0.2,6-3.7,10-6.7,14.3
		c-8.7,12.7-18.1,25.1-27.1,37.6c-0.3,0.4-0.3,0.9-0.4,1.4c-9.8,11.9-17.5,25.3-27.6,37c-2.6,3-4.7,3.8-8.3,2.8
		c-15.3-4.2-30.7-8.2-46-12.3c-2.3-0.6-4.1-1.5-5.4-3.7C131.2,309.1,126.7,301.4,122.3,293.7z M174.6,8.4c-1.1-1.1-2.5-0.8-3.8-0.7
		c-3.7-0.4-7.3-0.8-11-1.2c-8.4-1.8-16.1-2.6-23.7,3.8c-9.8,8.2-20.8,15-31.2,22.4c-1.6,1.1-3.7,2-4.6,4.3c1.5,0.5,2.7,0.8,3.9,1.2
		c3.9,1,7.9,2.1,11.8,3.1c4.9,2.8,10.7,3.5,15.9,5.5c5,1,9.5,3.7,14.7,4c0.4,0.3,0.7,0.8,1.1,0.9c15.2,4.7,30.4,9.4,45.5,14.2
		c2.2,0.7,3.7-0.1,5.5-1.1c14.3-8.2,28.6-16.4,42.8-24.6c5-2.9,9.9-5.8,15.8-9.2c-14-6.5-24.4-17.9-40.3-17.5
		c-9.3-0.9-18.5-2.8-27.9-3c-4.7-1.6-9.6-1.4-14.4-2L174.6,8.4z M195.3,320.8c1.4,0,1.9-1,2.5-2c13.1-18.2,26.4-36.4,39.4-54.7
		c2.9-4.1,6.2-7.9,8.8-13.9c-14,8.7-26.7,16.7-39.5,24.7c-1.6,1-2.1,2.6-2.5,4.5C201,293.2,197,306.8,195.3,320.8
		c-0.4,0.4-1.2,0.6-0.3,1.3C195.1,321.7,195.2,321.2,195.3,320.8z M201.4,271.8c-0.3-10.2-0.5-18.9-0.9-27.6
		c-0.7-18.3-1.2-36.6-2-54.9c-0.9-19.9-1.4-39.8-2.1-59.7c-0.7-18.9-1.4-37.9-1.9-56.8c-0.1-2.9-1.2-4.2-4-5
		c-8.2-2.4-16.3-5-24.4-7.5c-20.8-6.6-41.6-13.2-62.4-19.7c-2.4-0.7-6.3-2.8-5.3,2.8c1.5,7.9,0.9,15.9,1.5,23.8
		c1.8,22.4,2.8,44.8,4.1,67.2c1.3,22.2,2.7,44.5,3.9,66.7c1.1,18.9,2.1,37.8,3,56.7c0.1,3,1.1,4.3,4.2,4.6c4.6,0.5,9.1,1.2,13.6,1.9
		c3.3,0.5,5.9-0.2,8.4-2.6c7.1-6.6,14.6-12.9,21.8-19.4c2.3-2.1,4-2.1,6.3-0.1c5.4,4.6,11,9.1,16.5,13.6
		C188,260.8,194.1,265.8,201.4,271.8z M257.7,49.3c0-3.3-0.2-6.7,0.1-10c0.4-4.5-1.1-5-4.7-2.7c-0.8,0.5-1.7,0.9-2.6,1.4
		c-15,8.6-29.9,17.4-44.9,25.8c-5.4,3.1-8.2,6-7.8,13.2c1.2,18.9,1.5,37.8,2.2,56.8c0.7,18.8,1.3,37.5,1.9,56.3
		c0.4,14.3,1.1,28.6,1.3,43c0.2,11.8,1.4,23.5,1,35.3c-0.1,3.6,1.2,3.8,3.9,2.1c13.7-8.5,27.3-17,41-25.5c1.9-1.2,2.6-2.6,2.6-4.8
		c0-6,0.5-12.1,0.7-18.1c0.5-21.6,1.3-43.3,2-64.9c0.7-21.5,1.2-42.9,2-64.4C257,78.3,256.9,63.8,257.7,49.3z M135.8,269.9
		c1.3,12.1,3.5,24.3,3.5,36.4c0,8.3,4.4,10.2,11,11.7c11.9,2.9,23.8,6,35.6,9.4c3.4,1,4.5,0.2,5.1-3c3.2-15.2,6.7-30.4,10-45.6
		c0.4-1.8,0.4-3.4-1.3-4.8c-11.6-9.6-23.1-19.3-34.7-28.9c-1.4-1.1-2.8-2.3-4.6-0.4c-6.8,7.1-14.8,13.1-22.2,19.6
		C136.6,265.9,135.5,267.6,135.8,269.9z M134.8,305.8c0.9-12.3-1.2-24.3-2-36.4c-0.1-1.2-1-2-2.3-2.2c-4.7-0.7-9.4-1.4-14-2
		c-3-0.4-3.4,0.8-2.1,3.2c3.7,6.7,7.3,13.5,10.9,20.2C128.5,294.5,131.7,300.1,134.8,305.8z"/>
	<path class="st1" d="M122.3,293.7c4.4,7.7,8.9,15.4,13.2,23.2c1.2,2.2,3.1,3.1,5.4,3.7c15.3,4.1,30.7,8.1,46,12.3
		c3.6,1,5.7,0.2,8.3-2.8c10.1-11.8,17.8-25.1,27.6-37c10.7,3.4,21.9,5.7,31.4,12.1c3.5,2.4,6.6,5.2,8.5,9c2.6,5.1,2,9.2-1.9,13.6
		c-6.6,7.4-15.6,11.1-24.8,14c-16.4,5.2-33.4,7.2-50.7,7.9c-26,1.1-51.3-1.1-75.9-9.7c-6.9-2.4-13.6-5.4-18.8-10.9
		c-6.2-6.5-6.4-12.7-0.1-19.3c7.2-7.6,17-10.6,26.6-13.9C118.9,295.3,120.9,295.4,122.3,293.7z"/>
	<path class="st17" d="M201.4,271.8c-7.3-6-13.4-11-19.5-16c-5.5-4.5-11.1-9-16.5-13.6c-2.3-1.9-3.9-2-6.3,0.1
		c-7.1,6.6-14.6,12.8-21.8,19.4c-2.6,2.4-5.2,3.1-8.4,2.6c-4.5-0.7-9.1-1.4-13.6-1.9c-3.1-0.3-4-1.7-4.2-4.6
		c-0.9-18.9-2-37.8-3-56.7c-1.3-22.2-2.6-44.5-3.9-66.7c-1.3-22.4-2.4-44.8-4.1-67.2c-0.6-7.9-0.1-15.9-1.5-23.8
		c-1.1-5.6,2.9-3.5,5.3-2.8c20.8,6.5,41.6,13.1,62.4,19.7c8.1,2.6,16.2,5.2,24.4,7.5c2.8,0.8,3.9,2,4,5c0.5,18.9,1.3,37.9,1.9,56.8
		c0.7,19.9,1.2,39.8,2.1,59.7c0.8,18.3,1.3,36.6,2,54.9C200.9,252.9,201.2,261.6,201.4,271.8z"/>
	<path class="st18" d="M257.7,49.3c-0.8,14.5-0.7,29-1.3,43.5c-0.8,21.5-1.2,43-2,64.4c-0.7,21.6-1.5,43.3-2,64.9
		c-0.1,6-0.7,12.1-0.7,18.1c0,2.1-0.7,3.6-2.6,4.8c-13.7,8.5-27.4,17-41,25.5c-2.8,1.7-4,1.5-3.9-2.1c0.4-11.8-0.8-23.5-1-35.3
		c-0.2-14.3-0.9-28.7-1.3-43c-0.6-18.8-1.3-37.5-1.9-56.3c-0.7-18.9-1-37.9-2.2-56.8c-0.4-7.3,2.3-10.2,7.8-13.2
		c15.1-8.5,30-17.2,44.9-25.8c0.8-0.5,1.8-0.9,2.6-1.4c3.5-2.3,5.1-1.8,4.7,2.7C257.4,42.6,257.7,46,257.7,49.3z"/>
	<path class="st18" d="M135.8,269.9c-0.3-2.3,0.7-3.9,2.5-5.4c7.4-6.5,15.4-12.5,22.2-19.6c1.8-1.9,3.2-0.8,4.6,0.4
		c11.6,9.6,23.1,19.3,34.7,28.9c1.7,1.4,1.6,3,1.3,4.8c-3.3,15.2-6.7,30.4-10,45.6c-0.7,3.1-1.8,3.9-5.1,3
		c-11.8-3.3-23.7-6.5-35.6-9.4c-6.5-1.6-10.9-3.4-11-11.7C139.3,294.1,137.1,282,135.8,269.9z"/>
	<path class="st17" d="M217.2,13.5c16-0.4,26.3,11,40.3,17.5c-5.9,3.4-10.8,6.3-15.8,9.2c-14.3,8.2-28.6,16.4-42.8,24.6
		c-1.7,1-3.3,1.8-5.5,1.1c-15.1-4.8-30.3-9.4-45.5-14.2c-0.4-0.1-0.7-0.6-1.1-0.9c1.3-2.3,3.8-2.9,5.9-4
		c17.3-8.7,34.8-17.2,52.1-26.1C209,18.6,214.3,17.9,217.2,13.5z"/>
	<path class="st3" d="M217.2,13.5c-2.9,4.4-8.1,5.1-12.4,7.3c-17.2,8.9-34.7,17.4-52.1,26.1c-2.1,1.1-4.6,1.7-5.9,4
		c-5.2-0.3-9.7-3-14.7-4c-0.3-1.5,1-1.8,1.9-2.4c12.4-7.5,24.9-14.8,37.2-22.6c6-3.8,12.9-6.4,18.1-11.3
		C198.7,10.7,207.9,12.5,217.2,13.5z"/>
	<path class="st18" d="M195.3,320.8c1.7-14,5.7-27.6,8.7-41.4c0.4-1.8,0.9-3.4,2.5-4.5c12.7-8,25.5-16,39.5-24.7
		c-2.6,5.9-5.9,9.8-8.8,13.9c-13,18.3-26.3,36.5-39.4,54.7C197.2,319.8,196.7,320.8,195.3,320.8L195.3,320.8z"/>
	<path class="st17" d="M189.3,10.5c-5.2,5-12.1,7.6-18.1,11.3c-12.3,7.7-24.8,15.1-37.2,22.6c-1,0.6-2.2,0.9-1.9,2.4
		c-5.3-2-11-2.6-15.9-5.5c0.1-1.6,1.5-1.9,2.6-2.5c5.9-3,11.9-6.1,17.8-9.1c13-6.7,26-13.4,38.3-21.2
		C179.7,9.1,184.6,8.9,189.3,10.5z"/>
	<path class="st3" d="M174.9,8.5c-12.3,7.8-25.3,14.5-38.3,21.2c-5.9,3.1-11.9,6.1-17.8,9.1c-1.1,0.6-2.5,0.9-2.6,2.5
		c-3.9-1-7.9-2.1-11.8-3.1c-0.3-2.6,2.2-3,3.7-3.9c13-8.1,26.1-15.9,39.1-24c4-2.5,7.9-4.5,12.8-3.7c3.7,0.4,7.3,0.8,11,1.2
		c1.2,0.8,2.5,0.9,3.8,0.7L174.9,8.5z"/>
	<path class="st18" d="M134.8,305.8c-3.2-5.7-6.3-11.4-9.4-17.1c-3.7-6.7-7.2-13.5-10.9-20.2c-1.3-2.4-0.9-3.6,2.1-3.2
		c4.7,0.6,9.4,1.3,14,2c1.3,0.2,2.2,0.9,2.3,2.2C133.6,281.6,135.8,293.5,134.8,305.8z"/>
	<path class="st17" d="M159.8,6.5c-4.9-0.8-8.8,1.3-12.8,3.7c-13,8.1-26.1,16-39.1,24c-1.5,0.9-4,1.3-3.7,3.9
		c-1.2-0.4-2.4-0.8-3.9-1.2c0.9-2.3,3-3.1,4.6-4.3c10.4-7.5,21.4-14.3,31.2-22.4C143.8,3.9,151.4,4.7,159.8,6.5z"/>
	<path class="st17" d="M174.6,8.4c-1.4,0.3-2.7,0.2-3.8-0.7C172.2,7.5,173.5,7.3,174.6,8.4z"/>
	<path class="st18" d="M195.3,320.8c-0.1,0.4-0.2,0.9-0.3,1.3C194,321.4,194.9,321.2,195.3,320.8
		C195.3,320.8,195.3,320.8,195.3,320.8z"/>
</g>
</svg>
