<?xml version="1.0" encoding="utf-8"?>
<!-- Generator: Adobe Illustrator 22.1.0, SVG Export Plug-In . SVG Version: 6.00 Build 0)  -->
<svg version="1.1" id="Layer_1" xmlns="http://www.w3.org/2000/svg" xmlns:xlink="http://www.w3.org/1999/xlink" x="0px" y="0px"
	 viewBox="0 0 417.7 368.4" style="enable-background:new 0 0 417.7 368.4;" xml:space="preserve">
<style type="text/css">
	.st0{fill:#663F7C;}
	.st1{fill:#D0D9DD;}
	.st2{fill:#AE8CBF;}
	.st3{fill:#FEFEFE;}
	.st4{fill:#168250;}
	.st5{fill:#80C898;}
	.st6{fill:#59BE89;}
	.st7{fill:#97D1AE;}
	.st8{fill:#135987;}
	.st9{fill:#6BA1D6;}
	.st10{fill:#4F78B8;}
	.st11{fill:#A7C4E2;}
	.st12{fill:#A8CF65;}
	.st13{fill:#90C756;}
	.st14{fill:#C75D19;}
	.st15{fill:#F9A83F;}
	.st16{fill:#B0233E;}
	.st17{fill:#F06D85;}
	.st18{fill:#EF4A6B;}
</style>
<g>
	<path class="st4" d="M22.6,298.5c5.1-8,10.1-16.1,15.2-24c1.5-2.3,0.8-4.5,0.3-6.7c-5.9-26.5-11.7-53-17.8-79.4
		c-0.9-3.8-0.5-7.3,1-10.7c11.8-27.3,23.7-54.7,35.5-82c2.4-5.5,4.3-6.1,9.7-3.3c5.8,3,11.3,6.6,17.2,9c7.3,3,11.6,8.6,15.3,15.2
		c11.4,20.5,23,40.9,34.5,61.4c0.8,1.3,1.1,3.2,3.6,3.8c-1-11.5-2-22.7-3-33.9c-1.8-20.7-3.6-41.5-5.5-62.2
		c-0.2-2.2,0.2-4.2,1.1-6.3c7.4-18.6,14.7-37.1,21.9-55.7c1.4-3.5,3.9-6.5,4.7-10.3c0.4-2.2,2.9-2.6,4.8-3.2
		c8.8-2.9,17.9-5.3,26.5-8.9c6.7-2.8,10.9-0.5,15.2,4.2c16.6,18,33.2,36,49.9,53.9c7.5,8.1,14.8,16.3,22.5,24.1
		c3,3.1,4.4,6.5,4.6,10.6c0.9,19.3,1.9,38.6,2.9,57.9c0.3,5.6,0.2,5.6,5,2.8c23.1-13.9,46.3-27.6,69.3-41.7
		c5.7-3.5,12.7-4.3,17.5-9.7c2-2.2,5.1-1.1,6.8,1.5c6.2,9.2,12.4,18.6,18.6,27.8c0.9,1.3,1.2,2.8,0.8,4.3
		c-3.4,13.5,1.6,26.3,3.4,39.4c1.3,8.9,3,17.7,4.6,26.6c0.7,4.1,0.2,7.9-1.4,11.7c-6.7,16-13.1,32-19.8,48c-1,2.4-0.9,4.3,0.5,6.5
		c3.2,5.2,6.3,10.6,9.3,16c2.9,5.3,5.4,10.7,8.1,16.1c-0.8,1.6-1.3,3.3-2.8,4.6c-5.9,4.9-11.2,10.7-17.6,14.7
		c-11.2,7-22.7,13.6-36,16.5c-16,3.5-32.2,2.2-48.3,2.7c-5.1,0.2-9.6-0.9-13.3-4.4c-2.5-2.4-4.3-1.6-6.2,0.5
		c-2.7,3.1-6.1,3.8-10.2,3.9c-27.7,0.4-55.3-1.1-82.9-2.8c-14.6-0.9-28.5,0.2-42,5.6c-5.2,2.1-10.1,2.1-15.4,0
		c-6.6-2.7-13.5-4.6-20.3-6.9c-1.9-0.6-4.4-1.3-4.6-3.4c-0.6-4.8-4-4.3-7.2-4.5c-16.1-0.9-32.3-1.9-48.4-2.7
		c-3.9-0.2-6.9-1.5-9.6-4.3c-4.7-4.9-9.6-9.7-14.6-14.3C23.4,304.1,22,301.8,22.6,298.5z M392.6,288.5c0.1,0.1,0.2,0.1,0.4,0.2
		C392.8,288.6,392.7,288.6,392.6,288.5c-0.4-0.6-0.7-1.3-1-2c-2.4-5.5-5.5-10.6-9.3-15.6c-0.4,2.1-2.8,4.1-1.1,6
		c3.1,3.5,5.8,7.6,10.4,9.6C391.7,287.3,391.8,288.1,392.6,288.5z M181.4,9.2l-0.1,0.1c-6.4,1-12.2,3.9-18.4,5.5
		c-1.6,0.4-2.5,1.4-2.4,3.2c0.3,4.3-0.5,8.5,0.5,12.8c-1,5.2-0.4,10.5-0.4,15.7c0.1,6.7-0.4,13.5,0.3,20.2
		c-0.8,3.6-0.4,7.2-0.3,10.8c-0.2,7.8,0.5,15.7-1.2,23.4c-1.4,6.1,0.6,9.6,6.3,11.7c3.2,1.2,6.1,3.3,9.2,5
		c11.6,6.5,23.3,13,34.9,19.4c1.1,0.6,2.3,2,3.5,0.9c0.6-0.5,0.3-2.2,0.2-3.3c0-0.8-0.3-1.6-0.4-2.5c-2.9-19.2-5.6-38.5-8.6-57.7
		c-1.9-12-3-24.1-5.8-35.9c0.3-3.8-0.5-7.4-1.2-11.1c-0.7-4.7-1.4-9.4-2.1-14.1c-2.6-2.2,1.8-7.7-3-8.1c-3.1-0.3-6.5,2.1-9.7,3.2
		C182.2,8.8,181.8,9,181.4,9.2z M364.8,253.2c-1.9-1.6-3.8-3.3-5.8-4.9c-2.6-2.5-5.1-5.2-8.4-6.9c-4.3-4.9-4.4-4.9-9-0.7
		c-9.3,8.5-18.2,17.4-26,27.4c-5,6.3-10.1,12.5-15.5,19.1c4.3,1,7.9,1.5,11.5,1.2c0.3,0.1,0.5,0.2,0.8,0.2c8,1.7,16.1,0.6,24.2,1.7
		c0.6,0,1.2,0,1.8,0c4.1,0.9,7.8-0.2,11.5-2c7.7-3.8,15.5-7.4,23.3-11.1c7.4-3.4,8.4-9.9,2.1-15c-2.3-1.9-4.5-3.9-6.7-5.8
		C367.4,255.3,366.1,254.3,364.8,253.2z M90.4,117.6c0.3-1.1,0.4-2.2-0.5-3.2c-0.1-0.7-0.2-1.3-0.2-2c-0.8-4-4.1-4.4-7.2-5.1
		c-3.2-3.6-7.7-4.7-11.8-6.8c-0.7-0.5-1.3-1-2-1.4c-6.1-3.6-6.1-3.6-9,2.9c-10,23.1-20,46.1-30,69.2c-4.7,10.8-4.8,10.7,6.9,10.4
		c3.3,0.3,6.7,0.5,10-0.2c3.7,0.5,7.4,0.4,11.2,0c2.9,0.5,5.9,0.6,8.8-0.1c8.5,0.1,16.9,0.1,25.4,0.4c3.6,0.1,4.2-1.4,3.8-4.4
		c-0.8-7.6-1.4-15.2-2.1-22.8c-0.9-10-1.9-20.1-2.8-30.1C90.7,122.1,90.5,119.8,90.4,117.6z M389.6,126.5c-0.1-1.1-0.9-1.5-1.8-2
		c-2.3-4.1-4.2-8.5-8.1-11.5c-2-6.1-2.3-6.2-6.7-2.3c-22.1,19.7-44.2,39.3-66.2,59.1c-2.8,2.5-8.1,4.5-7.4,7.8c0.5,2.5,5.9,4,9.2,6
		c2,1.3,4,2.6,5.9,3.8c2.7,1.4,5.4,2.8,8,4.2c1.3,0.7,2.6,1.4,4,2c3.1,1.9,6.3,3.6,9.3,5.7c2.6,1.8,4.3,1.2,6.4-0.9
		c16.3-16.1,32.8-32,49.2-48c4.6-4.5,5.1-13.5,1.3-19C391.7,129.7,390.7,128.1,389.6,126.5z M173.4,276.6c2.1,2,4.1,4,6.2,5.9
		c1.7,1.5,3.6,2.9,5.1,4.6c3.2,3.4,6.8,4.3,11.1,2.5c2.3-0.4,4.6-0.8,6.9-1.2c1.5-0.1,3-0.3,4.4-0.4c14-1.2,27.7-6,41.9-2.6
		c1.9,0.4,3.5-0.3,4.9-1.7c8.6-8.5,17.3-17.1,26-25.5c1.9-1.8,1.8-3,0.2-4.9c-8.3-10.2-16.4-20.5-24.5-30.8
		c-2.3-5.6-6.2-3.6-10.1-2.1c-4.4,1-8.7,1.9-13.1,2.9c-7.3,1.8-14.5,3.6-21.8,5.4c-7.8,0.9-14.4,3.5-20,9.6
		c-6,6.6-12.9,12.5-19.6,18.4c-10.3,9.2-10.4,9.1,0,18C171.8,275.4,172.6,276,173.4,276.6z M357.6,119.5c-2.2,0.3-4,1.6-5.9,2.7
		c-22.2,13.3-44.5,26.6-66.7,39.8c-2.6,1.5-3.6,3.4-3.5,6.4c0.1,3,2,3.5,4.1,4.1c2.2,0.7,4.5,1.3,6.6,2.3c2.4,1,4,0.4,5.8-1.3
		c2.4-2.3,5-4.4,7.5-6.6c13.1-11.5,26.3-22.9,39.3-34.6C349.2,128.3,354,124.5,357.6,119.5c0.1-0.1,0.3-0.1,0.4-0.2
		c0.1,0,0.1-0.2,0.1-0.3C357.9,119.2,357.8,119.4,357.6,119.5z M167.8,256.1c8.8-8.2,16.8-15.6,24.7-23.2c2.8-2.7,5.9-4.5,9.8-5.4
		c15.1-3.4,30.2-6.8,45.1-10.8c4.7-1.3,7.4-0.2,10.1,3.4c3.6,4.9,7.5,9.5,11.3,14.3c0.3-0.2,0.6-0.3,1-0.5
		c-4.4-40.2-8.8-80.5-13.2-121.5c-2.1,1.5-3.7,2.6-5.2,3.8c-10.6,8.4-21.2,16.7-31.6,25.2c-2.4,2-4.3,2.1-7.1,0.5
		c-10.2-5.9-20.6-11.6-30.9-17.3c-7.2-4-14.4-8-22.6-12.5C162,160.4,164.9,207.5,167.8,256.1z M60.6,184.5
		C60.6,184.5,60.6,184.5,60.6,184.5c-10.5,0-21,0.2-31.5-0.1c-4-0.1-4.2,1.2-3.5,4.5c4.9,21.5,8.8,43.4,14.9,64.6
		c4.1,14.4,2.8,26.4-7.1,37.5c-0.1,0.1-0.2,0.3-0.3,0.4c-5.8,9.2-5.8,9.2,2.1,16.8c0.7,0.7,1.2,1.7,2,2.2c4.2,2.7,6.3,8.6,12,9.1
		c14.8,1.1,29.5,1.9,44.3,2.9c3.9,0.3,5.1-0.8,5-4.8c-0.7-25.1-1.3-50.2-1.7-75.4c-0.3-17.3-0.4-34.6-0.3-52c0-4.5-1.3-6.1-6-5.9
		C80.6,184.8,70.6,184.5,60.6,184.5z M242.6,334.4c2,0.7,3.8-0.2,5.4-2c3.5-4,6.9-8.1,10.5-12.1c1.3-1.4,1.5-2.8,1-4.6
		c-2.5-8.1-5-16.2-7.5-24.3c-0.5-1.8-1.3-2.8-3.3-3.1c-6.3-1-12.6-1.5-18.9-0.6c-12.3,1.8-24.7,3.6-37,5.6c-3.2,0.5-5.7-0.3-8.2-2.5
		c-7.2-6.7-14.7-13.1-21.8-19.8c-2.5-2.4-4.2-2.4-6.3,0.3c-2.7,3.6-5.6,7-8.8,10.2c-2.1,2.2-2.1,3.6,0,5.8c4.7,4.7,9,9.9,13.6,14.6
		c2.1,2.1,3.2,4.3,3.5,7.4c0.5,5.9,1.8,11.8,2.5,17.8c0.3,2.6,1.1,3.6,3.9,3.9c7.4,0.9,14.8,0.9,22.2,1.1
		C209.6,332.3,225.9,333.5,242.6,334.4z M99.5,267.9c0.4,0,0.9,0,1.3,0c-0.9,16.8,1,33.6,0.7,50.4c-0.1,3.1,0.9,4.1,4.1,4.7
		c3.6,0.8,5.1-0.4,6.4-3.3c2.5-5.5,5.2-10.8,7.7-16.2c1.1-2.3,2.6-4.2,4.6-5.7c11.4-8.4,22-17.7,30.8-28.8c1.8-2.3,2.1-4.3,1-6.8
		c-3.1-7.7-6.1-15.4-9-23.2c-0.7-1.9-1.8-3.5-3.2-5c-13.3-14-26.5-28-39.8-42c-1-1.1-1.8-3.5-3.6-2.8c-1.8,0.7-0.8,3-0.8,4.5
		C99.4,218.3,99.5,243.1,99.5,267.9z M198.3,8.3c-0.4,0.9-0.6,1.2-0.6,1.5c6.3,42.1,12.6,84.2,18.8,126.3c0.6,3.7,2.2,2.5,3.9,1.1
		c17.2-14.4,36.3-26.6,50.7-44.3c2.1-2.6,2.5-3.8,0.1-6.4c-20.6-22-41-44.2-61.5-66.3C206,16.3,202.2,12.4,198.3,8.3z M323.2,253.4
		c4.7-16,9.1-31.4,13.7-46.6c0.8-2.7,0-3.8-2.2-5.1c-11.9-6.7-23.7-13.5-35.5-20.4c-2.6-1.5-3.5-0.4-4.4,1.7
		c-3.5,7.7-7,15.5-10.5,23.2c-0.7,1.6-0.8,3.2-0.7,4.9c0.6,13.1,1.3,26.3,1.9,39.4c0.1,2.8,0.9,3.5,3.7,2.4
		c4.8-1.9,9.9-3.1,14.5-5.3c6.1-3,11.2-3,15.6,2.9C320,251.5,321.5,252.2,323.2,253.4z M327.5,248.8c0.6,0.4,1.1,0.9,1.7,1.3
		c2.4-2.9,4.7-6,7.3-8.7c8.7-8.9,8.7-8.8,18.2-1c1.3,1.1,2.4,2.3,3.7,3.4c6.9,6,13.9,11.9,20.8,17.9c1.5,1.3,2.5,2.1,3.5-0.5
		c6.6-16.3,13.3-32.6,20.1-48.9c0.8-1.9,0.5-2.7-1.6-2.9c-19-1.6-38-3.2-57-4.9c-2.7-0.2-3.8,1-4.5,3.4c-1.8,6.5-3.9,13-5.8,19.6
		C331.6,234.6,329.6,241.7,327.5,248.8z M163.5,239.4c0-3,0.2-6,0-9c-1.2-20.1-2.6-40.1-3.8-60.2c-1.1-18.6-2.1-37.1-3.2-55.7
		c-0.1-1.6-0.1-3.7-1.1-4.8c-6.8-7.2-13.8-14.2-20.7-21.3c0.3,13.4,1.6,26.1,2.8,38.8c1.8,20,4,40,5.2,60c0.6,10.9,4.4,20.2,10,29.3
		C156.9,223.8,161.7,230.8,163.5,239.4z M94.6,119.2c-0.3,0.1-0.5,0.2-0.8,0.3c0,2.5-0.2,5,0,7.5c1.6,17,3.3,34,4.8,50.9
		c0.3,3,1.2,5.3,3.3,7.5c13.4,13.9,26.6,27.9,39.9,41.8c1.3,1.3,2.3,2.9,3.7,4c3.4,2.7,7,0.9,9.8-0.7c2.6-1.6-0.5-3.7-1.4-5.3
		c-14.1-25.2-28.2-50.4-42.3-75.6C105.9,139.5,100.3,129.3,94.6,119.2z M282.4,250.4c-2.6-52-5.2-104-7.8-156.5
		c-3.1,1.7-3.9,4.4-5.9,5.9c-7.5,5.7-10.1,12.5-8.4,22.4c2.8,16.3,3.7,33,5.5,49.5c1.9,17.3,3.9,34.6,5.8,51.9
		C272.7,233.5,272.4,244,282.4,250.4z M313.5,334.5c4.7,0,9.3-0.2,14,0.1c2.8,0.1,4.2-0.9,4.9-3.6c3.1-11.4,6.2-22.7,9.6-34.1
		c0.8-2.8,0-3.5-2.7-3.6c-11.6-0.5-23.3-0.9-34.8-2c-5.3-0.5-6.7,1.6-6.8,6.1c-0.4,11.3-0.8,22.6-1.5,33.9c-0.2,3.1,1.1,3.2,3.3,3.2
		C304.2,334.5,308.9,334.5,313.5,334.5z M342.8,201.4c12.2,1.1,22.9,2.1,33.7,3.1c7.4,0.7,14.9,1.4,22.3,1.9
		c1.9,0.1,5.4,1.5,4.7-2.8c-2.7-16-5.6-32-8.3-48c-0.6-3.6-2-3.1-4.1-1c-5.3,5.3-10.6,10.6-16,15.8
		C364.7,180.4,354.3,190.4,342.8,201.4z M334.6,333.4c0.2,0,0.7,0.2,1.2,0.2c16-0.4,29.6-8,43.2-15.2c1.6-0.9,1.5-2.4,1.4-3.9
		c-1-10.7-2-21.5-2.7-32.2c-0.2-3.6-1.2-3.8-4.1-2.3c-7.7,3.9-15.5,7.6-23.4,11.2c-3,1.3-4.7,3.2-5.5,6.4
		C341.4,309.5,338,321.4,334.6,333.4z M164.4,328c-0.7-5.3-1.4-11.4-2.2-17.4c-0.3-2.1-1.1-3.2-3.7-2.4c-11,3.8-21.5,1.9-31.5-3.7
		c-0.1-0.1-0.3-0.1-0.5-0.2c-2.4-1.4-3.9-0.8-5,1.8c-3.2,7.1-6.6,14.1-10,21.2c-1,2.1-1,3.3,1.5,4c7.4,2.3,14.8,4.9,22.2,7.3
		c1.7,0.5,3.4,1,5.3,0.3c7.1-2.3,14.3-4.4,21.4-6.6C163.7,331.7,165,330.9,164.4,328z M282.6,259.8c-7.3,7-13.2,13.3-19.8,18.8
		c-6.9,5.7-10.5,11.6-5.4,20.2c0.7,1.2,1,2.8,1.2,4.3c1.2,11.2,7.5,17.8,18.2,20.4c0.3,0.1,0.6,0.3,0.9,0.4c3.4,1.7,5.2,1.8,5.1-3.1
		c-0.3-10.3-0.1-20.6-0.1-30.9C282.6,280.4,282.6,270.8,282.6,259.8z M156.3,106.5c2.7-28.4,0.8-55.2,1.1-82
		c-8,19-15.5,38.1-23.1,57.2c-0.5,1.2-0.5,2.1,0.5,3.1C141.6,91.7,148.4,98.6,156.3,106.5z M285.8,271.9c0,0-0.1,0-0.1,0
		c0,3.2-0.2,6.3,0.1,9.5c0.1,2-1.3,5.2,1.4,5.6c3.5,0.6,7.8,2,10.7-1.6c6.4-7.6,12.7-15.3,18.7-23.2c1.5-2,6-3.2,3.6-6.7
		c-1.7-2.5-4.6-4.2-7.1-6.2c-1.5-1.2-3.1-0.8-4.7-0.1c-3.3,1.2-6.7,2.1-9.8,3.6c-4.1,1.9-10.4,1.3-12.3,5.4
		C284.4,262,285.8,267.3,285.8,271.9z M159.6,304.3c-4.9-5.4-9.7-10.6-14.5-15.9c-0.9-0.9-1.6-2.3-3.2-1
		c-5.4,4.3-10.8,8.6-16.3,12.9C136.6,306.7,147.3,310.1,159.6,304.3z M293.2,332.5c0.6-12.8,0.9-25.2,1.8-37.6c0.2-3,0-4.6-3.3-4.3
		c-2.6,0.2-6.3-1.7-6.2,3.7c0.2,8.8,0.5,17.6-0.1,26.4C285.1,326.6,287.2,330.1,293.2,332.5z M380.5,281.7
		c0.8,10.5,1.5,20.4,2.3,30.2c0.2,2.1,1.2,3.2,3.2,1.5c4.1-3.6,8.1-7.3,12.2-10.9c1.5-1.3,1.3-2.4,0-3.7
		C392.5,293.3,386.8,287.8,380.5,281.7z M249.8,334.5c7.5,0,14.2-0.2,21,0.1c3.6,0.2,5.9-1.4,8.2-3.8c1.6-1.7,1.6-2.6-0.6-3.5
		c-4.9-2-9.8-4.1-14.6-6.3c-1.6-0.7-2.5,0.2-3.4,1.2C257,326.2,253.6,330.2,249.8,334.5z M159.8,263.7c2.2-2.5,5.4-3.5,4.6-6.7
		c-1.7-7.2-3.6-14.5-5.8-21.6c-1.2-4-4.1-1-6.2-0.8c-2.1,0.1-3.5,1.2-2.6,3.7C153.1,246.6,156.4,254.9,159.8,263.7z M282.8,200.3
		c0.3,0.1,0.5,0.3,0.8,0.4c2.2-4.8,4.3-9.5,6.5-14.3c3.9-8.3,3.8-8.2-4.8-11c-3.5-1.1-3.9,0-3.7,3
		C282.1,185.7,282.4,193,282.8,200.3z"/>
	<path class="st1" d="M22.6,298.5c-0.6,3.3,0.8,5.7,3.2,7.9c5,4.6,9.9,9.4,14.6,14.3c2.7,2.9,5.8,4.1,9.6,4.3
		c16.1,0.8,32.3,1.8,48.4,2.7c3.2,0.2,6.6-0.3,7.2,4.5c0.3,2.1,2.7,2.7,4.6,3.4c6.8,2.2,13.7,4.1,20.3,6.9c5.3,2.2,10.2,2.1,15.4,0
		c13.5-5.5,27.4-6.6,42-5.6c27.6,1.7,55.2,3.3,82.9,2.8c4.1-0.1,7.5-0.8,10.2-3.9c1.9-2.1,3.6-2.9,6.2-0.5c3.6,3.5,8.2,4.6,13.3,4.4
		c16.1-0.5,32.2,0.8,48.3-2.7c13.3-2.9,24.8-9.5,36-16.5c6.4-4,11.7-9.8,17.6-14.7c1.5-1.3,2-3,2.8-4.6c0.5,2.6,2.8,3.6,4.6,5
		c10.4,7.8,10.2,19.9-0.4,27.4c-10.1,7.1-21.3,11.4-33,15.1c-19.7,6.2-39.9,9.9-60.2,12.7c-13.1,1.8-26.3,2.9-39.5,4.2
		c-16.2,1.6-32.5,1.6-48.8,2.3c-10.3,0.5-20.6,0.8-30.9,0.6c-16.6-0.3-33.3-0.5-49.8-2.1c-27.3-2.6-54.7-5.1-81.6-11.4
		c-14.1-3.3-28-6.9-41.4-12.3c-6.8-2.7-13.1-6.5-18.6-11.4c-6.9-6.1-7.9-13.5-2.2-20.6C8.5,304.6,14.8,300.2,22.6,298.5z"/>
	<path class="st5" d="M167.8,256.1c-3-48.6-5.8-95.7-8.8-144c8.2,4.5,15.4,8.5,22.6,12.5c10.3,5.7,20.7,11.4,30.9,17.3
		c2.7,1.6,4.6,1.4,7.1-0.5c10.5-8.5,21.1-16.8,31.6-25.2c1.5-1.2,3.1-2.3,5.2-3.8c4.5,41,8.8,81.2,13.2,121.5
		c-0.3,0.2-0.6,0.3-1,0.5c-3.8-4.7-7.7-9.4-11.3-14.3c-2.7-3.6-5.4-4.7-10.1-3.4c-14.9,4-30,7.4-45.1,10.8c-3.9,0.9-7,2.7-9.8,5.4
		C184.7,240.5,176.6,247.8,167.8,256.1z"/>
	<path class="st5" d="M60.6,184.5c10,0,20,0.2,30-0.1c4.7-0.2,6,1.4,6,5.9c-0.1,17.3,0,34.6,0.3,52c0.4,25.1,1,50.2,1.7,75.4
		c0.1,4.1-1.1,5.1-5,4.8c-14.8-1.1-29.5-1.8-44.3-2.9c-5.7-0.4-7.8-6.3-12-9.1c-0.8-0.5-1.3-1.6-2-2.2c-7.9-7.6-7.9-7.6-2.1-16.8
		c0.1-0.1,0.2-0.3,0.3-0.4c9.9-11.1,11.2-23.1,7.1-37.5c-6.1-21.2-9.9-43.1-14.9-64.6c-0.8-3.3-0.5-4.6,3.5-4.5
		C39.6,184.7,50.1,184.5,60.6,184.5C60.6,184.5,60.6,184.5,60.6,184.5z"/>
	<path class="st5" d="M242.6,334.4c-16.7-0.9-32.9-2.1-49.2-2.4c-7.4-0.1-14.8-0.2-22.2-1.1c-2.8-0.3-3.6-1.3-3.9-3.9
		c-0.7-5.9-2-11.8-2.5-17.8c-0.3-3.1-1.4-5.2-3.5-7.4c-4.7-4.7-9-9.9-13.6-14.6c-2.1-2.1-2.1-3.6,0-5.8c3.1-3.2,6-6.7,8.8-10.2
		c2.1-2.8,3.8-2.7,6.3-0.3c7.2,6.7,14.6,13.1,21.8,19.8c2.4,2.3,5,3,8.2,2.5c12.3-1.9,24.6-3.8,37-5.6c6.3-0.9,12.6-0.5,18.9,0.6
		c2,0.3,2.8,1.3,3.3,3.1c2.4,8.1,4.9,16.2,7.5,24.3c0.6,1.8,0.3,3.2-1,4.6c-3.5,4-7,8-10.5,12.1C246.4,334.1,244.6,335,242.6,334.4z
		"/>
	<path class="st6" d="M99.5,267.9c0-24.8,0-49.6,0-74.3c0-1.5-0.9-3.8,0.8-4.5c1.8-0.7,2.6,1.7,3.6,2.8c13.3,13.9,26.5,28,39.8,42
		c1.4,1.5,2.5,3,3.2,5c2.9,7.8,6,15.5,9,23.2c1,2.6,0.8,4.5-1,6.8c-8.8,11.2-19.4,20.4-30.8,28.8c-2.1,1.5-3.6,3.4-4.6,5.7
		c-2.5,5.4-5.2,10.8-7.7,16.2c-1.3,2.9-2.8,4.1-6.4,3.3c-3.2-0.7-4.1-1.7-4.1-4.7c0.3-16.8-1.6-33.6-0.7-50.4
		C100.3,267.9,99.9,267.9,99.5,267.9z"/>
	<path class="st7" d="M198.3,8.3c3.9,4.1,7.7,8,11.4,12c20.5,22.1,40.9,44.3,61.5,66.3c2.4,2.6,2,3.8-0.1,6.4
		c-14.4,17.6-33.5,29.8-50.7,44.3c-1.7,1.4-3.3,2.7-3.9-1.1C210.3,94,204,51.9,197.7,9.8C197.7,9.5,197.9,9.2,198.3,8.3z"/>
	<path class="st7" d="M198.7,38.6c2.8,11.8,3.9,23.9,5.8,35.9c3,19.2,5.8,38.5,8.6,57.7c0.1,0.8,0.4,1.6,0.4,2.5
		c0,1.1,0.4,2.8-0.2,3.3c-1.2,1.1-2.4-0.3-3.5-0.9c-11.7-6.4-23.3-13-34.9-19.4c-3.1-1.7-6-3.8-9.2-5c-5.7-2.2-7.7-5.6-6.3-11.7
		c1.7-7.7,1.1-15.6,1.2-23.4c4.5-3.4,8-7.8,11.9-11.9C181.2,56.5,189,46.6,198.7,38.6z"/>
	<path class="st5" d="M323.2,253.4c-1.7-1.2-3.2-1.9-4-3c-4.4-5.8-9.5-5.8-15.6-2.9c-4.6,2.2-9.7,3.4-14.5,5.3
		c-2.7,1.1-3.5,0.3-3.7-2.4c-0.6-13.1-1.3-26.3-1.9-39.4c-0.1-1.7,0-3.3,0.7-4.9c3.6-7.7,7.1-15.4,10.5-23.2c1-2.1,1.8-3.2,4.4-1.7
		c11.8,6.9,23.6,13.7,35.5,20.4c2.2,1.3,3,2.4,2.2,5.1C332.2,222.1,327.8,237.4,323.2,253.4z"/>
	<path class="st6" d="M327.5,248.8c2.1-7.1,4.1-14.2,6.2-21.3c1.9-6.5,3.9-13,5.8-19.6c0.7-2.4,1.8-3.7,4.5-3.4
		c19,1.7,38,3.3,57,4.9c2.2,0.2,2.4,1,1.6,2.9c-6.7,16.3-13.5,32.6-20.1,48.9c-1.1,2.6-2,1.8-3.5,0.5c-6.9-6-13.9-11.9-20.8-17.9
		c-1.3-1.1-2.4-2.3-3.7-3.4c-9.5-7.8-9.5-7.8-18.2,1c-2.6,2.7-4.9,5.8-7.3,8.7C328.6,249.7,328.1,249.2,327.5,248.8z"/>
	<path class="st7" d="M255.6,222.5c8.2,10.3,16.3,20.6,24.5,30.8c1.6,2,1.6,3.1-0.2,4.9c-8.8,8.4-17.4,16.9-26,25.5
		c-1.4,1.4-3,2.2-4.9,1.7c-14.2-3.3-28,1.4-41.9,2.6c-1.5,0.1-3,0.3-4.4,0.4C219.9,266.2,237.4,244.1,255.6,222.5z"/>
	<path class="st5" d="M163.5,239.4c-1.8-8.5-6.5-15.6-10.9-22.8c-5.5-9.1-9.3-18.3-10-29.3c-1.2-20-3.3-40-5.2-60
		c-1.2-12.7-2.5-25.4-2.8-38.8c6.9,7.1,13.9,14,20.7,21.3c1,1,1,3.1,1.1,4.8c1.1,18.6,2.1,37.2,3.2,55.7c1.2,20.1,2.6,40.1,3.8,60.2
		C163.6,233.4,163.5,236.4,163.5,239.4z"/>
	<path class="st6" d="M94.6,119.2c5.6,10.1,11.3,20.3,16.9,30.4c14.1,25.2,28.3,50.4,42.3,75.6c0.9,1.7,4,3.7,1.4,5.3
		c-2.7,1.6-6.4,3.4-9.8,0.7c-1.4-1.1-2.5-2.7-3.7-4c-13.3-14-26.5-27.9-39.9-41.8c-2.1-2.2-3.1-4.5-3.3-7.5c-1.5-17-3.2-34-4.8-50.9
		c-0.2-2.5,0-5,0-7.5C94.1,119.4,94.4,119.3,94.6,119.2z"/>
	<path class="st6" d="M282.4,250.4c-10-6.4-9.7-16.9-10.8-26.9c-1.9-17.3-3.9-34.6-5.8-51.9c-1.8-16.5-2.8-33.1-5.5-49.5
		c-1.7-9.8,0.9-16.7,8.4-22.4c2-1.5,2.8-4.2,5.9-5.9C277.2,146.3,279.8,198.4,282.4,250.4z"/>
	<path class="st5" d="M313.5,334.5c-4.7,0-9.3-0.1-14,0c-2.3,0-3.5-0.1-3.3-3.2c0.7-11.3,1.1-22.6,1.5-33.9c0.2-4.5,1.5-6.7,6.8-6.1
		c11.6,1.1,23.2,1.5,34.8,2c2.6,0.1,3.5,0.7,2.7,3.6c-3.3,11.3-6.5,22.7-9.6,34.1c-0.7,2.7-2.1,3.7-4.9,3.6
		C322.9,334.4,318.2,334.5,313.5,334.5z"/>
	<path class="st6" d="M342.8,201.4c11.5-11.1,21.9-21.1,32.3-31.1c5.4-5.2,10.7-10.5,16-15.8c2.1-2.1,3.4-2.6,4.1,1
		c2.8,16,5.6,32,8.3,48c0.7,4.3-2.7,2.9-4.7,2.8c-7.5-0.5-14.9-1.2-22.3-1.9C365.8,203.5,355,202.6,342.8,201.4z"/>
	<path class="st6" d="M334.6,333.4c3.4-12,6.8-23.9,10-35.9c0.9-3.2,2.6-5,5.5-6.4c7.9-3.6,15.7-7.3,23.4-11.2
		c2.9-1.4,3.9-1.3,4.1,2.3c0.7,10.7,1.8,21.5,2.7,32.2c0.1,1.5,0.3,3-1.4,3.9c-13.6,7.3-27.2,14.8-43.2,15.2
		C335.4,333.6,334.9,333.4,334.6,333.4z"/>
	<path class="st5" d="M164.4,328c0.7,3-0.7,3.8-2.4,4.3c-7.1,2.2-14.3,4.2-21.4,6.6c-2,0.6-3.6,0.2-5.3-0.3
		c-7.4-2.4-14.8-4.9-22.2-7.3c-2.5-0.8-2.5-2-1.5-4c3.4-7,6.8-14.1,10-21.2c1.2-2.6,2.7-3.2,5-1.8c0.1,0.1,0.3,0.1,0.5,0.2
		c10,5.6,20.4,7.5,31.5,3.7c2.5-0.9,3.4,0.2,3.7,2.4C162.9,316.6,163.7,322.7,164.4,328z"/>
	<path class="st6" d="M282.6,259.8c0,11,0,20.6,0,30.1c0,10.3-0.2,20.6,0.1,30.9c0.2,4.9-1.7,4.9-5.1,3.1c-0.3-0.2-0.6-0.3-0.9-0.4
		c-10.8-2.6-17-9.2-18.2-20.4c-0.2-1.5-0.5-3.1-1.2-4.3c-5.1-8.6-1.5-14.5,5.4-20.2C269.4,273.1,275.3,266.8,282.6,259.8z"/>
	<path class="st7" d="M392.8,131.3c3.8,5.5,3.2,14.5-1.3,19c-16.4,16-32.8,32-49.2,48c-2.1,2.1-3.9,2.7-6.4,0.9
		c-3-2.1-6.2-3.8-9.3-5.7c0.5-0.4,1.1-0.8,1.6-1.2c17.9-17.3,36.3-34.1,54.7-50.9C386.2,138.3,390.8,136,392.8,131.3z"/>
	<path class="st7" d="M156.3,106.5c-7.8-7.9-14.7-14.8-21.6-21.7c-1-1-1-1.9-0.5-3.1c7.5-19.1,15.1-38.2,23.1-57.2
		C157.1,51.3,159,78.1,156.3,106.5z"/>
	<path class="st3" d="M314.5,187.3c-2-1.3-4-2.6-5.9-3.8c0.6-0.8,1.1-1.7,1.8-2.4c20.1-19.9,39.8-40.4,61-59.2c3-2.7,6.6-5,8.3-9
		c4,2.9,5.9,7.4,8.1,11.5c-1.5,1-3.2,1.8-4.6,2.9c-11.4,9.7-22.8,19.4-34.1,29.1C337.5,166.7,326.9,178,314.5,187.3z"/>
	<path class="st3" d="M46.5,181.4c-3.3,0.7-6.6,0.5-10,0.2c2.7-10.3,6.6-20.2,10.6-30c7.1-17.3,15.3-34.2,23.5-51.1
		c4.1,2,8.6,3.2,11.8,6.8c-1.8,0.3-2.1,2-2.8,3.3c-7,13.5-14.2,26.8-20.7,40.5C54.3,160.9,48.8,170.5,46.5,181.4z"/>
	<path class="st7" d="M232.5,223.3c4.4-1,8.7-1.9,13.1-2.9c-9.2,11.8-18.5,23.4-27.4,35.3c-7.7,10.2-15.1,20.6-22.5,31
		c-0.6,0.8-3,2.2,0.1,3c-4.3,1.8-7.9,0.9-11.1-2.5c-1.5-1.7-3.4-3.1-5.1-4.6c0.8-0.6,1.6-1.2,2.3-1.9c16.6-18.7,32.9-37.6,50.5-55.4
		C232.9,224.7,233.5,224.1,232.5,223.3z"/>
	<path class="st7" d="M379.7,113c-1.7,4-5.3,6.3-8.3,9c-21.2,18.8-40.9,39.2-61,59.2c-0.7,0.7-1.2,1.6-1.8,2.4
		c-3.2-1.9-8.7-3.4-9.2-6c-0.7-3.3,4.6-5.3,7.4-7.8c22-19.8,44.1-39.4,66.2-59.1C377.4,106.8,377.7,106.9,379.7,113z"/>
	<path class="st6" d="M357.6,119.5c-3.6,5-8.4,8.8-12.8,12.9c-12.9,11.7-26.1,23.1-39.3,34.6c-2.5,2.2-5.1,4.3-7.5,6.6
		c-1.8,1.7-3.5,2.3-5.8,1.3c-2.1-0.9-4.4-1.6-6.6-2.3c-2.1-0.7-4-1.2-4.1-4.1c-0.1-3.1,0.9-4.9,3.5-6.4
		c22.3-13.2,44.5-26.5,66.7-39.8C353.6,121.1,355.4,119.8,357.6,119.5L357.6,119.5z"/>
	<path class="st6" d="M285.8,271.9c0-4.7-1.4-9.9,0.4-13.8c1.9-4.1,8.1-3.5,12.3-5.4c3.1-1.5,6.6-2.3,9.8-3.6c1.6-0.6,3.3-1,4.7,0.1
		c2.5,1.9,5.4,3.7,7.1,6.2c2.4,3.6-2.1,4.8-3.6,6.7c-5.9,8-12.3,15.6-18.7,23.2c-3,3.6-7.2,2.2-10.7,1.6c-2.7-0.4-1.2-3.7-1.4-5.6
		c-0.2-3.1-0.1-6.3-0.1-9.5C285.7,271.9,285.8,271.9,285.8,271.9z"/>
	<path class="st7" d="M46.5,181.4c2.3-10.9,7.8-20.5,12.4-30.4c6.5-13.7,13.7-27,20.7-40.5c0.7-1.3,1-2.9,2.8-3.3
		c3.1,0.7,6.4,1.1,7.2,5.1c-1.6,1.3-2.1,3.3-3,5.1c-10.5,20.9-19.8,42.4-29,63.9C54,181.8,50.2,181.9,46.5,181.4z"/>
	<path class="st3" d="M232.5,223.3c1,0.7,0.5,1.4-0.1,2c-17.6,17.7-33.9,36.7-50.5,55.4c-0.7,0.7-1.5,1.3-2.3,1.9
		c-2.1-2-4.1-4-6.2-5.9c11.8-16.5,24.7-32.1,37.3-47.9C218,226.9,225.2,225.1,232.5,223.3z"/>
	<path class="st7" d="M90.8,124.3c0.9,10,1.9,20.1,2.8,30.1c0.7,7.6,1.3,15.2,2.1,22.8c0.3,3-0.3,4.6-3.8,4.4
		c-8.5-0.3-16.9-0.3-25.4-0.4c-0.2-1.6,0.6-2.9,1.2-4.2c4.5-9.4,9.4-18.6,13.4-28.2C84.5,140.8,90.7,133.7,90.8,124.3z"/>
	<path class="st7" d="M70.6,100.5c-8.1,16.9-16.3,33.7-23.5,51.1c-4,9.8-7.9,19.7-10.6,30c-11.8,0.4-11.6,0.4-6.9-10.4
		c10.1-23,20-46.1,30-69.2c2.8-6.5,2.8-6.5,9-2.9C69.3,99.5,69.9,100,70.6,100.5z"/>
	<path class="st3" d="M195.7,289.7c-3.1-0.8-0.7-2.2-0.1-3c7.4-10.4,14.8-20.8,22.5-31c9-11.9,18.3-23.5,27.4-35.3
		c3.8-1.5,7.7-3.4,10.1,2.1c-18.2,21.6-35.7,43.7-53,66C200.3,288.9,198,289.3,195.7,289.7z"/>
	<path class="st7" d="M210.7,228.7c-12.6,15.8-25.5,31.5-37.3,47.9c-0.8-0.6-1.6-1.2-2.3-1.8c-10.3-8.9-10.3-8.8,0-18
		c6.7-6,13.6-11.8,19.6-18.4C196.3,232.2,202.9,229.6,210.7,228.7z"/>
	<path class="st7" d="M161,66.7c-0.8-6.7-0.3-13.5-0.3-20.2c1.7-0.5,2.6-2,3.7-3.2c9.9-10.4,20.4-20.2,31-29.9
		c0.7,4.7,1.4,9.4,2.1,14.1c-1.8-0.3-2.6,1.2-3.6,2.2c-5.9,6.5-11.7,13-17.7,19.5C171,54.9,166.9,61.6,161,66.7z"/>
	<path class="st3" d="M392.8,131.3c-2,4.7-6.6,6.9-10,10.1c-18.4,16.8-36.8,33.6-54.7,50.9c-0.5,0.5-1,0.8-1.6,1.2
		c-1.3-0.7-2.6-1.4-4-2c-0.1-1.8,1.3-2.6,2.3-3.7c18.8-19.2,37.8-38.2,57.5-56.5c2.1-2,4-4.5,7.2-4.9
		C390.7,128.1,391.7,129.7,392.8,131.3z"/>
	<path class="st7" d="M311.7,288.4c-3.7,0.3-7.2-0.2-11.5-1.2c5.3-6.6,10.5-12.8,15.5-19.1c7.8-10,16.7-18.9,26-27.4
		c4.7-4.3,4.7-4.2,9,0.7c-1.3,1.5-2.5,3.1-3.8,4.5C334.4,259.4,322.3,273.3,311.7,288.4z"/>
	<path class="st3" d="M311.7,288.4c10.6-15.1,22.7-29,35.1-42.5c1.3-1.5,2.6-3,3.8-4.5c3.3,1.7,5.8,4.4,8.4,6.9
		c-10.2,10.6-20.8,20.9-30,32.5c-4.4,5.6-9.1,9.3-16.5,7.9C312.2,288.6,312,288.5,311.7,288.4z"/>
	<path class="st3" d="M90.8,124.3c-0.2,9.4-6.3,16.5-9.7,24.6c-4,9.6-8.9,18.8-13.4,28.2c-0.6,1.3-1.4,2.6-1.2,4.2
		c-2.9,0.7-5.9,0.6-8.8,0.1c9.2-21.5,18.4-43,29-63.9c0.9-1.8,1.4-3.7,3-5.1c0.1,0.7,0.2,1.3,0.2,2c-0.5,1.2-0.4,2.3,0.5,3.2
		C90.5,119.8,90.7,122.1,90.8,124.3z"/>
	<path class="st7" d="M368.7,256.4c2.2,1.9,4.4,3.9,6.7,5.8c6.3,5.2,5.3,11.6-2.1,15c-7.8,3.6-15.6,7.3-23.3,11.1
		c-3.7,1.8-7.4,2.9-11.5,2c8.9-10.4,18.3-20.4,27.9-30.2C367.5,259.1,368.7,258.1,368.7,256.4z"/>
	<path class="st3" d="M195.4,13.4c-10.6,9.7-21.1,19.5-31,29.9c-1.1,1.2-2,2.7-3.7,3.2c0-5.2-0.6-10.5,0.4-15.7
		c7.6-6.4,14.1-13.8,20.3-21.5c0,0,0.1-0.1,0.1-0.1c0.6,0.3,1-0.1,1.2-0.6c3.2-1.2,6.6-3.5,9.7-3.2C197.2,5.7,192.8,11.2,195.4,13.4
		z"/>
	<path class="st3" d="M161,66.7c5.9-5.1,10-11.8,15.3-17.4c5.9-6.5,11.8-13,17.7-19.5c1-1.1,1.8-2.5,3.6-2.2
		c0.7,3.7,1.5,7.3,1.2,11.1c-9.8,8-17.6,17.9-26.2,26.9c-3.9,4.1-7.4,8.5-11.9,11.9C160.6,73.8,160.2,70.2,161,66.7z"/>
	<path class="st7" d="M389.6,126.5c-3.2,0.4-5.1,3-7.2,4.9c-19.7,18.3-38.7,37.3-57.5,56.5c-1,1-2.4,1.9-2.3,3.7
		c-2.7-1.4-5.4-2.8-8-4.2c12.3-9.4,22.9-20.7,34.6-30.8c11.3-9.8,22.7-19.5,34.1-29.1c1.4-1.2,3-2,4.6-2.9
		C388.7,124.9,389.5,125.4,389.6,126.5z"/>
	<path class="st7" d="M312.5,288.6c7.4,1.4,12.1-2.3,16.5-7.9c9.2-11.5,19.8-21.9,30-32.5c1.9,1.6,3.8,3.3,5.8,4.9
		c-8.1,6.4-14.3,14.8-21.1,22.4c-3.8,4.2-7.8,8.4-10.6,13.4c1.4,0.5,2.5,0.9,3.6,1.3C328.7,289.2,320.5,290.3,312.5,288.6z"/>
	<path class="st7" d="M159.6,304.3c-12.3,5.9-23,2.4-34.1-4c5.5-4.4,10.9-8.6,16.3-12.9c1.6-1.3,2.4,0.1,3.2,1
		C149.9,293.6,154.7,298.9,159.6,304.3z"/>
	<path class="st6" d="M293.2,332.5c-6-2.4-8.1-5.9-7.7-11.8c0.5-8.8,0.3-17.6,0.1-26.4c-0.1-5.4,3.6-3.4,6.2-3.7
		c3.3-0.3,3.5,1.3,3.3,4.3C294.1,307.3,293.7,319.7,293.2,332.5z"/>
	<path class="st6" d="M380.5,281.7c6.3,6.1,12,11.6,17.8,17c1.3,1.3,1.5,2.4,0,3.7c-4.1,3.6-8.1,7.3-12.2,10.9
		c-2,1.8-3.1,0.6-3.2-1.5C382,302.1,381.3,292.2,380.5,281.7z"/>
	<path class="st3" d="M336.7,290.3c-1.1-0.4-2.1-0.8-3.6-1.3c2.8-5.1,6.8-9.2,10.6-13.4c6.8-7.7,13-16,21.1-22.4
		c1.3,1.1,2.6,2.2,3.9,3.3c0,1.7-1.2,2.6-2.2,3.7c-9.6,9.8-19,19.8-27.9,30.2C337.9,290.3,337.3,290.3,336.7,290.3z"/>
	<path class="st6" d="M249.8,334.5c3.7-4.3,7.2-8.3,10.6-12.3c0.9-1,1.7-1.9,3.4-1.2c4.8,2.2,9.7,4.2,14.6,6.3
		c2.2,0.9,2.2,1.9,0.6,3.5c-2.3,2.3-4.5,3.9-8.2,3.8C264.1,334.3,257.3,334.5,249.8,334.5z"/>
	<path class="st6" d="M159.8,263.7c-3.4-8.9-6.7-17.2-9.9-25.5c-0.9-2.4,0.4-3.5,2.6-3.7c2.1-0.1,5-3.1,6.2,0.8
		c2.2,7.1,4.1,14.3,5.8,21.6C165.2,260.2,162,261.3,159.8,263.7z"/>
	<path class="st7" d="M181.3,9.2c-6.2,7.7-12.7,15.1-20.3,21.5c-1-4.2-0.2-8.5-0.5-12.8c-0.1-1.8,0.8-2.8,2.4-3.2
		C169.1,13.1,174.9,10.2,181.3,9.2z"/>
	<path class="st5" d="M282.8,200.3c-0.4-7.3-0.7-14.6-1.2-21.8c-0.2-3,0.3-4.2,3.7-3c8.7,2.9,8.7,2.7,4.8,11
		c-2.2,4.7-4.3,9.5-6.5,14.3C283.4,200.6,283.1,200.4,282.8,200.3z"/>
	<path class="st6" d="M391.6,286.5c-4.6-2-7.3-6.1-10.4-9.6c-1.7-1.9,0.7-3.9,1.1-6C386.1,275.9,389.2,281,391.6,286.5L391.6,286.5z
		"/>
	<path class="st7" d="M90.4,117.6c-0.9-1-0.9-2-0.5-3.2C90.7,115.3,90.6,116.4,90.4,117.6z"/>
	<path class="st6" d="M391.6,286.5c0.3,0.7,0.7,1.3,1,2l0,0C391.8,288.1,391.7,287.3,391.6,286.5
		C391.6,286.5,391.6,286.5,391.6,286.5z"/>
	<path class="st7" d="M182.7,8.6c-0.3,0.5-0.6,0.8-1.2,0.6C181.8,9,182.2,8.8,182.7,8.6z"/>
	<path class="st6" d="M392.6,288.5c0.1,0.1,0.3,0.1,0.4,0.2C392.9,288.6,392.7,288.6,392.6,288.5L392.6,288.5z"/>
	<path class="st6" d="M357.6,119.5c0.2-0.1,0.3-0.3,0.5-0.4c0,0.1,0,0.2-0.1,0.3C357.9,119.4,357.7,119.4,357.6,119.5
		C357.6,119.5,357.6,119.5,357.6,119.5z"/>
</g>
</svg>
