<?xml version="1.0" encoding="utf-8"?>
<!-- Generator: Adobe Illustrator 22.1.0, SVG Export Plug-In . SVG Version: 6.00 Build 0)  -->
<svg version="1.1" id="Layer_1" xmlns="http://www.w3.org/2000/svg" xmlns:xlink="http://www.w3.org/1999/xlink" x="0px" y="0px"
	 viewBox="0 0 316.6 355.6" style="enable-background:new 0 0 316.6 355.6;" xml:space="preserve">
<style type="text/css">
	.st0{fill:#663F7C;}
	.st1{fill:#D0D9DD;}
	.st2{fill:#AE8CBF;}
	.st3{fill:#FEFEFE;}
	.st4{fill:#168250;}
	.st5{fill:#80C898;}
	.st6{fill:#59BE89;}
	.st7{fill:#97D1AE;}
	.st8{fill:#135987;}
	.st9{fill:#6BA1D6;}
	.st10{fill:#4F78B8;}
	.st11{fill:#A7C4E2;}
	.st12{fill:#A8CF65;}
	.st13{fill:#90C756;}
	.st14{fill:#C75D19;}
	.st15{fill:#F9A83F;}
	.st16{fill:#B0233E;}
	.st17{fill:#F06D85;}
	.st18{fill:#EF4A6B;}
</style>
<g>
	<path class="st8" d="M29.2,299.9c7.8-9.1,15.5-18.2,23.3-27.4c5-5.8,7.4-6.4,14.6-3.1c0.6-11.1,1.2-22,1.7-32.9
		c0.9-20,1.9-39.9,2.7-59.9c0.2-5.2,1.7-9.5,5.4-13.5c5.7-6,11.1-12.4,16.2-19c3.8-5,8.2-7.6,14.4-6.4c4.1,0.7,5.7-0.9,6.4-5
		c5.2-30,10.7-59.9,16-89.9c1.2-7,4-11.7,11.7-14.5c23-8.4,45.5-17.9,68.2-26.9c7.4-2.9,10.3-1.2,9.8,6.5c-0.3,4.6,2.8,7.6,3.6,11.7
		c11.2,58.3,22.7,116.6,34.1,174.9c0.1,0.6,0.4,1.2,0.9,2.5c2.8-5.9,5.5-11.2,7.7-16.6c1.2-2.9,2.9-4.2,5.9-4.2
		c7.5,0.1,15,0.1,22.5,0c3,0,5,1.2,6.4,3.8c2.2,4.3,4.5,8.5,7,12.7c1.8,3,1.1,6.2,0.8,9.2c-3.3,32.3-6.7,64.6-10.1,96.9
		c-0.1,1.3-0.5,2.6-0.8,3.9c-11.4,11.3-25.3,18.7-39.8,25.2c-4,1.8-7.6,1.9-11.5,0.4c-10.7-4.1-21.6-7.9-32.3-12.1
		c-3.1-1.2-5.5-1-8.3,0.7c-7.8,4.6-15.7,8.8-23.5,13.2c-3.6,2-7.3,3-11.4,3c-10-0.2-20.1-0.7-30,0.1c-14.1,1.2-26.7-1.5-37.5-11
		c-2-1.7-4-1.9-6.4-0.8c-8.2,3.4-16.8,5.1-25.5,6.8c-17.9,3.5-33.1-1.4-46.3-13.5c-2.6-2.4-3-5-0.8-7.9
		C25.8,304.4,27.5,302.1,29.2,299.9z M245.9,280.6c-0.2-0.1-0.3-0.3-0.5-0.4C245.5,280.3,245.7,280.5,245.9,280.6
		c-0.7,3.8,0.6,7.3,1.1,10.9c1.4,9.5,3.2,18.9,5.1,28.3c0.3,1.4-0.1,4.8,3.4,3.1c6-2.8,12-5.7,18-8.5c1.9-0.9,2.1-1.8,0.7-3.3
		c-1.7-1.8-3.1-3.9-4.9-5.6C260.9,297.7,254.6,288,245.9,280.6z M183.8,17.5C168.8,23.3,153.9,29.2,139,35c-2.1,0.8-2.1,2-1.7,3.9
		c1.8,7,3.5,14.1,5.3,21.1c0.9,3.8,1.7,7.7,2.6,11.5c1.2,4.7,2.4,9.5,3.6,14.2c0.7,3.1,1.2,6.2,2.1,9.2c0.6,2-0.2,4.9,2.8,5.7
		c9.4,7.7,19.7,14,29.4,21.2c2,1.5,3.2,0.6,4.7-0.7c8-7.5,16.1-14.9,24.2-22.2c1.7-1.5,2.6-3.1,2.6-5.6c-0.1-26.6-0.1-53.2-0.1-79.7
		c-0.7-1.1,0.1-2.1,0-3.1c-0.1-5.3-0.5-5.5-5.4-3.5C200.7,10.4,192.3,14,183.8,17.5z M144.7,235.5c5.7-2.2,10.7-4,15.6-6.1
		c2.4-1,4.3-1,6.5,0.5c8.8,5.7,17.6,11.3,26.6,16.7c3.1,1.9,4.7,4.3,5.4,7.8c2.5,12,5.2,24,7.6,36.1c0.6,3.2,1.7,3.4,4.2,1.8
		c4.2-2.7,8.5-5.3,12.8-7.8c1.7-1,2.7-2.3,3.4-4.1c5.8-14.3,11.6-28.7,17.6-43c1.5-3.7,1.9-7.2,1-11.2
		c-9.9-40.9-19.7-81.7-29.4-122.6c-0.8-3.6-1.7-3.3-3.9-1.2c-7.8,7.3-15.7,14.3-23.5,21.7c-2.2,2.1-3.7,2.6-6.3,0.6
		c-4.8-3.8-9.8-7.4-15-10.7c-5-3.3-9.6-7.3-15.3-10C149.6,148,147.2,191.4,144.7,235.5z M135.8,44.5c-0.3,0-0.5,0.1-0.8,0.1
		c-0.4,2.1-0.8,4.2-1.2,6.3c-3,16-5.7,32-8.4,48c-3.8,22.2-8.6,44.2-12.4,66.4C106.3,204,99.3,242.6,92,281.2
		c-0.9,4.7-0.1,8.1,4.7,10.1c2.1,0.9,4.1,2.3,5.8,3.8c2.9,2.5,4.2,1.8,5.7-1.7c6.6-16,13.5-31.8,20.2-47.7c1.3-3.1,2.8-5.7,6.8-6.4
		c3-0.6,6.4-1.9,6.6-6.3c0.6-13.4,1.2-26.9,2.1-40.3c0.4-6.3,0.6-12.6,1.1-18.9c1.7-23.7,2.9-47.4,3.8-71.1c0.1-1.7,0.2-3.4-0.2-5
		C144.4,79.9,140.1,62.2,135.8,44.5z M148.5,327.7c6.8,0,13.7-0.2,20.5,0.1c4.1,0.2,5.2-1.2,4.9-5.1c-0.9-11.4-1-22.9-2.3-34.3
		c-0.7-6.6-0.1-13.3-1.3-19.9c-0.5-2.5-1.3-2.9-3.6-2.1c-9.2,2.9-18.4,5.6-27.6,8.5c-1.6,0.5-2.9,1-3.4,3
		c-3.8,15.3-7.8,30.6-11.7,45.8c-0.7,2.7,0.1,4,3.2,4C134.2,327.6,141.4,327.7,148.5,327.7z M218.6,24c-2.6,4-0.9,7.6-0.9,11.2
		c-0.1,18.6,0,37.3,0,55.9c0,3.1-0.6,6.1,0.1,9.3c8.1,33.2,16,66.4,24,99.5c2,8.4,4.2,16.7,6.4,25.1c3.2-5.3,7.2-10.3,6.4-16.2
		c-1.6-11.3-4.2-22.4-6.4-33.6c-5.4-27.8-10.9-55.6-16.4-83.3C227.5,69.4,223.1,47,218.6,24z M282.8,228.6c-0.9-0.8,1.8-4.8-2.2-3.3
		c-4.8,1.8-9.8,3.6-12.6,8.9c-5.4,10.1-11.5,19.8-17.3,29.7c-1.9,3.3-5.2,6.5-5.4,9.9c-0.2,3.9,4.7,5.9,7.1,9.1
		c0.2,0.3,0.4,0.6,0.6,0.8c7,7.6,14,15.1,21.1,22.6c0.7,0.8,1.4,2.2,2.8,1.7c1.3-0.5,1-2,1.1-3.1c0.1-3.2,0.1-6.3,0.3-9.5
		C279.6,273.3,281.2,251.1,282.8,228.6z M206.9,307.7c0-0.6,0-0.9-0.1-1.2c-3.6-16.8-7.3-33.7-10.8-50.5c-0.6-2.8-1.9-2.7-3.8-1.6
		c-5.7,3-11.4,6.1-17.2,9.1c-1.8,0.9-2.2,2.1-1.8,4.1c1.3,7.7,0.6,15.5,1.4,23.3c1.2,10.9,1.5,21.8,2.1,32.8
		c0.1,2.7,1.2,2.7,3.1,1.6c8.3-4.6,16.6-9.2,24.9-13.8C206.1,310.6,207.4,309.5,206.9,307.7z M64.7,324.1c7-1.5,13.9-3.2,20.9-4.3
		c8.7-1.3,14.5-5.1,17.7-13.9c2-5.4,0.3-7.2-3.7-9.6c-11.9-7.2-23.7-14.7-35.5-22.1c-0.8-0.5-1.4-1.7-2.5-1.1
		c-1,0.6-0.6,1.8-0.7,2.7c-0.4,5.2,0.8,10.3,0.8,15.4c-0.1,9.1,0.8,18.2-0.6,27.4C60.7,320.6,60,324.4,64.7,324.1z M87.9,285.4
		c0-32.5,0-64.2,0-95.8c0-1.6-0.4-2.9-1.4-4.1c-3-3.4-5.9-6.9-9.3-10.9c-0.5,4-1.3,7.2-1.3,10.4c0.3,18.6-1.4,37.2-2.4,55.7
		c-0.5,10.4,0,20.9-1.7,31.3c-0.3,2.2,0.2,4,2.2,5.2C78.4,279.8,82.8,282.4,87.9,285.4z M303.1,202.8c-0.3-0.2-0.7-0.3-1-0.5
		c-4.9,5.8-9.9,11.5-14.7,17.3c-1.1,1.3-1.5,2.9-1.6,4.6c-0.9,14.2-2,28.4-2.9,42.7c-0.9,14-1.6,28.1-2.4,43
		c6.8-5.5,14.9-9.2,13.5-19.7c-0.2-1.3,0.1-2.7,0.3-4c1.2-11.7,2.5-23.4,3.7-35.1c0.9-8.1,1.9-16.1,2.7-24.2
		C301.5,219,302.3,210.9,303.1,202.8z M249.5,321.6c-2.4-13.4-4.8-26.7-7-40.1c-0.6-3.7-1.8-4.3-5.1-2.3
		c-8.4,5.3-17.1,10.2-25.6,15.5c-1.5,1-4.5,1.6-3.7,4c1.3,3.9-0.5,9.4,4.4,11.4c11.4,4.6,22.9,8.8,34.4,13.1
		C248.4,323.6,249.8,323.9,249.5,321.6z M130.7,249.5c-0.3,0-0.5,0-0.8,0c-3.4,8.1-6.8,16.1-10.1,24.2
		c-5.3,12.6-10.5,25.1-15.8,37.6c-1.2,2.9-0.6,4.6,2.1,6.6c3.7,2.7,8.1,4.4,11.5,7.7c2,1.9,2.9,0.8,3.5-1.7
		c2.1-8.9,4.7-17.6,6.7-26.5c2.2-9.5,6.3-18.6,5.2-28.7C132.2,262.4,131.4,255.9,130.7,249.5z M270.9,226.3
		c12-3.4,18.1-12.6,24.8-21.2c7.7-9.8,7.7-9.7,1.5-20.4c-0.2-0.3-0.4-0.6-0.5-0.9c-0.8-2-2.2-2.6-4.3-2.5c-6,0.1-12,0.2-18,0
		c-3-0.1-3.6,1.1-3.6,3.8C270.9,198.8,270.9,212.4,270.9,226.3z M267.9,189.8c-0.3-0.1-0.7-0.2-1-0.3
		c-12.1,29.8-24.2,59.6-36.4,89.4c6.2-2.2,11.2-4.9,14.3-10.6c5.1-9.5,11.2-18.4,16.5-27.8c2.4-4.3,6.5-7.9,6.6-13.2
		C268,214.7,267.9,202.2,267.9,189.8z M90.8,268.5c0.3,0,0.5,0,0.8,0.1c7-39.1,14.1-78.1,21.2-117.6c-0.8,0.5-1.4,0.7-1.6,1.1
		c-6.3,10.7-12.5,21.5-18.9,32.3c-1.3,2.3-1.6,4.6-1.6,7.2c0,16.6,0,33.3,0,49.9C90.8,250.4,90.8,259.4,90.8,268.5z M134.9,242.6
		c12.3,6.5,23.6,12.5,34.8,18.5c0.9,0.5,1.9,0.9,2.8,0.3c6.8-3.6,13.5-7.3,21-11.3c-10-6.2-19.1-11.9-28.2-17.7
		c-1.4-0.9-2.8-0.9-4.2-0.3C152.8,235.4,144.5,238.8,134.9,242.6z M58,275.5c-0.3-0.1-0.7-0.2-1-0.3c-9.1,10.9-18.1,21.9-27.4,32.7
		c-2,2.3-0.8,3.2,0.7,4.7c6.8,6.8,15.4,9.3,24.4,11.1c2.3,0.4,3.3,0.3,3.3-2.5C58,306,58,290.7,58,275.5z M113.6,142.5
		c-5.5,1.1-10.3-1.7-13.7,1.9c-7.2,7.8-13.9,16.1-20.8,24.2c-0.7,0.9-1.8,1.8-0.7,3c3.6,3.9,6.3,8.7,11.1,11.8
		C97.4,170,105.2,156.9,113.6,142.5z M166.1,263.8c0-0.4,0.1-0.8,0.1-1.2c-10-5.4-20-10.9-30-16.2c-2.8-1.5-2.6,1-2.5,2.5
		c0.6,6.9,1.3,13.8,2.1,20.7c0.3,2.5,2.1,2.4,3.7,2C148.4,269,157.3,266.4,166.1,263.8z"/>
	<path class="st1" d="M29.2,299.9c-1.7,2.2-3.4,4.5-5.1,6.7c-2.2,2.9-1.8,5.5,0.8,7.9c13.2,12.2,28.3,17.1,46.3,13.5
		c8.7-1.7,17.3-3.4,25.5-6.8c2.4-1,4.5-0.9,6.4,0.8c10.8,9.5,23.4,12.2,37.5,11c9.9-0.9,20-0.3,30-0.1c4.2,0.1,7.8-0.9,11.4-3
		c7.8-4.5,15.7-8.7,23.5-13.2c2.8-1.7,5.2-1.9,8.3-0.7c10.7,4.2,21.5,8,32.3,12.1c3.9,1.5,7.5,1.3,11.5-0.4
		c14.5-6.4,28.4-13.9,39.8-25.2c5.7,2.3,11.2,5.1,15.5,9.7c4.9,5.2,5,9.7,0,14.8c-7.1,7.3-16.5,10.3-25.9,13.4
		c-20.9,6.8-42.7,9.7-64.4,11.9c-13.2,1.4-26.4,2.6-39.8,2.4c-10-0.2-19.9,1.4-29.9,0.9c-23.7-1.2-47.4-1.8-71-4.7
		c-19.8-2.5-39.3-6-58.2-12.4c-7.5-2.6-15-5.6-20.5-11.8c-4.3-4.8-4.5-9.4,0.1-14C10.5,305.4,19.2,301.3,29.2,299.9z"/>
	<path class="st9" d="M144.7,235.5c2.5-44.1,5-87.5,7.5-131.5c5.7,2.7,10.3,6.7,15.3,10c5.2,3.3,10.2,6.9,15,10.7
		c2.6,2.1,4.1,1.5,6.3-0.6c7.7-7.3,15.7-14.4,23.5-21.7c2.2-2.1,3-2.4,3.9,1.2c9.7,40.9,19.5,81.8,29.4,122.6c1,3.9,0.5,7.5-1,11.2
		c-5.9,14.3-11.8,28.6-17.6,43c-0.7,1.8-1.7,3.1-3.4,4.1c-4.3,2.5-8.6,5.1-12.8,7.8c-2.5,1.6-3.5,1.4-4.2-1.8
		c-2.4-12-5.2-24-7.6-36.1c-0.7-3.5-2.3-5.9-5.4-7.8c-9-5.4-17.8-11-26.6-16.7c-2.2-1.4-4.2-1.5-6.5-0.5
		C155.3,231.5,150.4,233.3,144.7,235.5z"/>
	<path class="st10" d="M135.8,44.5c4.3,17.7,8.7,35.4,13,53.1c0.4,1.6,0.3,3.3,0.2,5c-1,23.7-2.1,47.4-3.8,71.1
		c-0.5,6.3-0.6,12.6-1.1,18.9c-0.9,13.4-1.5,26.9-2.1,40.3c-0.2,4.4-3.6,5.7-6.6,6.3c-4,0.8-5.5,3.3-6.8,6.4
		c-6.8,15.9-13.7,31.8-20.2,47.7c-1.4,3.5-2.7,4.2-5.7,1.7c-1.8-1.5-3.7-2.9-5.8-3.8c-4.7-2-5.6-5.4-4.7-10.1
		c7.2-38.6,14.3-77.2,20.9-115.9c3.8-22.2,8.6-44.2,12.4-66.4c2.7-16,5.4-32,8.4-48c0.4-2.1,0.8-4.2,1.2-6.3
		C135.2,44.6,135.5,44.5,135.8,44.5z"/>
	<path class="st11" d="M214.6,13.5c0,26.6,0,53.2,0.1,79.7c0,2.4-0.9,4-2.6,5.6c-8.1,7.4-16.2,14.8-24.2,22.2
		c-1.5,1.4-2.7,2.2-4.7,0.7c-9.7-7.2-20.1-13.5-29.4-21.2c4.9-5.8,10.5-11.1,15.9-16.5c13.9-13.9,27.9-27.7,42.6-40.7
		c0.9-0.8,1.7-1.7,1.7-2.9c0-6.7,0-13.5,0-20.9c-7,4.5-11.8,10.1-17,15.1c-13.2,12.7-25.8,25.9-38.4,39.1c-3.5,3.7-7.5,7.1-9.6,11.9
		c-1.2-4.7-2.4-9.5-3.6-14.2c1.3,0.2,2-0.5,2.9-1.4c8.6-7.7,17.6-15.1,26.1-22.9C187.2,35.4,201.2,24.9,214.6,13.5z"/>
	<path class="st9" d="M148.5,327.7c-7.2,0-14.3-0.1-21.5,0c-3,0-3.9-1.2-3.2-4c3.9-15.3,7.9-30.5,11.7-45.8c0.5-2.1,1.8-2.6,3.4-3
		c9.2-2.8,18.4-5.6,27.6-8.5c2.3-0.7,3.1-0.4,3.6,2.1c1.3,6.6,0.6,13.2,1.3,19.9c1.3,11.4,1.4,22.9,2.3,34.3
		c0.3,3.9-0.9,5.3-4.9,5.1C162.2,327.5,155.3,327.7,148.5,327.7z"/>
	<path class="st10" d="M218.6,24c4.5,23,8.9,45.4,13.3,67.8c5.4,27.8,10.9,55.6,16.4,83.3c2.2,11.2,4.7,22.4,6.4,33.6
		c0.8,5.9-3.2,10.9-6.4,16.2c-2.1-8.3-4.4-16.7-6.4-25.1c-8-33.2-15.9-66.4-24-99.5c-0.8-3.2-0.1-6.2-0.1-9.3c0-18.6,0-37.3,0-55.9
		C217.7,31.6,216,28,218.6,24z"/>
	<path class="st9" d="M282.8,228.6c-1.6,22.5-3.2,44.7-4.7,66.9c-0.2,3.2-0.2,6.3-0.3,9.5c0,1.1,0.2,2.6-1.1,3.1
		c-1.3,0.5-2-0.9-2.8-1.7c-7.1-7.5-14.1-15.1-21.1-22.6c-0.2-0.2-0.4-0.5-0.6-0.8c-2.3-3.1-7.3-5.2-7.1-9.1c0.2-3.4,3.4-6.6,5.4-9.9
		c5.8-9.9,11.9-19.6,17.3-29.7c2.9-5.3,7.8-7.1,12.6-8.9C284.5,223.8,281.9,227.8,282.8,228.6z"/>
	<path class="st10" d="M206.9,307.7c0.4,1.8-0.8,2.9-2.3,3.7c-8.3,4.6-16.6,9.2-24.9,13.8c-1.9,1-2.9,1.1-3.1-1.6
		c-0.5-10.9-0.8-21.9-2.1-32.8c-0.9-7.8-0.2-15.6-1.4-23.3c-0.3-2,0.1-3.2,1.8-4.1c5.7-3,11.5-6.1,17.2-9.1c2-1,3.3-1.2,3.8,1.6
		c3.5,16.9,7.2,33.7,10.8,50.5C206.9,306.8,206.9,307.2,206.9,307.7z"/>
	<path class="st3" d="M148.8,85.7c2.1-4.8,6.1-8.2,9.6-11.9c12.6-13.2,25.3-26.5,38.4-39.1c5.2-5,9.9-10.6,17-15.1
		c0,7.5,0,14.2,0,20.9c0,1.3-0.7,2.1-1.7,2.9c-14.7,13.1-28.7,26.9-42.6,40.7c-5.4,5.4-10.9,10.6-15.9,16.5c-3-0.9-2.2-3.7-2.8-5.7
		C150,91.9,149.5,88.8,148.8,85.7z"/>
	<path class="st10" d="M64.7,324.1c-4.6,0.3-4-3.4-3.6-5.5c1.4-9.1,0.5-18.3,0.6-27.4c0-5.1-1.1-10.2-0.8-15.4
		c0.1-0.9-0.3-2.1,0.7-2.7c1.1-0.6,1.7,0.6,2.5,1.1c11.8,7.4,23.5,14.9,35.5,22.1c4.1,2.4,5.7,4.3,3.7,9.6
		c-3.2,8.8-9.1,12.6-17.7,13.9C78.5,320.8,71.6,322.6,64.7,324.1z"/>
	<path class="st10" d="M87.9,285.4c-5.1-3-9.5-5.6-13.9-8.2c-2-1.2-2.5-3-2.2-5.2c1.7-10.4,1.1-20.8,1.7-31.3
		c1-18.6,2.7-37.1,2.4-55.7c-0.1-3.2,0.8-6.4,1.3-10.4c3.4,4,6.3,7.5,9.3,10.9c1.1,1.2,1.4,2.5,1.4,4.1
		C87.9,221.2,87.9,252.9,87.9,285.4z"/>
	<path class="st10" d="M303.1,202.8c-0.8,8.1-1.6,16.1-2.5,24.2c-0.9,8.1-1.8,16.1-2.7,24.2c-1.3,11.7-2.5,23.4-3.7,35.1
		c-0.1,1.3-0.4,2.7-0.3,4c1.4,10.5-6.7,14.2-13.5,19.7c0.8-14.9,1.6-29,2.4-43c0.9-14.2,2-28.4,2.9-42.7c0.1-1.7,0.6-3.3,1.6-4.6
		c4.9-5.8,9.8-11.6,14.7-17.3C302.5,202.5,302.8,202.6,303.1,202.8z"/>
	<path class="st3" d="M214.6,13.5c-13.3,11.4-27.4,21.8-40.3,33.7c-8.5,7.8-17.4,15.2-26.1,22.9c-0.9,0.8-1.7,1.5-2.9,1.4
		c-0.9-3.8-1.7-7.7-2.6-11.5c0.4-2.1,1.5-3.6,3-5c10.2-9.7,20-19.9,30.5-29.3c2.8-2.4,6.2-4.4,7.7-8.1c8.5-3.5,16.9-7.1,25.4-10.6
		c4.9-2,5.2-1.8,5.4,3.5C214.6,11.4,213.9,12.5,214.6,13.5z"/>
	<path class="st9" d="M249.5,321.6c0.3,2.3-1.1,2-2.5,1.5c-11.5-4.3-23.1-8.5-34.4-13.1c-4.9-2-3.1-7.5-4.4-11.4
		c-0.8-2.4,2.1-3,3.7-4c8.5-5.2,17.1-10.2,25.6-15.5c3.2-2,4.4-1.4,5.1,2.3C244.7,294.9,247.1,308.2,249.5,321.6z"/>
	<path class="st10" d="M130.7,249.5c0.7,6.4,1.5,12.8,2.2,19.2c1.1,10.1-3,19.2-5.2,28.7c-2,8.9-4.6,17.6-6.7,26.5
		c-0.6,2.5-1.5,3.6-3.5,1.7c-3.4-3.3-7.7-5-11.5-7.7c-2.7-1.9-3.4-3.6-2.1-6.6c5.3-12.5,10.6-25.1,15.8-37.6
		c3.4-8.1,6.8-16.1,10.1-24.2C130.1,249.5,130.4,249.5,130.7,249.5z"/>
	<path class="st11" d="M270.9,226.3c0-13.9,0.1-27.6,0-41.2c0-2.7,0.6-3.9,3.6-3.8c6,0.2,12,0.1,18,0c2.1,0,3.6,0.5,4.3,2.5
		c0.1,0.3,0.3,0.6,0.5,0.9c6.2,10.6,6.2,10.6-1.5,20.4C289,213.7,282.9,223,270.9,226.3z"/>
	<path class="st10" d="M267.9,189.8c0,12.5,0.1,25,0,37.5c-0.1,5.3-4.2,8.9-6.6,13.2c-5.3,9.4-11.4,18.4-16.5,27.8
		c-3.1,5.7-8,8.4-14.3,10.6c12.1-29.8,24.2-59.6,36.4-89.4C267.2,189.5,267.6,189.6,267.9,189.8z"/>
	<path class="st9" d="M90.8,268.5c0-9.1,0-18.1,0-27.2c0-16.6,0-33.3,0-49.9c0-2.5,0.2-4.9,1.6-7.2c6.3-10.7,12.6-21.5,18.9-32.3
		c0.2-0.4,0.8-0.5,1.6-1.1c-7.1,39.5-14.1,78.6-21.2,117.6C91.4,268.5,91.1,268.5,90.8,268.5z"/>
	<path class="st11" d="M134.9,242.6c9.6-3.8,17.9-7.1,26.2-10.4c1.5-0.6,2.8-0.6,4.2,0.3c9.1,5.8,18.3,11.5,28.2,17.7
		c-7.5,4-14.2,7.7-21,11.3c-1,0.5-1.9,0.1-2.8-0.3C158.5,255.1,147.2,249.1,134.9,242.6z"/>
	<path class="st9" d="M58,275.5c0,15.2-0.1,30.5,0,45.7c0,2.7-1,2.9-3.3,2.5c-9-1.7-17.6-4.3-24.4-11.1c-1.6-1.5-2.7-2.4-0.7-4.7
		c9.2-10.8,18.3-21.8,27.4-32.7C57.3,275.3,57.7,275.4,58,275.5z"/>
	<path class="st11" d="M183.8,17.5c-1.5,3.7-4.9,5.7-7.7,8.1c-10.6,9.4-20.3,19.5-30.5,29.3c-1.5,1.4-2.6,3-3,5
		c-1.7-7-3.4-14.1-5.3-21.1c-0.5-1.9-0.4-3.1,1.7-3.9C153.9,29.2,168.8,23.3,183.8,17.5z"/>
	<path class="st11" d="M113.6,142.5c-8.4,14.4-16.1,27.5-24,41c-4.8-3.1-7.5-7.9-11.1-11.8c-1.2-1.2-0.1-2.1,0.7-3
		c6.9-8.1,13.6-16.4,20.8-24.2C103.2,140.8,108.1,143.5,113.6,142.5z"/>
	<path class="st10" d="M245.9,280.6c8.7,7.5,15.1,17.1,23.4,25c1.8,1.7,3.2,3.7,4.9,5.6c1.3,1.5,1.2,2.4-0.7,3.3
		c-6,2.8-12,5.7-18,8.5c-3.5,1.6-3.1-1.8-3.4-3.1c-1.9-9.4-3.7-18.8-5.1-28.3C246.4,287.9,245.2,284.3,245.9,280.6L245.9,280.6z"/>
	<path class="st10" d="M166.1,263.8c-8.9,2.6-17.7,5.2-26.6,7.7c-1.6,0.5-3.5,0.5-3.7-2c-0.7-6.9-1.4-13.8-2.1-20.7
		c-0.1-1.5-0.4-4,2.5-2.5c10.1,5.3,20,10.8,30,16.2C166.2,263,166.2,263.4,166.1,263.8z"/>
	<path class="st10" d="M245.8,280.6c-0.1-0.2-0.3-0.3-0.4-0.5C245.5,280.3,245.7,280.4,245.8,280.6
		C245.9,280.6,245.8,280.6,245.8,280.6z"/>
</g>
</svg>
