<?xml version="1.0" encoding="utf-8"?>
<!-- Generator: Adobe Illustrator 22.1.0, SVG Export Plug-In . SVG Version: 6.00 Build 0)  -->
<svg version="1.1" id="Layer_1" xmlns="http://www.w3.org/2000/svg" xmlns:xlink="http://www.w3.org/1999/xlink" x="0px" y="0px"
	 viewBox="0 0 350 350" style="enable-background:new 0 0 350 350;" xml:space="preserve">
<style type="text/css">
	.st0{fill:#663F7C;}
	.st1{fill:#D0D9DD;}
	.st2{fill:#AE8CBF;}
	.st3{fill:#FEFEFE;}
	.st4{fill:#168250;}
	.st5{fill:#80C898;}
	.st6{fill:#59BE89;}
	.st7{fill:#97D1AE;}
	.st8{fill:#135987;}
	.st9{fill:#6BA1D6;}
	.st10{fill:#4F78B8;}
	.st11{fill:#A7C4E2;}
	.st12{fill:#A8CF65;}
	.st13{fill:#90C756;}
	.st14{fill:#C75D19;}
	.st15{fill:#F9A83F;}
	.st16{fill:#B0233E;}
	.st17{fill:#F06D85;}
	.st18{fill:#EF4A6B;}
</style>
<g>
	<path class="st4" d="M37.9,286c2.5-17.1,5.1-34.3,7.6-51.4c4.8-33,9.5-66,14.2-99.1c0.5-3.3,1.8-6,3.9-8.6
		c28.3-34.2,56.5-68.5,84.9-102.7c5.6-6.7,11.7-11.8,21-13.4c15.4-2.5,30.6-6.6,45.9-10.3c4.2-1,7.1-0.4,8.5,4.1
		c0.2,0.6,0.8,1.1,1,1.6c5.5,15.1,14.4,28.4,20.4,43.2c5.9,14.8,13,29.1,19.5,43.6c13.2,29.3,26.3,58.8,39.7,88
		c3.4,7.5,3.1,15.5,3.8,23.3c2.2,24.9,4.1,49.8,6.1,74.6c0.2,2.5,0.1,4.8-1.2,7c-4.8,4.9-9.7,9.6-14.3,14.7c-3.6,4-7.7,6.9-12.7,8.7
		c-10.9,4.1-21.9,8-32.4,12.9c-16.5,7.7-33.4,11.6-51.5,9.9c-7.8-0.7-15.7,0.4-23.4-0.9c-35.2-6-70.5-12-105.7-18
		c-3.3-0.6-6.3-1.8-9-3.9c-7.5-5.6-14.9-11.3-22.5-16.7C39.3,290.9,38,288.9,37.9,286z M245.9,197.3c-0.2-0.2-0.5-0.6-0.6-0.5
		c-0.5,0.4-0.2,0.7,0.2,0.9c-0.1,1.7,0.8,3.1,1.5,4.6c8.6,19.1,17.3,38.1,25.9,57.2c4.8,10.6,9.8,21.2,15.3,33.1
		c0-2.6,0.1-3.7,0-4.7c-3.2-21.3-6.4-42.5-9.7-63.7c-0.4-2.3-0.6-4.7-2.9-6.3C265.6,211,255.8,204.2,245.9,197.3z M110.3,169.5
		c2.8,1.1,5.6,2.1,8.4,3.2c4.1,2.4,8.6,3.9,13,5.5c3.5,1.4,7,2.7,10.4,4.1c4.5,1.9,8.9,3.9,13.4,5.7c19.6,8.1,39.3,16,58.9,24.2
		c3.5,1.4,4.8,0.9,4.4-3.3c-0.6-5.8-0.8-11.6-1.2-17.4c-2.1-27.9-4.2-55.8-6.4-83.7c-1-12.1-1.3-24.2-3.1-36.2
		c0.6-2-0.6-3.3-1.8-4.5c-3.7-3.6-7.3-7.2-11-10.9c-5.3-6.3-11.2-11.9-17.1-17.6c-2.8-2.9-5.6-5.7-8.4-8.6c-2.4-2.5-4.8-5-7.2-7.6
		c-2.4-2.7-3.8-2.8-5.5,1.1C146.8,47.3,136.4,71,126,94.8c-9.5,21.7-18.8,43.4-28.4,65.1c-1.4,3.2-0.8,4.6,2.2,5.6
		C103.4,166.6,106.8,168.1,110.3,169.5z M231.9,31.8c-0.2-0.5,0-1.6-0.9-1.1c-0.6,0.3-0.1,1.1,0.4,1.5c-0.1,2.2,0.8,4.1,1.4,6.1
		c9.8,30.9,19.7,61.8,29.4,92.7c6.5,20.6,12.9,41.2,19.3,61.9c1.1,3.7,2.6,4.8,6,2.6c3.6-2.3,7.3-4.4,11.1-6.4
		c2.6-1.5,3.4-3.1,2-6.2C293.2,167,286,151,278.8,135c-10.5-23.3-21-46.7-31.5-70C242.2,53.9,237,42.9,231.9,31.8z M180.2,326.6
		c3.3,0.8,3.3-2,4-4c11-33.4,21.8-66.9,33-100.2c1.7-5.1,0.3-6.7-3.9-8.4c-12.4-4.8-24.8-9.9-37.2-15c-25.8-10.5-51.5-21-77.3-31.7
		c-2.8-1.2-3.8-0.5-4.2,2.5c-1.1,7.4-2.4,14.7-3.6,22c-6.4,37.3-12.8,74.5-19.3,111.8c-0.6,3.2,0,4.5,3.5,5.1
		c14.2,2.2,28.4,4.8,42.6,7.2C138.6,319.5,159.4,323.1,180.2,326.6z M220.6,8.9c-2.5,14.6-4.7,28.1-7.1,41.6
		c-1.8,9.8-3.9,19.6-0.4,29.5c1.8,5.2,3,10.6,4.3,16c7.8,30.5,15.7,61,23.5,91.5c0.5,1.8,0.8,3.7,2.6,5c10.6,7.4,21.2,15,31.8,22.5
		c1,0.7,2.6,1.8,2.9-0.3c1.1-6.1,4-12,2-18.5c-3.8-11.8-7.4-23.7-11.1-35.6c-14.2-44.9-28.3-89.9-42.5-134.8
		C224.9,20.5,223.7,15,220.6,8.9z M240.8,194.5c-6.2,7-12,13.7-17.9,20.4c-1.2,1.3-0.9,3.1-0.8,4.7c0.6,8.1,1.2,16.1,1.8,24.2
		c1.7,25.7,3.3,51.3,4.9,77c0.4,5.7,0.6,6,5.8,4c17.1-6.7,34.2-13.6,51.3-20.1c3.7-1.4,3.9-2.7,2.3-6.1c-9.8-21.2-19.4-42.5-29-63.7
		C253.1,221.4,247,208.1,240.8,194.5z M65.7,135.7c-0.5,0.4-1,0.7-1.4,1.1c-2.5,17.6-5.1,35.1-7.6,52.7c-3,21.1-6,42.2-9,63.3
		c-1.4,10.2-2.8,20.5-4.3,30.7c-0.4,2.9,0.4,5,2.7,6.7c6.5,4.7,13,9.6,19.5,14.4c2,1.5,3.3,1.7,3.8-1.4c0.8-5.3,1.8-10.5,2.7-15.7
		c6.2-35.8,12.4-71.6,18.6-107.3c2.6-14.9,2.6-14.8-7.9-25.8C76.9,148.2,71.3,141.9,65.7,135.7z M152.7,27.8
		c-0.3-0.2-0.5-0.3-0.8-0.5c-2.6,3.3-5.2,6.6-7.9,9.9c-25.1,30.3-50.2,60.7-75.4,90.9c-2.6,3.1-2.7,5.2,0.1,8.1
		c7.5,7.6,14.8,15.3,22.2,23c2.3,2.4,3.5,2.7,5.1-1.1c15.4-35.6,31-71.1,46.6-106.6C145.9,43.6,149.3,35.7,152.7,27.8z M219.1,223.9
		c-0.9,2.5-1.3,3.9-1.8,5.2c-4.5,13.8-9.1,27.6-13.6,41.3c-5.7,17.5-11.5,34.9-17.2,52.4c-0.7,2-1.9,4.4,2.2,4.3
		c11.6-0.2,23.2-0.1,34.7,0c2.9,0,3.3-1,3-3.8c-0.6-5.6-0.8-11.3-1.2-16.9c-1.3-20.8-2.5-41.6-4.1-62.4
		C220.7,237.8,221.3,231.4,219.1,223.9z M292.7,300.4c4.9-5.1,8.9-9.7,13.3-13.7c3.7-3.3,4.2-7.2,3.8-11.8
		c-1.9-22.4-3.7-44.8-5.6-67.2c-0.4-4.4-0.6-8.7-1-13.1c-0.3-3.4-1.3-5.2-4.9-2.8c-3.5,2.4-7.3,4.3-11,6.5c-1.3,0.8-3.2,1.4-3.5,3
		c-1.6,7.5-4.2,14.9-2.9,22.9c2.9,17.7,5.4,35.4,8.2,53.1C290.1,284.8,291.3,292.1,292.7,300.4z M218.6,7.3c0.4-2.5-0.6-2.7-2.7-2.2
		c-17.1,4-34.2,8-51.3,11.8c-3.6,0.8-2.7,2.1-0.8,3.9c3.1,3,6.1,6,9.2,9.1c10.8,11,21.6,22.1,32.4,33.1c0.8,0.8,1.5,2.4,3,1.9
		c1.3-0.5,0.8-2,0.9-3c0.9-4.8,1.7-9.6,2.5-14.3C214.1,34.1,216.4,20.7,218.6,7.3z M212.8,87.1c-0.3,0.1-0.6,0.3-0.8,0.4
		c3.1,41.3,6.3,82.6,9.5,125.3c5.8-6.7,10.6-12.5,15.7-18.1c1.9-2.1,2.3-4.1,1.5-7c-6.1-23.1-11.9-46.3-17.8-69.4
		C218.2,107.9,215.5,97.5,212.8,87.1z"/>
	<path class="st1" d="M37.9,286c0.1,3,1.4,5,3.9,6.7c7.6,5.4,15.1,11.1,22.5,16.7c2.7,2,5.7,3.3,9,3.9c35.2,6,70.5,12,105.7,18
		c7.8,1.3,15.7,0.2,23.4,0.9c18.1,1.7,35-2.2,51.5-9.9c10.5-4.9,21.5-8.8,32.4-12.9c5-1.9,9.1-4.7,12.7-8.7
		c4.6-5.1,9.5-9.8,14.3-14.7c7.9,3.5,15.9,6.6,22.2,13.2c4.6,4.9,5.2,12.1,0.9,17.4c-6,7.3-14.2,11.1-22.6,14.2
		c-18.8,7.1-38.4,11.1-58.2,13.8c-21.2,2.9-42.5,3.9-63.8,5.1c-16.6,0.9-33.1,0-49.6-0.6c-29.7-1.1-59.3-4.7-88.2-12.5
		c-11.7-3.2-23.4-7.1-33.6-14.3c-2.6-1.9-4.8-4.2-6.8-6.6c-3.5-4.4-3.6-9.9,0-14.2C19.9,293.4,28.4,288.8,37.9,286z"/>
	<path class="st12" d="M180.2,326.6c-20.8-3.6-41.6-7.1-62.5-10.7c-14.2-2.4-28.3-5-42.6-7.2c-3.5-0.5-4-1.9-3.5-5.1
		c6.5-37.2,12.9-74.5,19.3-111.8c1.3-7.3,2.6-14.6,3.6-22c0.4-3,1.4-3.6,4.2-2.5c25.7,10.6,51.5,21.1,77.3,31.7
		c12.4,5,24.7,10.1,37.2,15c4.2,1.6,5.6,3.3,3.9,8.4c-11.2,33.3-22,66.8-33,100.2C183.6,324.6,183.5,327.4,180.2,326.6z"/>
	<path class="st12" d="M208,71.5c1.8,12,2.1,24.1,3.1,36.2c2.3,27.9,4.3,55.8,6.4,83.7c0.4,5.8,0.6,11.6,1.2,17.4
		c0.5,4.2-0.9,4.7-4.4,3.3c-19.6-8.1-39.3-16.1-58.9-24.2c-4.5-1.8-8.9-3.8-13.4-5.7c0.9-1.7,1.6-3.5,2.6-5.2
		c16.8-28.9,33.6-57.9,50.6-86.6C199.2,84,203,77.3,208,71.5z"/>
	<path class="st12" d="M220.6,8.9c3,6.1,4.3,11.6,5.9,16.9c14.2,44.9,28.4,89.8,42.5,134.8c3.7,11.8,7.4,23.7,11.1,35.6
		c2.1,6.5-0.9,12.4-2,18.5c-0.4,2.1-2,1-2.9,0.3c-10.6-7.5-21.2-15-31.8-22.5c-1.8-1.3-2.1-3.1-2.6-5c-7.9-30.5-15.7-61-23.5-91.5
		c-1.4-5.3-2.5-10.8-4.3-16c-3.5-10-1.3-19.7,0.4-29.5C216,37,218.1,23.5,220.6,8.9z"/>
	<path class="st13" d="M240.8,194.5c6.3,13.6,12.4,26.9,18.4,40.2c9.7,21.2,19.3,42.5,29,63.7c1.6,3.4,1.4,4.7-2.3,6.1
		c-17.2,6.5-34.2,13.4-51.3,20.1c-5.2,2-5.4,1.7-5.8-4c-1.6-25.7-3.3-51.3-4.9-77c-0.5-8.1-1.2-16.1-1.8-24.2
		c-0.1-1.6-0.4-3.3,0.8-4.7C228.7,208.1,234.6,201.5,240.8,194.5z"/>
	<path class="st13" d="M65.7,135.7c5.7,6.2,11.2,12.5,17,18.5c10.5,11,10.5,10.9,7.9,25.8c-6.2,35.8-12.4,71.6-18.6,107.3
		c-0.9,5.2-1.9,10.5-2.7,15.7c-0.5,3.1-1.7,2.9-3.8,1.4c-6.5-4.8-12.9-9.7-19.5-14.4c-2.3-1.7-3.1-3.8-2.7-6.7
		c1.5-10.2,2.9-20.5,4.3-30.7c3-21.1,6-42.2,9-63.3c2.5-17.6,5.1-35.1,7.6-52.7C64.7,136.4,65.2,136.1,65.7,135.7z"/>
	<path class="st13" d="M152.7,27.8c-3.4,7.9-6.8,15.8-10.2,23.7c-15.5,35.5-31.2,71-46.6,106.6c-1.6,3.7-2.8,3.5-5.1,1.1
		c-7.4-7.7-14.7-15.4-22.2-23c-2.8-2.8-2.7-5-0.1-8.1c25.2-30.2,50.3-60.6,75.4-90.9c2.7-3.3,5.3-6.6,7.9-9.9
		C152.1,27.5,152.4,27.7,152.7,27.8z"/>
	<path class="st12" d="M178.1,38.5c5.8,5.7,11.8,11.3,17.1,17.6c-6.2,10.4-12.7,20.7-18.5,31.4c-10.7,19.5-21.2,39.1-31.3,58.9
		c-5.2,10.2-10.9,20.3-13.6,31.8c-4.4-1.7-8.9-3.1-13-5.5c2.1-8,5.6-15.4,8.7-23c11.7-28.8,24.1-57.2,37.7-85
		C169.4,55.9,174.7,47.7,178.1,38.5z"/>
	<path class="st3" d="M131.7,178.2c2.7-11.4,8.4-21.5,13.6-31.8c10.1-19.8,20.6-39.4,31.3-58.9c5.8-10.7,12.3-20.9,18.5-31.4
		c3.7,3.6,7.3,7.2,11,10.9c1.3,1.2,2.4,2.5,1.8,4.5c-5,5.7-8.8,12.5-12.6,19c-17.1,28.7-33.8,57.7-50.6,86.6c-1,1.7-1.7,3.4-2.6,5.2
		C138.7,180.9,135.2,179.6,131.7,178.2z"/>
	<path class="st12" d="M219.1,223.9c2.2,7.5,1.6,13.9,2.1,20.1c1.7,20.8,2.8,41.6,4.1,62.4c0.4,5.6,0.5,11.3,1.2,16.9
		c0.3,2.7-0.1,3.8-3,3.8c-11.6-0.1-23.2-0.2-34.7,0c-4.1,0.1-2.9-2.3-2.2-4.3c5.7-17.5,11.4-34.9,17.2-52.4
		c4.5-13.8,9.1-27.6,13.6-41.3C217.8,227.8,218.3,226.5,219.1,223.9z"/>
	<path class="st13" d="M292.7,300.4c-1.4-8.4-2.6-15.6-3.7-22.9c-2.7-17.7-5.3-35.4-8.2-53.1c-1.3-8,1.3-15.4,2.9-22.9
		c0.3-1.7,2.2-2.2,3.5-3c3.6-2.2,7.5-4.2,11-6.5c3.6-2.5,4.6-0.6,4.9,2.8c0.4,4.3,0.7,8.7,1,13.1c1.8,22.4,3.7,44.8,5.6,67.2
		c0.4,4.6-0.1,8.5-3.8,11.8C301.6,290.7,297.6,295.3,292.7,300.4z"/>
	<path class="st13" d="M231.9,31.8c5.1,11.1,10.3,22.1,15.4,33.3c10.6,23.3,21,46.7,31.5,70c7.2,16,14.4,32,21.8,47.9
		c1.5,3.1,0.6,4.7-2,6.2c-3.7,2.1-7.4,4.1-11.1,6.4c-3.4,2.1-4.9,1.1-6-2.6c-6.3-20.7-12.7-41.3-19.3-61.9
		c-9.8-30.9-19.6-61.8-29.4-92.7c-0.6-2-1.5-3.9-1.4-6.1C231.6,32.1,231.7,31.9,231.9,31.8z"/>
	<path class="st12" d="M110.3,169.5c-3.5-1.4-7-2.9-10.5-4.1c-3-1-3.7-2.3-2.2-5.6c9.6-21.6,19-43.4,28.4-65.1
		c10.4-23.8,20.9-47.5,31.1-71.3c1.7-3.9,3-3.8,5.5-1.1c2.3,2.6,4.8,5.1,7.2,7.6c-1.8,0.5-2.1,2.2-2.9,3.6
		c-14.5,27.2-27.3,55.3-38,84.3C122.5,135,116.5,152.3,110.3,169.5z"/>
	<path class="st3" d="M110.3,169.5c6.2-17.2,12.2-34.5,18.5-51.6c10.7-29,23.5-57.1,38-84.3c0.7-1.4,1.1-3.1,2.9-3.6
		c2.8,2.9,5.6,5.7,8.4,8.6c-3.4,9.2-8.7,17.4-13,26.1c-13.6,27.8-26,56.3-37.7,85c-3.1,7.6-6.6,15-8.7,23
		C115.9,171.6,113.1,170.5,110.3,169.5z"/>
	<path class="st12" d="M218.6,7.3c-2.3,13.4-4.5,26.8-6.8,40.2c-0.8,4.8-1.6,9.6-2.5,14.3c-0.2,1.1,0.3,2.6-0.9,3
		c-1.5,0.5-2.2-1-3-1.9c-10.8-11-21.6-22.1-32.4-33.1c-3-3.1-6.1-6.1-9.2-9.1c-1.9-1.8-2.8-3.1,0.8-3.9c17.1-3.8,34.2-7.8,51.3-11.8
		C218,4.6,219,4.9,218.6,7.3z"/>
	<path class="st13" d="M212.8,87.1c2.7,10.4,5.4,20.8,8.1,31.2c5.9,23.1,11.7,46.3,17.8,69.4c0.8,2.9,0.4,4.8-1.5,7
		c-5.1,5.6-9.9,11.4-15.7,18.1c-3.2-42.7-6.4-84-9.5-125.3C212.2,87.4,212.5,87.2,212.8,87.1z"/>
	<path class="st12" d="M245.9,197.3c9.9,6.8,19.7,13.7,29.7,20.5c2.3,1.6,2.6,4,2.9,6.3c3.3,21.2,6.5,42.5,9.7,63.7
		c0.2,1.1,0,2.2,0,4.7c-5.5-11.9-10.4-22.5-15.3-33.1c-8.7-19-17.3-38.1-25.9-57.2c-0.7-1.4-1.6-2.8-1.5-4.6
		C245.6,197.6,245.8,197.4,245.9,197.3z"/>
	<path class="st13" d="M231.4,32.2c-0.5-0.4-1-1.2-0.4-1.5c0.8-0.4,0.6,0.7,0.9,1.1C231.7,31.9,231.6,32.1,231.4,32.2z"/>
	<path class="st12" d="M245.5,197.7c-0.3-0.3-0.7-0.5-0.2-0.9c0,0,0.4,0.3,0.6,0.5C245.8,197.4,245.6,197.6,245.5,197.7z"/>
</g>
</svg>
