<?xml version="1.0" encoding="utf-8"?>
<!-- Generator: Adobe Illustrator 22.1.0, SVG Export Plug-In . SVG Version: 6.00 Build 0)  -->
<svg version="1.1" id="Layer_1" xmlns="http://www.w3.org/2000/svg" xmlns:xlink="http://www.w3.org/1999/xlink" x="0px" y="0px"
	 viewBox="0 0 314.9 397.5" style="enable-background:new 0 0 314.9 397.5;" xml:space="preserve">
<style type="text/css">
	.st0{fill:#663F7C;}
	.st1{fill:#D0D9DD;}
	.st2{fill:#AE8CBF;}
	.st3{fill:#FEFEFE;}
	.st4{fill:#168250;}
	.st5{fill:#80C898;}
	.st6{fill:#59BE89;}
	.st7{fill:#97D1AE;}
	.st8{fill:#135987;}
	.st9{fill:#6BA1D6;}
	.st10{fill:#4F78B8;}
	.st11{fill:#A7C4E2;}
	.st12{fill:#A8CF65;}
	.st13{fill:#90C756;}
	.st14{fill:#C75D19;}
	.st15{fill:#F9A83F;}
	.st16{fill:#B0233E;}
	.st17{fill:#F06D85;}
	.st18{fill:#EF4A6B;}
</style>
<g>
	<path class="st0" d="M27.2,331.4C22,317.9,17,304.3,11.4,291c-2.2-5.2-1.3-9.2,1.6-13.4c11.4-16.2,22.9-32.3,34.3-48.6
		c1.6-2.2,3.6-3.2,6.1-3.9c19.3-5.6,38.6-11.4,58-16.9c3-0.9,4.5-2,5-5.5c6-41,12.4-82,18.6-123c0.8-5.6,3-10,7.3-14.1
		c21-20,41.7-40.2,62.6-60.4c7-6.8,9-6.9,16.4-1c7.7,6.1,15.1,12.7,23.3,18.1c6.1,4,8.8,9.4,10.3,16c10.4,46.8,20.7,93.6,31,140.4
		c1,4.4-1,8.2-2.3,12c-7.7,21.8-15.6,43.6-23.4,65.3c-0.4,1.2-0.8,2.5-1.5,4.8c6-1.8,11.3-3.2,16.5-4.9c7.7-2.3,10.5-1,13.5,6.3
		c3.1,7.9,6.1,15.8,9.4,23.7c1.2,2.8,1.1,5.3,0,8.1c-4,9.9-7.8,19.8-11.9,29.7c-1.2,2.9-1.4,5.3,0.9,7.7c1.1,3.9-0.4,7.1-2.7,10.1
		c-4.7,6.2-7.5,14.4-14.6,18c-7.9,4-16.9,6.9-25.9,6.6c-11.6-0.3-23.1-2.4-34.7-3.9c-4-0.5-5.4-3.5-4.1-7.4c0.7-2,2-3.7,1.8-6.3
		c-10.4,6.8-22.3,10.8-29.8,21c-1.6,2.2-4.1,2.1-6.4,2.2c-11.1,0.5-22.3,1-33.4,1.5c-3.7,0.2-6.8-1-9.5-3.5c-1.7-1.6-3.7-3-5.1-4.8
		c-3.1-4.1-6.6-4.1-10.8-1.8c-4.1,2.3-8.4,3.6-13.4,2.9c-18.4-2.8-36.9-5.3-55.3-7.8c-3.6-0.5-5.7-2-7-5.4
		C33.3,345.8,30.2,338.6,27.2,331.4z M85,251.3L85,251.3c0.7,0,1.1-0.3,1.1-0.9l0,0c17.2-9.9,33.8-20.4,40.4-41.5
		c-4.7,1.3-9.1,2.6-13.5,3.8c-4.7,1.5-9.4,3-14.1,4.5c-3.6,1.1-7.2,2.1-10.8,3.2c-0.8,0.1-1.8-0.3-2,0.9l0-0.1
		c-6.2,1-12.1,2.7-17.9,5.2c-4.6,0.1-8.6,2.5-13,3.3c-2.3,0.4-3.7,1.8-5,3.7c-7.6,10.9-15.4,21.7-22.9,32.6c-3.1,4.6-7,8.7-9.8,15.2
		c7.3-2.5,13.5-4.6,19.7-6.7c4.7-1.6,9.5-2.7,13.8-5.3c6-1.1,11.7-2.8,17.1-5.7c0.4-0.4,0.7-0.8,1.1-1.2l0,0.1
		c5.4-2.8,10.1-6.5,14.9-10.2C84.3,252,84.6,251.7,85,251.3z M200.2,49.4c1.4-4.3,2.9-8.5,2.8-13.1c3-6.7,3.5-14.1,5.7-21.1
		c0.3-2.4,1.8-4.7,1.1-7.5c-0.7,0.3-1,0.4-1.3,0.6c-21.7,21-43.3,42.1-65.1,63c-2.8,2.7-2.2,4.7,0.2,6.9c0.4,3,1.9,5.7,3.2,8.4
		c1,2.3,1.9,4.5,2.9,6.8c0.4,1,0.8,1.9,1.3,2.9c1.3,3,2.7,6,3.9,9.1c1.1,3,2.6,3.7,5.5,1.9c9.3-5.7,18.8-11.2,28.1-16.8
		c1.3-0.8,2.7-1.4,3-3.1c1.6-8.4,4.7-16.5,5.4-25.1C198.8,58.2,199.8,53.9,200.2,49.4z M144.9,333.2c-13.9,1.8-27.5,4.8-41.9,7.7
		c10.3,9.2,19.8,17.7,29.7,26.5c1.1-2.6,2-4.6,2.7-6.6c3.3-9,7.7-17.7,10-27.1c0.1-0.3,0.2-0.5,0.3-0.8
		C145.4,333,145.1,333.1,144.9,333.2z M259.1,314.4c-0.1-1.1,1.8-1.4,1.1-3c-10,3.4-20,6.8-29.9,10.3c0.1,0.5,0.2,1,0.3,1.5
		c2.9,0.2,6-0.2,8.7,0.6c5,1.5,8.4-0.6,12-3.6C253.6,318,255.6,315.1,259.1,314.4c-0.3,5.1-5.1,6.4-8.2,9.1
		c-2.2,1.9-2.4,3.2-1.2,5.8c4.1,8.8,10.4,15.7,17.1,22.5c1.6,1.6,2.4,1.9,3.7-0.1c3.4-4.9,7-9.7,10.6-14.4c1.3-1.8,0.9-3.3-0.1-5.1
		c-3.5-6.4-7-12.8-10.3-19.4c-1.6-3.2-3.4-2.7-5.5-0.8C263.4,313.6,261.8,315.3,259.1,314.4z M106.4,336.8c5,0,9.9-1.5,14.8-2.4
		c27.5-4.9,27.5-4.9,45.7-23.2c0.7-0.7,2.1-1.3,1.3-3c-10.7,0-21.5,0-32.4,0c-1.9,0-3.1,0.8-4.3,2.1c-8.6,8.6-17.2,17.2-25.8,25.8
		c-0.2,0.3-0.6,0.7-0.5,0.8C105.6,337.5,106.1,337.2,106.4,336.8z M101.8,361.5c3.8,0,7.7-2.9,12-4.5c2.2-0.8,0.5-2.1-0.4-3
		c-3.8-3.5-7.5-7.1-11.5-10.4c-3.1-2.6-3.4-4.5-0.2-7.5c8.1-7.7,16.2-15.3,23.7-23.6c4.7-5.2,9.7-8.3,16.8-7.1
		c3.1,0.5,4.4-0.4,2.6-3.7c-1.5-2.6-2.5-5.4-3.8-8.1c-8.4-18.5-16.9-36.9-25.2-55.4c-1.3-2.9-2.3-2.9-4.6-1.3
		c-8.2,5.9-16.4,11.9-24.9,17.4c-8.4,5.5-15.9,12.5-26,15.5c-14,4.2-27.8,9.1-41.6,13.8c-2.2,0.7-4.3,1-2.8,4.7
		c8.3,20.5,16.4,41.1,24.4,61.7c0.9,2.2,2.1,3.4,4.7,3.6c6.1,0.6,12.2,1.6,18.2,2.5C75.7,357.8,88.2,359.6,101.8,361.5z
		 M157.3,114.6c-0.5,0.8-0.9,1.2-1.1,1.6c-7.6,28.8-15.3,57.5-22.9,86.3c-0.7,2.5-0.6,4.9,0.2,7.4c6.1,18.8,12.2,37.7,18.3,56.5
		c1.2,3.7,2.5,7.4,4,12c1.1-2,1.8-2.9,2-4c3.8-13.4,9.3-26.3,11.8-40.1c5.2-28.8,10.8-57.5,16.2-86.2c0.4-2,0.8-4.1-1.1-6
		C175.7,133,166.6,123.8,157.3,114.6z M229.4,215.5c-0.9-8-1.1-14-1.2-20c-0.3-17.1-0.8-34.2-1-51.4c0-3.2-1-3.9-4.1-3.4
		c-9.9,1.4-19.8,2.5-29.7,3.5c-2.7,0.3-4,1-4.5,4c-5.5,29.9-11.2,59.7-17,89.5c-0.8,4.1,0.1,4.2,3.5,2.9
		c15.8-6.1,31.6-12.2,47.6-17.9C227.7,221,230.5,218.9,229.4,215.5z M227.7,135.5c6.8-34.8,13.3-68.2,19.9-101.6
		c0.4-2.2-0.6-2.9-1.9-4c-9.4-7.4-18.9-14.7-28.2-22.2c-2.9-2.3-3.9-2.6-4.8,1.6c-5.8,25.7-11.9,51.4-18,77.1
		c-0.6,2.6-0.2,4.4,1.3,6.4c3.8,5,7.6,10.1,11.3,15.2C213.8,116.8,220.3,125.5,227.7,135.5z M219.2,293.8c0-0.6-1.5-1.5-2.7-2.6
		c-7.1-6.8-14.2-13.5-21.4-20.3c-7.1-6.8-14.2-13.6-21.4-20.3c-1.6-1.5-3.6-4.4-5.2,0.4c-5.5,17-11.1,33.9-16.8,50.8
		c-1.1,3.4,0.3,3.7,3,3.6c5-0.1,10,0.1,15-0.1c3.3-0.1,5,0.7,5.6,4.5c2.2,13.9,4.9,27.8,7.3,41.7c0.6,3.4,1.3,4.7,5,2.4
		c7-4.4,14.3-8.6,21.6-12.5c3.4-1.8,4.8-4,5-7.8c0.3-6.1,1.3-12.2,1.8-18.3C216.4,308.6,217.8,301.9,219.2,293.8z M220.2,290
		c1.2-9.5,2.3-17.9,3.4-26.2c1.5-11.5,3.1-23,4.5-34.6c0.6-5.2,0.1-5.4-5-3.5c-6.8,2.6-13.7,5.1-20.6,7.7c-10,3.8-20,7.6-30.6,11.7
		C188.2,259.8,204.4,273.6,220.2,290z M192.5,141.5c9.7-1,19.5-2.1,29.2-3.1c3.8-0.4,3.3-2,1.5-4.5c-9.8-13.1-19.5-26.1-29.1-39.3
		c-1.6-2.3-2.8-2.5-5.2-1c-9,5.4-18,10.7-27.1,15.9c-2.7,1.5-3.2,2.6-0.7,5c8.5,8.2,16.9,16.6,25.1,25
		C188.2,141.4,190.1,142,192.5,141.5z M140.3,78.7c-1.2,7.8-2.3,14.2-3.2,20.5c-3.6,23.6-7.2,47.3-10.7,70.9
		c-1.7,11.2-3.4,22.3-5,33.5c-0.2,1.3-1.4,3.9,1.7,3.3c3.4-0.6,6.7-0.9,8-5.8c7.4-28.8,15.2-57.5,22.8-86.2c0.4-1.6,0.8-3.3,0.1-4.9
		C149.6,100,145.2,90,140.3,78.7z M218.9,322.3c11.6-3.9,22.4-7.6,33.2-11.1c2.6-0.9,3.2-2.6,2.9-5c-0.7-6.1-1.3-12.2-2-18.3
		c-1.5-13.6-2.9-27.1-4.5-41.4c-5.5,7.6-8.9,15.6-12.7,23.2c-5.4,10.7-13.4,20.3-14.3,33C221,309.1,219.8,315.4,218.9,322.3z
		 M130.4,209.7c-4.4,7.6-7.9,14-11.7,20.2c-1.4,2.3-1.5,3.8-0.4,6.3c6.9,14.9,13.6,30,20.4,44.9c3.1,6.9,6.3,13.7,9.8,21.3
		c1.9-5.7,3.6-10.6,5.2-15.5c0.5-1.6,0.6-3.3,0.1-4.9C146.1,258.4,138.5,234.8,130.4,209.7z M226.1,325.4c-1.4,0.1-3.9-1-5.1,2.1
		c-3.5,9-7,18-10.5,26.9c-0.8,2.2-0.1,2.9,2.1,3.2c9.7,1.1,19.4,2.5,29.1,3.7c2,0.3,2.9-0.4,3.5-2.4c1.5-4.9,3.4-9.7,5-14.6
		c1.3-3.8-2-14.7-5.2-17.1c-0.6-0.5-1.5-0.6-2.3-0.7C237.6,326.1,232.2,325.8,226.1,325.4z M231.1,150.1c0,8.3-0.1,17,0,25.8
		c0.2,13.9,0.6,27.9,1,41.8c0,1.5,0,3,1.2,4.2c4.7,4.6,9.3,9.3,14.8,14.8c0.7-9.7,1.5-18.2,1.8-26.7c0.1-3.1,1.7-6.3,0.6-9.3
		C244,183.6,237.4,166.6,231.1,150.1z M139.5,368.1c2.6-0.2,5.3-0.6,7.9-0.6c7.8-0.2,15.6-0.1,23.4-1c4.8-0.5,5.8-5,8.7-7.5
		c0.7-0.6-0.5-1.3-1.1-1.8c-8.9-7.3-17.7-14.5-26.6-21.8c-1.7-1.4-2.8-1.9-3.8,0.9c-3.5,9.5-7.3,18.9-11.1,28.3
		C135.8,367.4,136.3,368.6,139.5,368.1z M180.2,354.6c-0.6-2.5-0.9-3.7-1.1-5c-2.1-12.1-4.1-24.1-6.1-36.2c-0.3-1.7-0.7-3.4-2.7-1.4
		c-5.8,5.7-11.6,11.4-17.3,17.1c-1,0.9-2,1.8-0.3,3.1C161.5,339.3,170.3,346.6,180.2,354.6z M231.6,224.8c-2.6,20.4-5,39.5-7.5,58.5
		c7.8-13.2,14.9-26.7,22-40.1c0.7-1.4,1.3-2.7-0.1-4.1C241.4,234.6,236.9,230.1,231.6,224.8z M280.1,259.9
		c-7.2,2.1-12.7,3.7-18.2,5.4c-8,2.5-8,2.5-7,11c0.1,1.2,0.1,2.3,0.2,3.5c0.9,8,1.9,16,2.8,24c0.4,0.1,0.7,0.1,1.1,0.2
		C265.8,289.8,272.6,275.5,280.1,259.9z M247.9,360.6c5.7-1.4,10.3-2.5,14.9-3.7c2.2-0.6,2.5-1.8,0.9-3.5c-2.5-2.6-4.9-5.4-7.3-8.1
		c-1.7-1.9-2.7-1.5-3.4,0.7C251.4,350.5,249.8,355,247.9,360.6z"/>
	<path class="st1" d="M27.2,331.4c3,7.2,6,14.4,8.8,21.6c1.3,3.4,3.4,4.9,7,5.4c18.5,2.5,36.9,5,55.3,7.8c5,0.7,9.3-0.6,13.4-2.9
		c4.2-2.3,7.6-2.3,10.8,1.8c1.4,1.8,3.4,3.2,5.1,4.8c2.7,2.5,5.9,3.7,9.5,3.5c11.1-0.5,22.3-1,33.4-1.5c2.3-0.1,4.8-0.1,6.4-2.2
		c7.5-10.2,19.4-14.3,29.8-21c0.2,2.6-1.1,4.4-1.8,6.3c-1.3,3.9,0.1,6.8,4.1,7.4c11.5,1.5,23.1,3.6,34.7,3.9
		c8.9,0.2,17.9-2.6,25.9-6.6c7.1-3.6,9.9-11.8,14.6-18c2.3-3,3.8-6.2,2.7-10.1c9.6,0.1,25.3,11.1,27.6,20.1c1.7,7-2.6,12.1-7.6,16.2
		c-7.8,6.3-17,10.3-26.5,13.3c-21.2,6.8-43.1,10.8-65.2,13c-11.4,1.1-22.7,2.6-34.2,2.3c-9.5-0.3-18.9,1.5-28.4,0.9
		c-25.6-1.5-51.3-2.1-76.7-6.6c-15.6-2.8-30.9-6.1-45.8-11.3c-7.8-2.7-15.6-6.1-21.8-11.7c-9.2-8.3-11.1-14.7-3.7-23
		C10.6,338,18,333.1,27.2,331.4z"/>
	<path class="st2" d="M101.8,361.5c-13.6-1.9-26.1-3.7-38.6-5.4c-6.1-0.9-12.1-1.9-18.2-2.5c-2.6-0.2-3.8-1.4-4.7-3.6
		c-8.1-20.6-16.1-41.2-24.4-61.7c-1.5-3.6,0.6-3.9,2.8-4.7c13.9-4.7,27.6-9.6,41.6-13.8c10.1-3,17.5-10,26-15.5
		c8.5-5.5,16.7-11.5,24.9-17.4c2.3-1.7,3.4-1.6,4.6,1.3c8.3,18.5,16.8,36.9,25.2,55.4c1.2,2.7,2.3,5.5,3.8,8.1
		c1.8,3.3,0.6,4.3-2.6,3.7c-7.2-1.2-12.1,1.8-16.8,7.1c-7.5,8.2-15.6,15.9-23.7,23.6c-3.2,3-2.9,4.9,0.2,7.5
		c4,3.3,7.7,6.9,11.5,10.4c0.9,0.8,2.6,2.1,0.4,3C109.5,358.6,105.6,361.5,101.8,361.5z"/>
	<path class="st2" d="M157.3,114.6c9.3,9.3,18.3,18.4,27.5,27.4c1.9,1.9,1.5,4,1.1,6c-5.4,28.7-11,57.4-16.2,86.2
		c-2.5,13.8-8,26.7-11.8,40.1c-0.3,1-1,2-2,4c-1.6-4.6-2.9-8.3-4-12c-6.1-18.8-12.1-37.7-18.3-56.5c-0.8-2.5-0.9-4.9-0.2-7.4
		c7.6-28.8,15.3-57.5,22.9-86.3C156.4,115.8,156.8,115.4,157.3,114.6z"/>
	<path class="st2" d="M229.4,215.5c1.1,3.4-1.7,5.5-6.5,7.2c-16,5.7-31.8,11.8-47.6,17.9c-3.4,1.3-4.3,1.1-3.5-2.9
		c5.8-29.8,11.5-59.6,17-89.5c0.5-2.9,1.8-3.7,4.5-4c9.9-1,19.8-2.1,29.7-3.5c3.2-0.5,4.1,0.2,4.1,3.4c0.3,17.1,0.8,34.2,1,51.4
		C228.3,201.5,228.6,207.5,229.4,215.5z"/>
	<path class="st2" d="M227.7,135.5c-7.4-10-13.9-18.8-20.5-27.5c-3.8-5.1-7.5-10.2-11.3-15.2c-1.5-2-2-3.8-1.3-6.4
		c6.2-25.7,12.2-51.3,18-77.1c1-4.2,2-3.9,4.8-1.6c9.3,7.5,18.7,14.9,28.2,22.2c1.4,1.1,2.4,1.8,1.9,4
		C241,67.3,234.5,100.7,227.7,135.5z"/>
	<path class="st2" d="M219.2,293.8c-1.4,8.1-2.7,14.8-3.3,21.6c-0.5,6.1-1.5,12.2-1.8,18.3c-0.2,3.8-1.6,6-5,7.8
		c-7.3,3.9-14.6,8-21.6,12.5c-3.6,2.3-4.4,1-5-2.4c-2.4-13.9-5.1-27.8-7.3-41.7c-0.6-3.8-2.3-4.6-5.6-4.5c-5,0.2-10,0-15,0.1
		c-2.7,0-4.1-0.3-3-3.6c5.7-16.9,11.3-33.8,16.8-50.8c1.6-4.8,3.5-1.9,5.2-0.4c7.2,6.7,14.3,13.5,21.4,20.3
		c7.1,6.8,14.3,13.5,21.4,20.3C217.6,292.3,219.2,293.3,219.2,293.8z"/>
	<path class="st2" d="M220.2,290c-15.7-16.4-31.9-30.2-48.3-45c10.6-4.1,20.6-7.9,30.6-11.7c6.8-2.6,13.7-5.1,20.6-7.7
		c5.1-1.9,5.6-1.7,5,3.5c-1.4,11.5-3,23-4.5,34.6C222.5,272.1,221.4,280.5,220.2,290z"/>
	<path class="st2" d="M192.5,141.5c-2.5,0.5-4.4-0.1-6.3-2c-8.3-8.4-16.6-16.8-25.1-25c-2.5-2.4-2-3.5,0.7-5
		c9.1-5.2,18.2-10.5,27.1-15.9c2.4-1.5,3.6-1.2,5.2,1c9.6,13.2,19.3,26.3,29.1,39.3c1.8,2.5,2.3,4.1-1.5,4.5
		C212,139.4,202.3,140.4,192.5,141.5z"/>
	<path class="st2" d="M140.3,78.7c4.9,11.3,9.3,21.3,13.6,31.3c0.7,1.6,0.3,3.3-0.1,4.9c-7.7,28.7-15.5,57.4-22.8,86.2
		c-1.2,4.9-4.6,5.2-8,5.8c-3.1,0.6-1.9-2.1-1.7-3.3c1.6-11.2,3.3-22.3,5-33.5c3.6-23.6,7.2-47.3,10.7-70.9
		C138,92.9,139.1,86.5,140.3,78.7z"/>
	<path class="st2" d="M218.9,322.3c0.9-6.9,2.1-13.2,2.6-19.6c1-12.7,9-22.3,14.3-33c3.8-7.6,7.2-15.6,12.7-23.2
		c1.6,14.3,3,27.9,4.5,41.4c0.7,6.1,1.3,12.2,2,18.3c0.3,2.4-0.3,4.1-2.9,5C241.3,314.8,230.5,318.4,218.9,322.3z"/>
	<path class="st2" d="M130.4,209.7c8.1,25,15.8,48.7,23.4,72.4c0.5,1.6,0.5,3.3-0.1,4.9c-1.6,4.9-3.3,9.7-5.2,15.5
		c-3.5-7.5-6.7-14.4-9.8-21.3c-6.8-15-13.4-30-20.4-44.9c-1.2-2.5-1-4.1,0.4-6.3C122.5,223.7,126,217.3,130.4,209.7z"/>
	<path class="st2" d="M226.1,325.4c6.1,0.4,11.4,0.8,16.7,1.2c0.8,0.1,1.7,0.2,2.3,0.7c3.2,2.3,6.5,13.3,5.2,17.1
		c-1.7,4.9-3.6,9.7-5,14.6c-0.6,2.1-1.6,2.7-3.5,2.4c-9.7-1.3-19.4-2.6-29.1-3.7c-2.3-0.3-3-1-2.1-3.2c3.5-9,7-17.9,10.5-26.9
		C222.2,324.4,224.8,325.5,226.1,325.4z"/>
	<path class="st2" d="M231.1,150.1c6.3,16.5,12.9,33.5,19.4,50.6c1.2,3-0.5,6.2-0.6,9.3c-0.3,8.5-1.1,17.1-1.8,26.7
		c-5.5-5.5-10.2-10.2-14.8-14.8c-1.2-1.2-1.1-2.7-1.2-4.2c-0.3-13.9-0.7-27.9-1-41.8C231,167.2,231.1,158.4,231.1,150.1z"/>
	<path class="st2" d="M105.7,336.1c8.6-8.6,17.2-17.1,25.8-25.8c1.2-1.2,2.4-2.1,4.3-2.1c10.8,0.1,21.6,0,32.4,0
		c0.8,1.7-0.5,2.2-1.3,3c-18.2,18.3-18.2,18.3-45.7,23.2c-4.9,0.9-9.7,2.3-14.8,2.4C106.2,336.6,106,336.3,105.7,336.1z"/>
	<path class="st2" d="M139.5,368.1c-3.2,0.5-3.8-0.7-2.6-3.6c3.8-9.4,7.6-18.8,11.1-28.3c1-2.8,2.1-2.3,3.8-0.9
		c8.8,7.3,17.7,14.5,26.6,21.8c0.6,0.5,1.9,1.2,1.1,1.8c-2.9,2.5-3.9,7-8.7,7.5c-7.8,0.9-15.6,0.8-23.4,1
		C144.8,367.5,142.2,367.9,139.5,368.1z"/>
	<path class="st3" d="M208.7,15.3c-2.1,7-2.6,14.4-5.7,21.1c-1.3,0-2.1,0.9-3,1.7c-9.8,9.2-19.6,18.4-29.5,27.4
		c-7.9,7.1-15.2,14.8-23.6,21.3c-1.4-2.7-2.8-5.3-3.2-8.4c2.8-0.8,4.2-3.2,5.9-5.1c14.1-15,28.4-29.7,43.2-44
		C197.9,24.4,202.5,18.9,208.7,15.3z"/>
	<path class="st2" d="M259.1,314.4c2.7,0.9,4.4-0.8,6.1-2.4c2.1-1.9,3.9-2.4,5.5,0.8c3.3,6.5,6.8,13,10.3,19.4
		c1,1.8,1.4,3.3,0.1,5.1c-3.6,4.8-7.1,9.6-10.6,14.4c-1.4,2-2.1,1.7-3.7,0.1c-6.7-6.8-13-13.7-17.1-22.5c-1.2-2.6-1-3.9,1.2-5.8
		C253.9,320.9,258.7,319.6,259.1,314.4L259.1,314.4z"/>
	<path class="st2" d="M197.1,62.4c-0.7,8.6-3.9,16.7-5.4,25.1c-0.3,1.7-1.8,2.3-3,3.1c-9.4,5.6-18.8,11.1-28.1,16.8
		c-2.9,1.8-4.4,1.1-5.5-1.9c-1.2-3.1-2.6-6.1-3.9-9.1c2.4-0.1,3.8-1.9,5.5-3.1c6.7-5.1,13.2-10.6,19.9-15.6
		C183.4,72.6,189.4,66.5,197.1,62.4z"/>
	<path class="st2" d="M145.4,333.7c-2.4,9.4-6.7,18-10,27.1c-0.7,2-1.6,4-2.7,6.6c-9.8-8.8-19.4-17.3-29.7-26.5
		c14.4-2.9,28-5.9,41.9-7.7C145,333.4,145.2,333.5,145.4,333.7z"/>
	<path class="st2" d="M37.2,274.6c-6.2,2.1-12.4,4.2-19.7,6.7c2.8-6.5,6.6-10.6,9.8-15.2c7.5-10.9,15.3-21.7,22.9-32.6
		c1.3-1.9,2.7-3.3,5-3.7c4.4-0.8,8.4-3.2,13-3.3c-0.5,1-1,2.1-1.6,3c-9.3,13.5-18.7,27-27.9,40.6C37.8,271.3,35.7,272.5,37.2,274.6z
		"/>
	<path class="st3" d="M37.2,274.6c-1.5-2.1,0.6-3.3,1.4-4.5c9.2-13.6,18.6-27.1,27.9-40.6c0.6-0.9,1.1-2,1.6-3
		c5.7-2.5,11.7-4.2,17.9-5.2c0.7,2-0.8,3.1-1.8,4.4c-6.4,8.2-13.1,16.2-19.3,24.7c-4.6,6.4-11.1,11.4-14,19.1
		C46.7,271.9,41.9,273,37.2,274.6z"/>
	<path class="st2" d="M180.2,354.6c-9.9-8-18.7-15.2-27.6-22.4c-1.7-1.4-0.6-2.2,0.3-3.1c5.8-5.7,11.5-11.5,17.3-17.1
		c2-1.9,2.4-0.2,2.7,1.4c2,12.1,4.1,24.1,6.1,36.2C179.3,350.8,179.6,352.1,180.2,354.6z"/>
	<path class="st2" d="M231.6,224.8c5.3,5.3,9.8,9.8,14.4,14.3c1.4,1.4,0.8,2.7,0.1,4.1c-7.1,13.5-14.2,26.9-22,40.1
		C226.6,264.2,229,245.2,231.6,224.8z"/>
	<path class="st2" d="M51,269.4c2.8-7.7,9.3-12.7,14-19.1c6.2-8.4,12.9-16.4,19.3-24.7c1-1.2,2.4-2.4,1.8-4.4c0,0,0,0.1,0,0.1
		c1,0.4,1.6-0.1,2-0.9c3.6-1.1,7.2-2.1,10.8-3.2c-0.3,1.9-1.6,3.2-2.6,4.7c-5.3,7.2-10.8,14.3-15.7,21.7
		c-4.1,6.1-9.5,11.5-11.4,18.9c0,0,0-0.1,0-0.1c-0.8,0-1,0.6-1.1,1.2C62.7,266.5,57,268.3,51,269.4z"/>
	<path class="st2" d="M280.1,259.9c-7.5,15.6-14.3,29.9-21.1,44.2c-0.4-0.1-0.7-0.1-1.1-0.2c-0.9-8-1.9-16-2.8-24
		c-0.1-1.2-0.1-2.3-0.2-3.5c-1-8.5-1-8.5,7-11C267.4,263.6,272.9,262,280.1,259.9z"/>
	<path class="st2" d="M146.9,86.7c8.4-6.5,15.8-14.2,23.6-21.3c10-9,19.7-18.3,29.5-27.4c0.9-0.8,1.7-1.6,3-1.7
		c0.1,4.6-1.3,8.8-2.8,13.1c-12.8,10.7-25.8,21.2-38.4,32.1c-4.3,3.7-9.8,6.3-12.1,12C148.8,91.3,147.9,89,146.9,86.7z"/>
	<path class="st3" d="M69.1,262.5c2-7.4,7.3-12.8,11.4-18.9c5-7.4,10.5-14.5,15.7-21.7c1.1-1.5,2.4-2.8,2.6-4.7
		c4.7-1.5,9.4-3,14.1-4.5c1.1,2.1-1,2.9-1.8,4c-6.1,8-12.5,15.8-18.6,23.9c-2.3,3.1-5.5,5.7-6.5,9.8c0,0,0,0,0,0
		c-0.4,0.3-0.7,0.6-1.1,0.9c0,0,0,0,0,0c-0.3,0.3-0.7,0.6-1,0.9C79.2,256,74.5,259.7,69.1,262.5z"/>
	<path class="st2" d="M208.7,15.3c-6.2,3.7-10.8,9.1-15.9,14c-14.8,14.3-29.2,29-43.2,44c-1.8,1.9-3.2,4.3-5.9,5.1
		c-2.5-2.2-3-4.3-0.2-6.9c21.8-20.9,43.4-42,65.1-63c0.2-0.2,0.6-0.3,1.3-0.6C210.5,10.6,209,12.9,208.7,15.3z"/>
	<path class="st2" d="M86.1,250.4c0.9-4.1,4.1-6.7,6.5-9.8c6.1-8,12.5-15.8,18.6-23.9c0.8-1.1,2.9-1.9,1.8-4
		c4.4-1.2,8.8-2.5,13.5-3.8C119.9,230,103.3,240.5,86.1,250.4z"/>
	<path class="st3" d="M149.8,93.5c2.3-5.7,7.8-8.3,12.1-12c12.6-10.9,25.6-21.5,38.4-32.1c-0.5,4.5-1.5,8.8-3.2,13
		c-7.6,4.1-13.7,10.2-20.6,15.3c-6.8,5-13.2,10.5-19.9,15.6c-1.7,1.3-3.1,3.1-5.5,3.1C150.6,95.5,150.2,94.5,149.8,93.5z"/>
	<path class="st2" d="M247.9,360.6c1.9-5.6,3.5-10.1,5-14.6c0.7-2.2,1.7-2.7,3.4-0.7c2.4,2.8,4.8,5.5,7.3,8.1
		c1.6,1.7,1.4,2.9-0.9,3.5C258.2,358.1,253.6,359.2,247.9,360.6z"/>
	<path class="st2" d="M259.1,314.4c-3.5,0.7-5.5,3.6-7.9,5.7c-3.6,3.1-7,5.2-12,3.6c-2.7-0.8-5.8-0.4-8.7-0.6
		c-0.1-0.5-0.2-1-0.3-1.5c10-3.4,19.9-6.8,29.9-10.3C260.9,313,259,313.3,259.1,314.4L259.1,314.4z"/>
	<path class="st3" d="M88,220.4c-0.4,0.9-1,1.3-2,0.9C86.3,220.1,87.3,220.5,88,220.4z"/>
	<path class="st2" d="M106.4,336.8c-0.4,0.4-0.8,0.6-1.2,0.1c-0.1-0.1,0.3-0.5,0.5-0.8C106,336.3,106.2,336.6,106.4,336.8z"/>
	<path class="st2" d="M144.9,333.2c0.3-0.1,0.5-0.2,0.8-0.3c-0.1,0.3-0.2,0.5-0.3,0.8C145.2,333.5,145,333.4,144.9,333.2z"/>
	<path class="st2" d="M85,251.3c0.4-0.3,0.7-0.6,1.1-0.9C86,251.1,85.7,251.4,85,251.3z"/>
	<path class="st2" d="M84,252.3c0.3-0.3,0.7-0.6,1-0.9C84.6,251.7,84.3,252,84,252.3z"/>
	<path class="st3" d="M68.1,263.6c0.1-0.6,0.3-1.2,1.1-1.2C68.8,262.8,68.4,263.2,68.1,263.6z"/>
</g>
</svg>
