<?xml version="1.0" encoding="utf-8"?>
<!-- Generator: Adobe Illustrator 22.1.0, SVG Export Plug-In . SVG Version: 6.00 Build 0)  -->
<svg version="1.1" id="Layer_1" xmlns="http://www.w3.org/2000/svg" xmlns:xlink="http://www.w3.org/1999/xlink" x="0px" y="0px"
	 viewBox="0 0 350 350" style="enable-background:new 0 0 350 350;" xml:space="preserve">
<style type="text/css">
	.st0{fill:#663F7C;}
	.st1{fill:#D0D9DD;}
	.st2{fill:#AE8CBF;}
	.st3{fill:#FEFEFE;}
	.st4{fill:#168250;}
	.st5{fill:#80C898;}
	.st6{fill:#59BE89;}
	.st7{fill:#97D1AE;}
	.st8{fill:#135987;}
	.st9{fill:#6BA1D6;}
	.st10{fill:#4F78B8;}
	.st11{fill:#A7C4E2;}
	.st12{fill:#A8CF65;}
	.st13{fill:#90C756;}
	.st14{fill:#C75D19;}
	.st15{fill:#F9A83F;}
	.st16{fill:#B0233E;}
	.st17{fill:#F06D85;}
	.st18{fill:#EF4A6B;}
</style>
<g>
	<path class="st8" d="M48,295.1c7.6-9,15.3-18,22.9-26.9c4.9-5.7,7.3-6.3,14.3-3.1c0.6-10.9,1.1-21.6,1.6-32.4
		c0.9-19.6,1.9-39.3,2.7-58.9c0.2-5.1,1.6-9.4,5.3-13.3c5.6-6,11-12.2,15.9-18.7c3.7-4.9,8.1-7.4,14.2-6.3c4,0.7,5.6-0.9,6.3-5
		c5.1-29.5,10.5-59,15.7-88.5c1.2-6.9,4-11.5,11.5-14.2c22.6-8.2,44.8-17.6,67.1-26.5c7.2-2.9,10.1-1.2,9.6,6.4
		c-0.3,4.5,2.7,7.5,3.5,11.5c11,57.4,22.3,114.7,33.5,172.1c0.1,0.6,0.4,1.2,0.8,2.4c2.7-5.8,5.4-11,7.6-16.4
		c1.2-2.9,2.8-4.1,5.8-4.1c7.4,0.1,14.8,0.1,22.1,0c3,0,4.9,1.1,6.3,3.8c2.2,4.2,4.4,8.4,6.9,12.5c1.8,3,1.1,6.1,0.8,9.1
		c-3.2,31.8-6.6,63.6-10,95.3c-0.1,1.3-0.5,2.6-0.8,3.8c-11.3,11.1-24.9,18.4-39.2,24.8c-3.9,1.7-7.4,1.9-11.3,0.4
		c-10.6-4-21.2-7.8-31.8-11.9c-3.1-1.2-5.4-1-8.2,0.7c-7.6,4.5-15.4,8.6-23.1,13c-3.5,2-7.1,3-11.2,2.9c-9.8-0.2-19.7-0.7-29.5,0.1
		c-13.9,1.2-26.3-1.5-36.9-10.8c-1.9-1.7-3.9-1.8-6.3-0.8c-8,3.4-16.5,5-25.1,6.7c-17.6,3.5-32.5-1.3-45.5-13.3
		c-2.6-2.4-3-4.9-0.8-7.8C44.6,299.5,46.3,297.3,48,295.1z M261.2,276.1c-0.2-0.1-0.3-0.3-0.5-0.4C260.8,275.9,261,276,261.2,276.1
		c-0.7,3.7,0.6,7.2,1.1,10.7c1.4,9.3,3.2,18.6,5,27.8c0.3,1.4-0.1,4.7,3.4,3.1c5.9-2.8,11.8-5.6,17.7-8.3c1.9-0.9,2-1.8,0.7-3.2
		c-1.6-1.8-3.1-3.8-4.8-5.5C276,293,269.8,283.4,261.2,276.1z M200.1,17.2C185.4,23,170.7,28.7,156,34.4c-2,0.8-2.1,2-1.6,3.8
		c1.8,6.9,3.5,13.8,5.2,20.8c0.8,3.8,1.7,7.6,2.5,11.3c1.2,4.7,2.4,9.3,3.6,14c0.7,3,1.2,6.1,2.1,9.1c0.6,2-0.2,4.8,2.8,5.6
		c9.2,7.6,19.4,13.8,29,20.9c2,1.4,3.1,0.6,4.6-0.7c7.9-7.3,15.9-14.6,23.9-21.9c1.7-1.5,2.5-3.1,2.5-5.5
		c-0.1-26.2-0.1-52.3-0.1-78.5c-0.6-1,0.1-2.1,0-3.1c-0.1-5.2-0.5-5.4-5.3-3.4C216.7,10.2,208.4,13.7,200.1,17.2z M161.6,231.8
		c5.6-2.2,10.5-4,15.3-6c2.3-1,4.2-1,6.4,0.5c8.7,5.6,17.4,11.1,26.2,16.4c3.1,1.9,4.7,4.2,5.4,7.7c2.4,11.8,5.1,23.6,7.5,35.5
		c0.6,3.2,1.7,3.3,4.1,1.8c4.1-2.6,8.3-5.2,12.6-7.6c1.7-1,2.6-2.2,3.4-4c5.7-14.1,11.5-28.2,17.3-42.3c1.5-3.6,1.9-7.1,1-11
		c-9.7-40.2-19.4-80.4-28.9-120.7c-0.8-3.5-1.6-3.2-3.8-1.2c-7.7,7.1-15.5,14.1-23.1,21.3c-2.1,2-3.6,2.6-6.2,0.5
		c-4.7-3.8-9.7-7.3-14.8-10.6c-4.9-3.2-9.4-7.2-15.1-9.8C166.4,145.6,164,188.3,161.6,231.8z M152.8,43.8c-0.3,0-0.5,0.1-0.8,0.1
		c-0.4,2.1-0.8,4.1-1.2,6.2c-3,15.7-5.6,31.5-8.3,47.2c-3.7,21.8-8.5,43.5-12.2,65.4c-6.5,38.1-13.4,76.1-20.6,114
		c-0.9,4.6-0.1,7.9,4.6,9.9c2.1,0.9,4,2.3,5.7,3.7c2.9,2.4,4.2,1.8,5.6-1.7c6.5-15.7,13.2-31.3,19.9-47c1.3-3.1,2.8-5.6,6.7-6.3
		c3-0.6,6.3-1.9,6.5-6.2c0.6-13.2,1.1-26.4,2-39.7c0.4-6.2,0.6-12.4,1-18.6c1.7-23.3,2.8-46.6,3.8-70c0.1-1.6,0.2-3.3-0.2-4.9
		C161.4,78.6,157.1,61.2,152.8,43.8z M165.4,322.5c6.7,0,13.4-0.2,20.1,0.1c4,0.2,5.1-1.2,4.8-5c-0.8-11.2-1-22.5-2.2-33.7
		c-0.7-6.5-0.1-13.1-1.3-19.6c-0.5-2.5-1.3-2.8-3.5-2.1c-9,2.9-18.1,5.6-27.2,8.3c-1.6,0.5-2.9,0.9-3.4,3
		c-3.7,15.1-7.7,30.1-11.5,45.1c-0.7,2.7,0.1,4,3.1,3.9C151.3,322.4,158.3,322.5,165.4,322.5z M234.4,23.6c-2.6,3.9-0.9,7.5-0.9,11
		c-0.1,18.4,0,36.7,0,55.1c0,3.1-0.6,6,0.1,9.2c7.9,32.6,15.7,65.3,23.6,97.9c2,8.2,4.2,16.4,6.3,24.7c3.2-5.2,7.1-10.1,6.3-16
		c-1.6-11.1-4.1-22.1-6.3-33.1c-5.4-27.3-10.7-54.7-16.1-82C243.1,68.3,238.8,46.3,234.4,23.6z M297.5,224.9
		c-0.9-0.8,1.7-4.7-2.2-3.2c-4.8,1.8-9.6,3.6-12.4,8.8c-5.4,9.9-11.3,19.5-17,29.3c-1.9,3.2-5.1,6.4-5.3,9.8c-0.2,3.8,4.7,5.8,7,8.9
		c0.2,0.3,0.4,0.6,0.6,0.8c6.9,7.4,13.8,14.9,20.7,22.3c0.7,0.8,1.4,2.2,2.7,1.6c1.2-0.5,1-1.9,1-3.1c0.1-3.1,0.1-6.2,0.3-9.3
		C294.4,268.9,295.9,247.1,297.5,224.9z M222.9,302.8c0-0.5,0-0.9-0.1-1.2c-3.6-16.6-7.2-33.1-10.7-49.7c-0.6-2.8-1.9-2.6-3.8-1.6
		c-5.6,3-11.3,6-16.9,9c-1.7,0.9-2.1,2.1-1.8,4c1.3,7.6,0.6,15.3,1.4,23c1.2,10.7,1.5,21.5,2,32.2c0.1,2.7,1.2,2.6,3,1.6
		c8.2-4.5,16.3-9,24.5-13.5C222.1,305.7,223.3,304.6,222.9,302.8z M82.8,318.9c6.8-1.4,13.6-3.2,20.6-4.2c8.5-1.3,14.3-5,17.5-13.6
		c1.9-5.3,0.3-7.1-3.7-9.5c-11.7-7.1-23.3-14.5-34.9-21.7c-0.8-0.5-1.4-1.6-2.5-1c-1,0.6-0.6,1.7-0.7,2.7
		c-0.4,5.1,0.8,10.1,0.8,15.1c-0.1,9,0.8,18-0.6,26.9C78.9,315.5,78.3,319.2,82.8,318.9z M105.7,280.9c0-32,0-63.1,0-94.2
		c0-1.5-0.4-2.8-1.4-4c-3-3.4-5.8-6.8-9.1-10.7c-0.5,3.9-1.3,7.1-1.3,10.3c0.3,18.3-1.4,36.6-2.3,54.8c-0.5,10.2,0,20.6-1.6,30.8
		c-0.3,2.1,0.2,3.9,2.1,5.1C96.4,275.4,100.7,277.9,105.7,280.9z M317.5,199.6c-0.3-0.2-0.6-0.3-1-0.5c-4.8,5.7-9.7,11.3-14.5,17.1
		c-1.1,1.3-1.5,2.8-1.6,4.5c-0.9,14-2,28-2.9,42c-0.9,13.8-1.6,27.6-2.4,42.3c6.7-5.4,14.7-9.1,13.3-19.4c-0.2-1.3,0.1-2.6,0.3-3.9
		c1.2-11.5,2.4-23,3.7-34.5c0.9-7.9,1.8-15.9,2.7-23.8C315.9,215.5,316.7,207.5,317.5,199.6z M264.8,316.5
		c-2.3-13.2-4.7-26.3-6.9-39.5c-0.6-3.6-1.8-4.2-5-2.3c-8.3,5.2-16.8,10.1-25.2,15.2c-1.5,0.9-4.4,1.5-3.6,3.9
		c1.3,3.8-0.5,9.2,4.4,11.2c11.2,4.5,22.6,8.6,33.9,12.9C263.6,318.5,265,318.8,264.8,316.5z M147.8,245.6c-0.3,0-0.5,0-0.8,0
		c-3.3,7.9-6.6,15.9-10,23.8c-5.2,12.4-10.3,24.7-15.6,37c-1.2,2.9-0.6,4.6,2.1,6.5c3.7,2.7,7.9,4.4,11.3,7.6c2,1.9,2.9,0.8,3.5-1.6
		c2.1-8.7,4.6-17.3,6.6-26.1c2.2-9.3,6.2-18.3,5.1-28.3C149.3,258.2,148.5,251.9,147.8,245.6z M285.8,222.7
		c11.8-3.3,17.8-12.4,24.5-20.9c7.5-9.6,7.6-9.6,1.5-20.1c-0.2-0.3-0.4-0.5-0.5-0.8c-0.7-2-2.2-2.5-4.2-2.5
		c-5.9,0.1-11.8,0.2-17.7,0c-2.9-0.1-3.6,1.1-3.5,3.7C285.8,195.6,285.8,209,285.8,222.7z M282.8,186.7c-0.3-0.1-0.7-0.2-1-0.3
		c-11.9,29.3-23.9,58.6-35.8,88c6.1-2.2,11-4.8,14-10.4c5.1-9.3,11-18.1,16.3-27.4c2.4-4.2,6.4-7.7,6.4-13
		C282.9,211.3,282.8,199,282.8,186.7z M108.6,264.2c0.3,0,0.5,0,0.8,0.1c6.9-38.5,13.8-76.9,20.8-115.8c-0.8,0.5-1.3,0.7-1.5,1
		c-6.2,10.6-12.3,21.2-18.6,31.8c-1.3,2.2-1.5,4.6-1.5,7.1c0,16.4,0,32.7,0,49.1C108.6,246.4,108.6,255.3,108.6,264.2z M152,238.7
		c12.1,6.4,23.2,12.3,34.3,18.2c0.9,0.5,1.9,0.8,2.8,0.3c6.7-3.6,13.3-7.2,20.7-11.1c-9.8-6.1-18.8-11.7-27.8-17.4
		c-1.4-0.9-2.7-0.9-4.2-0.3C169.6,231.7,161.4,235,152,238.7z M76.3,271.1c-0.3-0.1-0.7-0.2-1-0.3c-9,10.8-17.8,21.6-26.9,32.2
		c-1.9,2.3-0.8,3.1,0.7,4.6c6.7,6.6,15.2,9.2,24.1,10.9c2.2,0.4,3.3,0.3,3.2-2.4C76.3,301.1,76.3,286.1,76.3,271.1z M131,140.2
		c-5.4,1-10.2-1.7-13.5,1.9c-7.1,7.7-13.7,15.9-20.5,23.9c-0.7,0.8-1.8,1.7-0.7,2.9c3.6,3.8,6.2,8.6,10.9,11.6
		C115.1,167.3,122.7,154.4,131,140.2z M182.7,259.6c0-0.4,0.1-0.8,0.1-1.2c-9.8-5.3-19.7-10.7-29.6-16c-2.8-1.5-2.5,1-2.4,2.5
		c0.6,6.8,1.3,13.6,2,20.3c0.2,2.4,2.1,2.4,3.6,1.9C165.3,264.8,174,262.2,182.7,259.6z"/>
	<path class="st1" d="M48,295.1c-1.7,2.2-3.4,4.4-5.1,6.6c-2.2,2.8-1.8,5.4,0.8,7.8c13,12,27.9,16.8,45.5,13.3
		c8.5-1.7,17-3.3,25.1-6.7c2.4-1,4.4-0.9,6.3,0.8c10.6,9.3,23,12,36.9,10.8c9.8-0.8,19.7-0.3,29.5-0.1c4.1,0.1,7.7-0.9,11.2-2.9
		c7.7-4.4,15.5-8.6,23.1-13c2.8-1.6,5.1-1.9,8.2-0.7c10.5,4.2,21.2,7.9,31.8,11.9c3.9,1.5,7.4,1.3,11.3-0.4
		c14.3-6.3,27.9-13.7,39.2-24.8c5.6,2.3,11,5,15.2,9.5c4.8,5.1,4.9,9.5,0,14.6c-7,7.2-16.3,10.2-25.5,13.2
		c-20.6,6.7-42,9.5-63.4,11.7c-13,1.3-26,2.6-39.1,2.4c-9.8-0.2-19.6,1.4-29.4,0.8c-23.3-1.2-46.6-1.8-69.8-4.7
		c-19.5-2.4-38.7-5.9-57.3-12.2c-7.4-2.5-14.7-5.5-20.2-11.6c-4.2-4.7-4.4-9.2,0.1-13.8C29.6,300.6,38.1,296.5,48,295.1z"/>
	<path class="st9" d="M161.6,231.8c2.5-43.4,4.9-86.1,7.3-129.5c5.6,2.6,10.1,6.6,15.1,9.8c5.1,3.3,10,6.8,14.8,10.6
		c2.6,2,4.1,1.5,6.2-0.5c7.6-7.2,15.4-14.2,23.1-21.3c2.2-2,3-2.4,3.8,1.2c9.5,40.3,19.2,80.5,28.9,120.7c0.9,3.9,0.5,7.4-1,11
		c-5.8,14.1-11.6,28.2-17.3,42.3c-0.7,1.8-1.7,3-3.4,4c-4.3,2.5-8.5,5-12.6,7.6c-2.4,1.5-3.5,1.4-4.1-1.8
		c-2.4-11.9-5.1-23.6-7.5-35.5c-0.7-3.4-2.3-5.8-5.4-7.7c-8.8-5.3-17.5-10.8-26.2-16.4c-2.2-1.4-4.1-1.5-6.4-0.5
		C172.1,227.8,167.2,229.6,161.6,231.8z"/>
	<path class="st10" d="M152.8,43.8c4.3,17.4,8.5,34.8,12.7,52.3c0.4,1.6,0.3,3.3,0.2,4.9c-0.9,23.3-2.1,46.7-3.8,70
		c-0.5,6.2-0.6,12.4-1,18.6c-0.9,13.2-1.5,26.4-2,39.7c-0.2,4.4-3.5,5.7-6.5,6.2c-4,0.8-5.4,3.3-6.7,6.3
		c-6.7,15.6-13.4,31.3-19.9,47c-1.4,3.4-2.7,4.1-5.6,1.7c-1.7-1.5-3.7-2.9-5.7-3.7c-4.7-2-5.5-5.3-4.6-9.9c7.1-38,14-75.9,20.6-114
		c3.7-21.8,8.5-43.5,12.2-65.4c2.7-15.7,5.3-31.5,8.3-47.2c0.4-2.1,0.8-4.1,1.2-6.2C152.3,43.9,152.5,43.8,152.8,43.8z"/>
	<path class="st11" d="M230.4,13.3c0,26.2,0,52.3,0.1,78.5c0,2.4-0.9,4-2.5,5.5c-8,7.3-15.9,14.5-23.9,21.9
		c-1.5,1.4-2.6,2.2-4.6,0.7c-9.6-7.1-19.8-13.3-29-20.9c4.8-5.7,10.3-10.9,15.6-16.2c13.7-13.7,27.4-27.2,41.9-40.1
		c0.9-0.8,1.6-1.6,1.6-2.9c0-6.6,0-13.3,0-20.6c-6.9,4.4-11.6,10-16.7,14.9c-13,12.5-25.4,25.5-37.8,38.5c-3.4,3.6-7.4,6.9-9.4,11.7
		c-1.2-4.7-2.4-9.3-3.6-14c1.3,0.1,2-0.5,2.9-1.3c8.5-7.6,17.3-14.8,25.7-22.5C203.4,34.8,217.2,24.5,230.4,13.3z"/>
	<path class="st9" d="M165.4,322.5c-7,0-14.1-0.1-21.1,0c-3,0-3.8-1.2-3.1-3.9c3.9-15,7.8-30.1,11.5-45.1c0.5-2.1,1.8-2.5,3.4-3
		c9.1-2.8,18.2-5.5,27.2-8.3c2.3-0.7,3.1-0.4,3.5,2.1c1.2,6.5,0.6,13,1.3,19.6c1.2,11.2,1.4,22.5,2.2,33.7c0.3,3.9-0.8,5.2-4.8,5
		C178.8,322.3,172.1,322.5,165.4,322.5z"/>
	<path class="st10" d="M234.4,23.6c4.4,22.6,8.7,44.7,13,66.7c5.4,27.3,10.7,54.7,16.1,82c2.2,11,4.7,22,6.3,33.1
		c0.8,5.8-3.1,10.7-6.3,16c-2.1-8.2-4.3-16.4-6.3-24.7c-7.9-32.6-15.7-65.3-23.6-97.9c-0.8-3.1-0.1-6.1-0.1-9.2
		c0-18.4,0-36.7,0-55.1C233.5,31.1,231.8,27.5,234.4,23.6z"/>
	<path class="st9" d="M297.5,224.9c-1.6,22.2-3.1,44-4.6,65.8c-0.2,3.1-0.2,6.2-0.3,9.3c0,1.1,0.2,2.6-1,3.1c-1.3,0.5-2-0.9-2.7-1.6
		c-6.9-7.4-13.8-14.8-20.7-22.3c-0.2-0.2-0.4-0.5-0.6-0.8c-2.3-3.1-7.2-5.1-7-8.9c0.2-3.3,3.4-6.5,5.3-9.8
		c5.7-9.7,11.7-19.3,17-29.3c2.8-5.2,7.6-7,12.4-8.8C299.2,220.2,296.6,224.1,297.5,224.9z"/>
	<path class="st10" d="M222.9,302.8c0.4,1.8-0.8,2.8-2.3,3.7c-8.2,4.5-16.3,9-24.5,13.5c-1.8,1-2.9,1.1-3-1.6
		c-0.5-10.8-0.8-21.6-2-32.2c-0.9-7.7-0.2-15.4-1.4-23c-0.3-1.9,0.1-3.1,1.8-4c5.7-3,11.3-6,16.9-9c1.9-1,3.2-1.2,3.8,1.6
		c3.5,16.6,7.1,33.2,10.7,49.7C222.8,302,222.8,302.3,222.9,302.8z"/>
	<path class="st3" d="M165.6,84.3c2.1-4.8,6-8.1,9.4-11.7c12.4-13,24.9-26.1,37.8-38.5c5.1-4.9,9.8-10.5,16.7-14.9
		c0,7.4,0,14,0,20.6c0,1.2-0.7,2-1.6,2.9c-14.5,12.9-28.2,26.4-41.9,40.1c-5.3,5.3-10.8,10.5-15.6,16.2c-3-0.8-2.2-3.6-2.8-5.6
		C166.8,90.4,166.3,87.3,165.6,84.3z"/>
	<path class="st10" d="M82.8,318.9c-4.5,0.3-3.9-3.4-3.6-5.4c1.4-9,0.5-18,0.6-26.9c0-5-1.1-10-0.8-15.1c0.1-0.9-0.3-2.1,0.7-2.7
		c1.1-0.6,1.7,0.5,2.5,1c11.6,7.3,23.2,14.7,34.9,21.7c4,2.4,5.6,4.2,3.7,9.5c-3.1,8.7-8.9,12.4-17.5,13.6
		C96.5,315.7,89.7,317.5,82.8,318.9z"/>
	<path class="st10" d="M105.7,280.9c-5-3-9.3-5.5-13.6-8.1c-1.9-1.2-2.5-3-2.1-5.1c1.6-10.2,1.1-20.5,1.6-30.8
		c0.9-18.3,2.6-36.5,2.3-54.8c-0.1-3.2,0.8-6.3,1.3-10.3c3.3,3.9,6.2,7.3,9.1,10.7c1.1,1.2,1.4,2.5,1.4,4
		C105.7,217.7,105.7,248.8,105.7,280.9z"/>
	<path class="st10" d="M317.5,199.6c-0.8,7.9-1.6,15.9-2.5,23.8c-0.9,7.9-1.8,15.9-2.7,23.8c-1.2,11.5-2.5,23-3.7,34.5
		c-0.1,1.3-0.4,2.6-0.3,3.9c1.3,10.3-6.6,14-13.3,19.4c0.8-14.7,1.5-28.5,2.4-42.3c0.9-14,2-28,2.9-42c0.1-1.7,0.5-3.3,1.6-4.5
		c4.8-5.7,9.7-11.4,14.5-17.1C316.9,199.3,317.2,199.4,317.5,199.6z"/>
	<path class="st3" d="M230.4,13.3c-13.1,11.2-27,21.5-39.7,33.2c-8.4,7.7-17.2,15-25.7,22.5c-0.9,0.8-1.6,1.5-2.9,1.3
		c-0.9-3.8-1.7-7.6-2.5-11.3c0.4-2,1.5-3.5,3-4.9c10-9.6,19.6-19.6,30-28.8c2.7-2.4,6.1-4.3,7.5-8c8.3-3.5,16.7-7,25-10.4
		c4.8-2,5.1-1.8,5.3,3.4C230.4,11.3,229.7,12.3,230.4,13.3z"/>
	<path class="st9" d="M264.8,316.5c0.3,2.3-1.1,2-2.4,1.5c-11.3-4.2-22.7-8.3-33.9-12.9c-4.9-2-3.1-7.4-4.4-11.2
		c-0.8-2.4,2.1-3,3.6-3.9c8.3-5.1,16.8-10,25.2-15.2c3.2-2,4.4-1.3,5,2.3C260,290.2,262.4,303.3,264.8,316.5z"/>
	<path class="st10" d="M147.8,245.6c0.7,6.3,1.5,12.6,2.2,18.9c1.1,9.9-2.9,18.9-5.1,28.3c-2,8.7-4.5,17.3-6.6,26.1
		c-0.6,2.4-1.5,3.5-3.5,1.6c-3.3-3.2-7.6-4.9-11.3-7.6c-2.6-1.9-3.3-3.6-2.1-6.5c5.2-12.3,10.4-24.7,15.6-37
		c3.3-7.9,6.7-15.9,10-23.8C147.3,245.6,147.5,245.6,147.8,245.6z"/>
	<path class="st11" d="M285.8,222.7c0-13.7,0.1-27.1,0-40.6c0-2.6,0.6-3.8,3.5-3.7c5.9,0.2,11.8,0.1,17.7,0c2,0,3.5,0.5,4.2,2.5
		c0.1,0.3,0.3,0.6,0.5,0.8c6.1,10.5,6.1,10.4-1.5,20.1C303.6,210.3,297.6,219.4,285.8,222.7z"/>
	<path class="st10" d="M282.8,186.7c0,12.3,0.1,24.6,0,36.9c-0.1,5.2-4.1,8.8-6.4,13c-5.2,9.2-11.2,18.1-16.3,27.4
		c-3,5.6-7.9,8.2-14,10.4c11.9-29.3,23.9-58.6,35.8-88C282.2,186.5,282.5,186.6,282.8,186.7z"/>
	<path class="st9" d="M108.6,264.2c0-8.9,0-17.8,0-26.7c0-16.4,0-32.7,0-49.1c0-2.5,0.2-4.8,1.5-7.1c6.2-10.6,12.4-21.2,18.6-31.8
		c0.2-0.4,0.7-0.5,1.5-1c-7,38.9-13.9,77.3-20.8,115.8C109.1,264.3,108.9,264.3,108.6,264.2z"/>
	<path class="st11" d="M152,238.7c9.4-3.8,17.6-7,25.8-10.3c1.5-0.6,2.7-0.6,4.2,0.3c9,5.7,18,11.3,27.8,17.4
		c-7.3,3.9-14,7.5-20.7,11.1c-0.9,0.5-1.9,0.1-2.8-0.3C175.2,251,164.1,245.1,152,238.7z"/>
	<path class="st9" d="M76.3,271.1c0,15,0,30,0,45c0,2.7-1,2.8-3.2,2.4c-8.9-1.7-17.4-4.3-24.1-10.9c-1.5-1.5-2.7-2.4-0.7-4.6
		c9.1-10.6,18-21.5,26.9-32.2C75.6,270.9,76,271,76.3,271.1z"/>
	<path class="st11" d="M200.1,17.2c-1.4,3.7-4.8,5.6-7.5,8c-10.4,9.2-20,19.2-30,28.8c-1.5,1.4-2.6,2.9-3,4.9
		c-1.7-6.9-3.4-13.9-5.2-20.8c-0.5-1.8-0.4-3,1.6-3.8C170.7,28.7,185.4,23,200.1,17.2z"/>
	<path class="st11" d="M131,140.2c-8.3,14.1-15.9,27.1-23.7,40.3c-4.7-3.1-7.4-7.8-10.9-11.6c-1.1-1.2-0.1-2.1,0.7-2.9
		c6.8-8,13.4-16.2,20.5-23.9C120.8,138.6,125.6,141.3,131,140.2z"/>
	<path class="st10" d="M261.2,276.1c8.6,7.3,14.8,16.9,23.1,24.6c1.8,1.7,3.2,3.7,4.8,5.5c1.3,1.5,1.1,2.4-0.7,3.2
		c-5.9,2.7-11.8,5.6-17.7,8.3c-3.5,1.6-3.1-1.7-3.4-3.1c-1.9-9.2-3.7-18.5-5-27.8C261.7,283.3,260.5,279.8,261.2,276.1L261.2,276.1z
		"/>
	<path class="st10" d="M182.7,259.6c-8.7,2.5-17.4,5.1-26.2,7.6c-1.6,0.4-3.4,0.5-3.6-1.9c-0.7-6.8-1.4-13.6-2-20.3
		c-0.1-1.5-0.4-4,2.4-2.5c9.9,5.2,19.7,10.6,29.6,16C182.8,258.8,182.8,259.2,182.7,259.6z"/>
	<path class="st10" d="M261.1,276.2c-0.1-0.2-0.3-0.3-0.4-0.5C260.9,275.8,261,276,261.1,276.2C261.2,276.1,261.1,276.2,261.1,276.2
		z"/>
</g>
</svg>
